{
  "accessors": [
    {
      "bufferView": 2,
      "componentType": 5126,
      "count": 4644,
      "max": [
        9.495190620422363,
        8.523076057434082,
        20.353553771972656
      ],
      "min": [
        -9.495190620422363,
        -8.523076057434082,
        -1.7881393432617188e-07
      ],
      "type": "VEC3"
    },
    {
      "bufferView": 2,
      "byteOffset": 55728,
      "componentType": 5126,
      "count": 4644,
      "max": [
        1.0,
        0.9982035756111145,
        1.0
      ],
      "min": [
        -1.0,
        -0.9982035160064697,
        -1.0
      ],
      "type": "VEC3"
    },
    {
      "bufferView": 1,
      "componentType": 5126,
      "count": 4644,
      "max": [
        0.9817067980766296,
        0.9873683452606201
      ],
      "min": [
        0.38749998807907104,
        0.012763679027557373
      ],
      "type": "VEC2"
    },
    {
      "bufferView": 0,
      "componentType": 5125,
      "count": 7080,
      "type": "SCALAR"
    },
    {
      "bufferView": 2,
      "byteOffset": 111456,
      "componentType": 5126,
      "count": 2368,
      "max": [
        4.000000476837158,
        3.9999992847442627,
        5.099999904632568
      ],
      "min": [
        -4.000000476837158,
        -4.0,
        -0.25
      ],
      "type": "VEC3"
    },
    {
      "bufferView": 2,
      "byteOffset": 139872,
      "componentType": 5126,
      "count": 2368,
      "max": [
        1.0,
        0.9807853698730469,
        1.0
      ],
      "min": [
        -1.0,
        -0.9807854294776917,
        -1.0
      ],
      "type": "VEC3"
    },
    {
      "bufferView": 1,
      "byteOffset": 37152,
      "componentType": 5126,
      "count": 2368,
      "max": [
        0.9689860343933105,
        0.9766827821731567
      ],
      "min": [
        0.3882501721382141,
        0.02128434181213379
      ],
      "type": "VEC2"
    },
    {
      "bufferView": 0,
      "byteOffset": 28320,
      "componentType": 5125,
      "count": 3894,
      "type": "SCALAR"
    },
    {
      "bufferView": 2,
      "byteOffset": 168288,
      "componentType": 5126,
      "count": 1696,
      "max": [
        3.450000047683716,
        3.0,
        2.8422441482543945
      ],
      "min": [
        -3.450000047683716,
        -4.176776885986328,
        -2.101959228515625
      ],
      "type": "VEC3"
    },
    {
      "bufferView": 2,
      "byteOffset": 188640,
      "componentType": 5126,
      "count": 1696,
      "max": [
        1.0,
        1.0,
        1.0
      ],
      "min": [
        -1.0,
        -1.0,
        -1.0
      ],
      "type": "VEC3"
    },
    {
      "bufferView": 1,
      "byteOffset": 56096,
      "componentType": 5126,
      "count": 1696,
      "max": [
        0.9687223434448242,
        0.987500011920929
      ],
      "min": [
        0.38749998807907104,
        0.013928532600402832
      ],
      "type": "VEC2"
    },
    {
      "bufferView": 0,
      "byteOffset": 43896,
      "componentType": 5125,
      "count": 2658,
      "type": "SCALAR"
    },
    {
      "bufferView": 2,
      "byteOffset": 208992,
      "componentType": 5126,
      "count": 424,
      "max": [
        1.25,
        -3.000000476837158,
        2.250000476837158
      ],
      "min": [
        -1.25,
        -16.0,
        -0.2499995231628418
      ],
      "type": "VEC3"
    },
    {
      "bufferView": 2,
      "byteOffset": 214080,
      "componentType": 5126,
      "count": 424,
      "max": [
        1.0,
        1.0,
        1.0
      ],
      "min": [
        -1.0,
        -0.7620008587837219,
        -1.0
      ],
      "type": "VEC3"
    },
    {
      "bufferView": 1,
      "byteOffset": 69664,
      "componentType": 5126,
      "count": 424,
      "max": [
        0.8480557203292847,
        0.9875000715255737
      ],
      "min": [
        0.09805566072463989,
        0.6953140497207642
      ],
      "type": "VEC2"
    },
    {
      "bufferView": 0,
      "byteOffset": 54528,
      "componentType": 5125,
      "count": 666,
      "type": "SCALAR"
    },
    {
      "bufferView": 2,
      "byteOffset": 219168,
      "componentType": 5126,
      "count": 4260,
      "max": [
        9.495190620422363,
        8.523076057434082,
        10.353553771972656
      ],
      "min": [
        -9.495190620422363,
        -8.523076057434082,
        -1.7881393432617188e-07
      ],
      "type": "VEC3"
    },
    {
      "bufferView": 2,
      "byteOffset": 270288,
      "componentType": 5126,
      "count": 4260,
      "max": [
        1.0,
        0.9982035756111145,
        1.0
      ],
      "min": [
        -1.0,
        -0.9982035756111145,
        -1.0
      ],
      "type": "VEC3"
    },
    {
      "bufferView": 1,
      "byteOffset": 73056,
      "componentType": 5126,
      "count": 4260,
      "max": [
        0.9798147082328796,
        0.9873683452606201
      ],
      "min": [
        0.38749998807907104,
        0.012763679027557373
      ],
      "type": "VEC2"
    },
    {
      "bufferView": 0,
      "byteOffset": 57192,
      "componentType": 5125,
      "count": 6468,
      "type": "SCALAR"
    },
    {
      "bufferView": 2,
      "byteOffset": 321408,
      "componentType": 5126,
      "count": 2368,
      "max": [
        4.000000476837158,
        3.9999992847442627,
        5.099999904632568
      ],
      "min": [
        -4.000000476837158,
        -4.0,
        -0.25
      ],
      "type": "VEC3"
    },
    {
      "bufferView": 2,
      "byteOffset": 349824,
      "componentType": 5126,
      "count": 2368,
      "max": [
        1.0,
        0.9807853698730469,
        1.0
      ],
      "min": [
        -1.0,
        -0.9807854294776917,
        -1.0
      ],
      "type": "VEC3"
    },
    {
      "bufferView": 1,
      "byteOffset": 107136,
      "componentType": 5126,
      "count": 2368,
      "max": [
        0.9689860343933105,
        0.9766827821731567
      ],
      "min": [
        0.3882501721382141,
        0.02128434181213379
      ],
      "type": "VEC2"
    },
    {
      "bufferView": 0,
      "byteOffset": 83064,
      "componentType": 5125,
      "count": 3894,
      "type": "SCALAR"
    },
    {
      "bufferView": 2,
      "byteOffset": 378240,
      "componentType": 5126,
      "count": 1604,
      "max": [
        2.4999992847442627,
        2.000000476837158,
        12.0
      ],
      "min": [
        -2.4999992847442627,
        -2.0000061988830566,
        -1.9999871253967285
      ],
      "type": "VEC3"
    },
    {
      "bufferView": 2,
      "byteOffset": 397488,
      "componentType": 5126,
      "count": 1604,
      "max": [
        1.0,
        1.0,
        0.9807853698730469
      ],
      "min": [
        -1.0,
        -1.0,
        -0.9807853698730469
      ],
      "type": "VEC3"
    },
    {
      "bufferView": 1,
      "byteOffset": 126080,
      "componentType": 5126,
      "count": 1604,
      "max": [
        0.9768586158752441,
        0.9874999523162842
      ],
      "min": [
        0.39273011684417725,
        0.01323843002319336
      ],
      "type": "VEC2"
    },
    {
      "bufferView": 0,
      "byteOffset": 98640,
      "componentType": 5125,
      "count": 2568,
      "type": "SCALAR"
    },
    {
      "bufferView": 2,
      "byteOffset": 416736,
      "componentType": 5126,
      "count": 4922,
      "max": [
        8.440506935119629,
        3.233708381652832,
        8.515568733215332
      ],
      "min": [
        -8.440506935119629,
        -6.749999046325684,
        -8.515569686889648
      ],
      "type": "VEC3"
    },
    {
      "bufferView": 2,
      "byteOffset": 475800,
      "componentType": 5126,
      "count": 4922,
      "max": [
        1.0,
        1.0,
        0.9995923042297363
      ],
      "min": [
        -1.0,
        -1.0,
        -0.9995922446250916
      ],
      "type": "VEC3"
    },
    {
      "bufferView": 1,
      "byteOffset": 138912,
      "componentType": 5126,
      "count": 4922,
      "max": [
        0.986621618270874,
        0.987500011920929
      ],
      "min": [
        0.38749998807907104,
        0.013641536235809326
      ],
      "type": "VEC2"
    },
    {
      "bufferView": 0,
      "byteOffset": 108912,
      "componentType": 5125,
      "count": 7512,
      "type": "SCALAR"
    },
    {
      "bufferView": 2,
      "byteOffset": 534864,
      "componentType": 5126,
      "count": 2368,
      "max": [
        4.000000476837158,
        3.9999992847442627,
        5.099999904632568
      ],
      "min": [
        -4.000000476837158,
        -4.0,
        -0.25
      ],
      "type": "VEC3"
    },
    {
      "bufferView": 2,
      "byteOffset": 563280,
      "componentType": 5126,
      "count": 2368,
      "max": [
        1.0,
        0.9807853698730469,
        1.0
      ],
      "min": [
        -1.0,
        -0.9807854294776917,
        -1.0
      ],
      "type": "VEC3"
    },
    {
      "bufferView": 1,
      "byteOffset": 178288,
      "componentType": 5126,
      "count": 2368,
      "max": [
        0.9689860343933105,
        0.9766827821731567
      ],
      "min": [
        0.3882501721382141,
        0.02128434181213379
      ],
      "type": "VEC2"
    },
    {
      "bufferView": 0,
      "byteOffset": 138960,
      "componentType": 5125,
      "count": 3894,
      "type": "SCALAR"
    },
    {
      "bufferView": 2,
      "byteOffset": 591696,
      "componentType": 5126,
      "count": 1604,
      "max": [
        2.4999992847442627,
        2.000000476837158,
        12.0
      ],
      "min": [
        -2.4999992847442627,
        -2.0000061988830566,
        -1.9999871253967285
      ],
      "type": "VEC3"
    },
    {
      "bufferView": 2,
      "byteOffset": 610944,
      "componentType": 5126,
      "count": 1604,
      "max": [
        1.0,
        1.0,
        0.9807853698730469
      ],
      "min": [
        -1.0,
        -1.0,
        -0.9807853698730469
      ],
      "type": "VEC3"
    },
    {
      "bufferView": 1,
      "byteOffset": 197232,
      "componentType": 5126,
      "count": 1604,
      "max": [
        0.9768586158752441,
        0.9874999523162842
      ],
      "min": [
        0.39273011684417725,
        0.01323843002319336
      ],
      "type": "VEC2"
    },
    {
      "bufferView": 0,
      "byteOffset": 154536,
      "componentType": 5125,
      "count": 2568,
      "type": "SCALAR"
    },
    {
      "bufferView": 2,
      "byteOffset": 630192,
      "componentType": 5126,
      "count": 3047,
      "max": [
        2.6836345195770264,
        3.019584894180298,
        10.000012397766113
      ],
      "min": [
        -2.6836345195770264,
        -2.1246070861816406,
        -2.931999921798706
      ],
      "type": "VEC3"
    },
    {
      "bufferView": 2,
      "byteOffset": 666756,
      "componentType": 5126,
      "count": 3047,
      "max": [
        1.0,
        1.0,
        1.0
      ],
      "min": [
        -1.0,
        -1.0,
        -0.9807854294776917
      ],
      "type": "VEC3"
    },
    {
      "bufferView": 1,
      "byteOffset": 210064,
      "componentType": 5126,
      "count": 3047,
      "max": [
        0.9548894166946411,
        0.9866815209388733
      ],
      "min": [
        0.38749998807907104,
        0.041969895362854004
      ],
      "type": "VEC2"
    },
    {
      "bufferView": 0,
      "byteOffset": 164808,
      "componentType": 5125,
      "count": 4656,
      "type": "SCALAR"
    },
    {
      "bufferView": 2,
      "byteOffset": 703320,
      "componentType": 5126,
      "count": 1510,
      "max": [
        1.1161649227142334,
        1.1161659955978394,
        2.9000000953674316
      ],
      "min": [
        -1.1161649227142334,
        -1.1161638498306274,
        0.0
      ],
      "type": "VEC3"
    },
    {
      "bufferView": 2,
      "byteOffset": 721440,
      "componentType": 5126,
      "count": 1510,
      "max": [
        0.9809889197349548,
        0.9809889197349548,
        1.0
      ],
      "min": [
        -0.9809889197349548,
        -0.9809889197349548,
        -1.0
      ],
      "type": "VEC3"
    },
    {
      "bufferView": 1,
      "byteOffset": 234440,
      "componentType": 5126,
      "count": 1510,
      "max": [
        0.9746472835540771,
        0.9829626083374023
      ],
      "min": [
        0.4024083614349365,
        0.015491724014282227
      ],
      "type": "VEC2"
    },
    {
      "bufferView": 0,
      "byteOffset": 183432,
      "componentType": 5125,
      "count": 2250,
      "type": "SCALAR"
    },
    {
      "bufferView": 2,
      "byteOffset": 739560,
      "componentType": 5126,
      "count": 2368,
      "max": [
        4.000000476837158,
        3.9999992847442627,
        5.099999904632568
      ],
      "min": [
        -4.000000476837158,
        -4.0,
        -0.25
      ],
      "type": "VEC3"
    },
    {
      "bufferView": 2,
      "byteOffset": 767976,
      "componentType": 5126,
      "count": 2368,
      "max": [
        1.0,
        0.9807853698730469,
        1.0
      ],
      "min": [
        -1.0,
        -0.9807854294776917,
        -1.0
      ],
      "type": "VEC3"
    },
    {
      "bufferView": 1,
      "byteOffset": 246520,
      "componentType": 5126,
      "count": 2368,
      "max": [
        0.9689860343933105,
        0.9766827821731567
      ],
      "min": [
        0.3882501721382141,
        0.02128434181213379
      ],
      "type": "VEC2"
    },
    {
      "bufferView": 0,
      "byteOffset": 192432,
      "componentType": 5125,
      "count": 3894,
      "type": "SCALAR"
    },
    {
      "bufferView": 2,
      "byteOffset": 796392,
      "componentType": 5126,
      "count": 1579,
      "max": [
        3.0000011920928955,
        3.833003520965576,
        3.6558969020843506
      ],
      "min": [
        -3.0000011920928955,
        -3.200000762939453,
        -2.0
      ],
      "type": "VEC3"
    },
    {
      "bufferView": 2,
      "byteOffset": 815340,
      "componentType": 5126,
      "count": 1579,
      "max": [
        1.0,
        1.0,
        0.99214768409729
      ],
      "min": [
        -1.0,
        -1.0,
        -0.9995133876800537
      ],
      "type": "VEC3"
    },
    {
      "bufferView": 1,
      "byteOffset": 265464,
      "componentType": 5126,
      "count": 1579,
      "max": [
        0.9764331579208374,
        0.9809590578079224
      ],
      "min": [
        0.02776437997817993,
        0.06372970342636108
      ],
      "type": "VEC2"
    },
    {
      "bufferView": 0,
      "byteOffset": 208008,
      "componentType": 5125,
      "count": 2460,
      "type": "SCALAR"
    },
    {
      "bufferView": 2,
      "byteOffset": 834288,
      "componentType": 5126,
      "count": 1406,
      "max": [
        4.050000190734863,
        3.1999998092651367,
        1.0
      ],
      "min": [
        -0.19494730234146118,
        -4.0,
        -3.0
      ],
      "type": "VEC3"
    },
    {
      "bufferView": 2,
      "byteOffset": 851160,
      "componentType": 5126,
      "count": 1406,
      "max": [
        1.0,
        1.0,
        1.0
      ],
      "min": [
        -1.0,
        -1.0,
        -1.0
      ],
      "type": "VEC3"
    },
    {
      "bufferView": 1,
      "byteOffset": 278096,
      "componentType": 5126,
      "count": 1406,
      "max": [
        0.8575000166893005,
        0.9735908508300781
      ],
      "min": [
        0.017499983310699463,
        0.6411510705947876
      ],
      "type": "VEC2"
    },
    {
      "bufferView": 0,
      "byteOffset": 217848,
      "componentType": 5125,
      "count": 2112,
      "type": "SCALAR"
    },
    {
      "bufferView": 2,
      "byteOffset": 868032,
      "componentType": 5126,
      "count": 1401,
      "max": [
        0.19494867324829102,
        3.1999998092651367,
        1.0
      ],
      "min": [
        -4.0499982833862305,
        -4.0,
        -3.0
      ],
      "type": "VEC3"
    },
    {
      "bufferView": 2,
      "byteOffset": 884844,
      "componentType": 5126,
      "count": 1401,
      "max": [
        1.0,
        1.0,
        1.0
      ],
      "min": [
        -1.0,
        -1.0,
        -1.0
      ],
      "type": "VEC3"
    },
    {
      "bufferView": 1,
      "byteOffset": 289344,
      "componentType": 5126,
      "count": 1401,
      "max": [
        0.8575000166893005,
        0.9735908508300781
      ],
      "min": [
        0.017499983310699463,
        0.6411510705947876
      ],
      "type": "VEC2"
    },
    {
      "bufferView": 0,
      "byteOffset": 226296,
      "componentType": 5125,
      "count": 2112,
      "type": "SCALAR"
    },
    {
      "bufferView": 2,
      "byteOffset": 901656,
      "componentType": 5126,
      "count": 3306,
      "max": [
        6.995190620422363,
        7.5,
        10.353553771972656
      ],
      "min": [
        -6.995190620422363,
        -7.5,
        0.0
      ],
      "type": "VEC3"
    },
    {
      "bufferView": 2,
      "byteOffset": 941328,
      "componentType": 5126,
      "count": 3306,
      "max": [
        1.0,
        1.0,
        1.0
      ],
      "min": [
        -1.0,
        -1.0,
        -1.0
      ],
      "type": "VEC3"
    },
    {
      "bufferView": 1,
      "byteOffset": 300552,
      "componentType": 5126,
      "count": 3306,
      "max": [
        0.9798147082328796,
        0.9839017987251282
      ],
      "min": [
        0.38749998807907104,
        0.012763679027557373
      ],
      "type": "VEC2"
    },
    {
      "bufferView": 0,
      "byteOffset": 234744,
      "componentType": 5125,
      "count": 5028,
      "type": "SCALAR"
    },
    {
      "bufferView": 2,
      "byteOffset": 981000,
      "componentType": 5126,
      "count": 3322,
      "max": [
        6.995190620422363,
        7.5,
        20.353553771972656
      ],
      "min": [
        -6.995190620422363,
        -7.5,
        0.0
      ],
      "type": "VEC3"
    },
    {
      "bufferView": 2,
      "byteOffset": 1020864,
      "componentType": 5126,
      "count": 3322,
      "max": [
        1.0,
        1.0,
        1.0
      ],
      "min": [
        -1.0,
        -1.0,
        -1.0
      ],
      "type": "VEC3"
    },
    {
      "bufferView": 1,
      "byteOffset": 327000,
      "componentType": 5126,
      "count": 3322,
      "max": [
        0.9817067980766296,
        0.9839017987251282
      ],
      "min": [
        0.38749998807907104,
        0.012763679027557373
      ],
      "type": "VEC2"
    },
    {
      "bufferView": 0,
      "byteOffset": 254856,
      "componentType": 5125,
      "count": 5064,
      "type": "SCALAR"
    }
  ],
  "asset": {
    "extras": {
      "author": "MRowa (https://sketchfab.com/MRowa)",
      "license": "CC-BY-SA-4.0 (http://creativecommons.org/licenses/by-sa/4.0/)",
      "source": "https://sketchfab.com/3d-models/multifunctional-tower-modular-pack-df9675a363614cd2a153b708444d7ca7",
      "title": "Multifunctional Tower - Modular pack"
    },
    "generator": "Sketchfab-12.66.0",
    "version": "2.0"
  },
  "bufferViews": [
    {
      "buffer": 0,
      "byteLength": 275112,
      "name": "floatBufferViews",
      "target": 34963
    },
    {
      "buffer": 0,
      "byteLength": 353576,
      "byteOffset": 275112,
      "byteStride": 8,
      "name": "floatBufferViews",
      "target": 34962
    },
    {
      "buffer": 0,
      "byteLength": 1060728,
      "byteOffset": 628688,
      "byteStride": 12,
      "name": "floatBufferViews",
      "target": 34962
    }
  ],
  "buffers": [
    {
      "byteLength": 1689416,
      "uri": "scene.bin"
    }
  ],
  "images": [
    {
      "uri": "textures/Placeable_baseColor.png"
    },
    {
      "uri": "textures/Placeable_metallicRoughness.png"
    },
    {
      "uri": "textures/Placeable_emissive.png"
    }
  ],
  "materials": [
    {
      "doubleSided": true,
      "emissiveFactor": [
        1.0,
        1.0,
        1.0
      ],
      "emissiveTexture": {
        "index": 2
      },
      "name": "Placeable",
      "pbrMetallicRoughness": {
        "baseColorTexture": {
          "index": 0
        },
        "metallicRoughnessTexture": {
          "index": 1
        },
        "roughnessFactor": 0.8040408205773457
      }
    }
  ],
  "meshes": [
    {
      "name": "MultifunctionalTower_Armored_Placeable_0",
      "primitives": [
        {
          "attributes": {
            "NORMAL": 1,
            "POSITION": 0,
            "TEXCOORD_0": 2
          },
          "indices": 3,
          "material": 0,
          "mode": 4
        }
      ]
    },
    {
      "name": "Tower_ArtilleryNeck_Placeable_0",
      "primitives": [
        {
          "attributes": {
            "NORMAL": 5,
            "POSITION": 4,
            "TEXCOORD_0": 6
          },
          "indices": 7,
          "material": 0,
          "mode": 4
        }
      ]
    },
    {
      "name": "Tower_ArtilleryHead_Placeable_0",
      "primitives": [
        {
          "attributes": {
            "NORMAL": 9,
            "POSITION": 8,
            "TEXCOORD_0": 10
          },
          "indices": 11,
          "material": 0,
          "mode": 4
        }
      ]
    },
    {
      "name": "Tower_ArtilleryGun_Placeable_0",
      "primitives": [
        {
          "attributes": {
            "NORMAL": 13,
            "POSITION": 12,
            "TEXCOORD_0": 14
          },
          "indices": 15,
          "material": 0,
          "mode": 4
        }
      ]
    },
    {
      "name": "MultifunctionalSmallTower_Placeable_0",
      "primitives": [
        {
          "attributes": {
            "NORMAL": 17,
            "POSITION": 16,
            "TEXCOORD_0": 18
          },
          "indices": 19,
          "material": 0,
          "mode": 4
        }
      ]
    },
    {
      "name": "Tower_RadarNeck_Placeable_0",
      "primitives": [
        {
          "attributes": {
            "NORMAL": 21,
            "POSITION": 20,
            "TEXCOORD_0": 22
          },
          "indices": 23,
          "material": 0,
          "mode": 4
        }
      ]
    },
    {
      "name": "Tower_RadarUpperNeck_Placeable_0",
      "primitives": [
        {
          "attributes": {
            "NORMAL": 25,
            "POSITION": 24,
            "TEXCOORD_0": 26
          },
          "indices": 27,
          "material": 0,
          "mode": 4
        }
      ]
    },
    {
      "name": "Tower_RadarHead_Placeable_0",
      "primitives": [
        {
          "attributes": {
            "NORMAL": 29,
            "POSITION": 28,
            "TEXCOORD_0": 30
          },
          "indices": 31,
          "material": 0,
          "mode": 4
        }
      ]
    },
    {
      "name": "Tower_LaserNeck_Placeable_0",
      "primitives": [
        {
          "attributes": {
            "NORMAL": 33,
            "POSITION": 32,
            "TEXCOORD_0": 34
          },
          "indices": 35,
          "material": 0,
          "mode": 4
        }
      ]
    },
    {
      "name": "Tower_LaserUpperNeck_Placeable_0",
      "primitives": [
        {
          "attributes": {
            "NORMAL": 37,
            "POSITION": 36,
            "TEXCOORD_0": 38
          },
          "indices": 39,
          "material": 0,
          "mode": 4
        }
      ]
    },
    {
      "name": "Tower_LaserUpperHead_Placeable_0",
      "primitives": [
        {
          "attributes": {
            "NORMAL": 41,
            "POSITION": 40,
            "TEXCOORD_0": 42
          },
          "indices": 43,
          "material": 0,
          "mode": 4
        }
      ]
    },
    {
      "name": "Tower_LaserUpperGun_Placeable_0",
      "primitives": [
        {
          "attributes": {
            "NORMAL": 45,
            "POSITION": 44,
            "TEXCOORD_0": 46
          },
          "indices": 47,
          "material": 0,
          "mode": 4
        }
      ]
    },
    {
      "name": "Tower_AntiAirNeck_Placeable_0",
      "primitives": [
        {
          "attributes": {
            "NORMAL": 49,
            "POSITION": 48,
            "TEXCOORD_0": 50
          },
          "indices": 51,
          "material": 0,
          "mode": 4
        }
      ]
    },
    {
      "name": "Tower_AntiAirHead_Placeable_0",
      "primitives": [
        {
          "attributes": {
            "NORMAL": 53,
            "POSITION": 52,
            "TEXCOORD_0": 54
          },
          "indices": 55,
          "material": 0,
          "mode": 4
        }
      ]
    },
    {
      "name": "Tower_AntiAirGun.L_Placeable_0",
      "primitives": [
        {
          "attributes": {
            "NORMAL": 57,
            "POSITION": 56,
            "TEXCOORD_0": 58
          },
          "indices": 59,
          "material": 0,
          "mode": 4
        }
      ]
    },
    {
      "name": "Tower_AntiAirGun.R_Placeable_0",
      "primitives": [
        {
          "attributes": {
            "NORMAL": 61,
            "POSITION": 60,
            "TEXCOORD_0": 62
          },
          "indices": 63,
          "material": 0,
          "mode": 4
        }
      ]
    },
    {
      "name": "MultifunctionalSmallTower_Armored_Placeable_0",
      "primitives": [
        {
          "attributes": {
            "NORMAL": 65,
            "POSITION": 64,
            "TEXCOORD_0": 66
          },
          "indices": 67,
          "material": 0,
          "mode": 4
        }
      ]
    },
    {
      "name": "MultifunctionalTower_Placeable_0",
      "primitives": [
        {
          "attributes": {
            "NORMAL": 69,
            "POSITION": 68,
            "TEXCOORD_0": 70
          },
          "indices": 71,
          "material": 0,
          "mode": 4
        }
      ]
    }
  ],
  "nodes": [
    {
      "children": [
        1
      ],
      "matrix": [
        1.0,
        0.0,
        0.0,
        0.0,
        0.0,
        2.220446049250313e-16,
        -1.0,
        0.0,
        0.0,
        1.0,
        2.220446049250313e-16,
        0.0,
        0.0,
        0.0,
        0.0,
        1.0
      ],
      "name": "Sketchfab_model"
    },
    {
      "children": [
        2
      ],
      "matrix": [
        1.0,
        0.0,
        0.0,
        0.0,
        0.0,
        0.0,
        1.0,
        0.0,
        0.0,
        -1.0,
        0.0,
        0.0,
        0.0,
        0.0,
        0.0,
        1.0
      ],
      "name": "MultifunctionalTowerPreview.fbx"
    },
    {
      "children": [
        3
      ],
      "name": "RootNode"
    },
    {
      "children": [
        4,
        6,
        12,
        14,
        20,
        28,
        36,
        38
      ],
      "matrix": [
        100.0,
        0.0,
        0.0,
        0.0,
        0.0,
        -1.629206793918314e-05,
        -99.99999999999868,
        0.0,
        0.0,
        99.99999999999868,
        -1.629206793918314e-05,
        0.0,
        1000.0,
        0.0,
        -1000.0,
        1.0
      ],
      "name": "Towers"
    },
    {
      "children": [
        5
      ],
      "matrix": [
        1.0,
        0.0,
        0.0,
        0.0,
        0.0,
        1.0,
        -2.646977960169688e-23,
        0.0,
        0.0,
        2.646977960169688e-23,
        1.0,
        0.0,
        -20.0,
        0.0,
        0.0,
        1.0
      ],
      "name": "MultifunctionalTower_Armored"
    },
    {
      "mesh": 0,
      "name": "MultifunctionalTower_Armored_Placeable_0"
    },
    {
      "children": [
        7,
        8
      ],
      "matrix": [
        1.0,
        0.0,
        0.0,
        0.0,
        0.0,
        1.0,
        -2.646977960169688e-23,
        0.0,
        0.0,
        2.646977960169688e-23,
        1.0,
        0.0,
        0.0,
        -20.0,
        10.353553771972656,
        1.0
      ],
      "name": "Tower_ArtilleryNeck"
    },
    {
      "mesh": 1,
      "name": "Tower_ArtilleryNeck_Placeable_0"
    },
    {
      "children": [
        9,
        10
      ],
      "matrix": [
        1.0,
        0.0,
        0.0,
        0.0,
        0.0,
        0.7071067657322371,
        -0.7071067966408576,
        0.0,
        0.0,
        0.7071067966408576,
        0.7071067657322371,
        0.0,
        0.0,
        0.0,
        3.1000003814697266,
        1.0
      ],
      "name": "Tower_ArtilleryHead"
    },
    {
      "mesh": 2,
      "name": "Tower_ArtilleryHead_Placeable_0"
    },
    {
      "children": [
        11
      ],
      "matrix": [
        1.0,
        0.0,
        0.0,
        0.0,
        0.0,
        1.0,
        -5.551115123125783e-17,
        0.0,
        0.0,
        5.551115123125783e-17,
        1.0,
        0.0,
        0.0,
        -4.76837158203125e-07,
        -1.7763568394002505e-15,
        1.0
      ],
      "name": "Tower_ArtilleryGun"
    },
    {
      "mesh": 3,
      "name": "Tower_ArtilleryGun_Placeable_0"
    },
    {
      "children": [
        13
      ],
      "matrix": [
        1.0,
        0.0,
        0.0,
        0.0,
        0.0,
        1.0,
        -2.646977960169688e-23,
        0.0,
        0.0,
        2.646977960169688e-23,
        1.0,
        0.0,
        -20.0,
        -20.0,
        -2.117582368135751e-22,
        1.0
      ],
      "name": "MultifunctionalSmallTower"
    },
    {
      "mesh": 4,
      "name": "MultifunctionalSmallTower_Placeable_0"
    },
    {
      "children": [
        15,
        16
      ],
      "matrix": [
        1.0,
        0.0,
        0.0,
        0.0,
        0.0,
        1.0,
        -2.646977960169688e-23,
        0.0,
        0.0,
        2.646977960169688e-23,
        1.0,
        0.0,
        -20.0,
        0.0,
        20.353553771972656,
        1.0
      ],
      "name": "Tower_RadarNeck"
    },
    {
      "mesh": 5,
      "name": "Tower_RadarNeck_Placeable_0"
    },
    {
      "children": [
        17,
        18
      ],
      "matrix": [
        1.0,
        0.0,
        0.0,
        0.0,
        0.0,
        0.8660253964992068,
        -0.5000000126183914,
        0.0,
        0.0,
        0.5000000126183914,
        0.8660253964992068,
        0.0,
        0.0,
        0.0,
        3.1000003814697266,
        1.0
      ],
      "name": "Tower_RadarUpperNeck"
    },
    {
      "mesh": 6,
      "name": "Tower_RadarUpperNeck_Placeable_0"
    },
    {
      "children": [
        19
      ],
      "matrix": [
        1.0,
        0.0,
        0.0,
        0.0,
        0.0,
        0.8660253964992068,
        0.5000000126183914,
        0.0,
        0.0,
        -0.5000000126183914,
        0.8660253964992068,
        0.0,
        0.0,
        9.5367431640625e-07,
        10.0,
        1.0
      ],
      "name": "Tower_RadarHead"
    },
    {
      "mesh": 7,
      "name": "Tower_RadarHead_Placeable_0"
    },
    {
      "children": [
        21,
        22
      ],
      "matrix": [
        1.0,
        0.0,
        0.0,
        0.0,
        0.0,
        1.0,
        -2.646977960169688e-23,
        0.0,
        0.0,
        2.646977960169688e-23,
        1.0,
        0.0,
        0.0,
        0.0,
        20.353553771972656,
        1.0
      ],
      "name": "Tower_LaserNeck"
    },
    {
      "mesh": 8,
      "name": "Tower_LaserNeck_Placeable_0"
    },
    {
      "children": [
        23,
        24
      ],
      "matrix": [
        1.0,
        0.0,
        0.0,
        0.0,
        0.0,
        0.8660253964992068,
        -0.5000000126183914,
        0.0,
        0.0,
        0.5000000126183914,
        0.8660253964992068,
        0.0,
        0.0,
        0.0,
        3.1000003814697266,
        1.0
      ],
      "name": "Tower_LaserUpperNeck"
    },
    {
      "mesh": 9,
      "name": "Tower_LaserUpperNeck_Placeable_0"
    },
    {
      "children": [
        25,
        26
      ],
      "matrix": [
        1.0,
        0.0,
        0.0,
        0.0,
        0.0,
        -0.4999998141946984,
        0.8660254422336455,
        0.0,
        0.0,
        -0.8660254422336455,
        -0.4999998141946984,
        0.0,
        0.0,
        9.5367431640625e-07,
        10.0,
        1.0
      ],
      "name": "Tower_LaserUpperHead"
    },
    {
      "mesh": 10,
      "name": "Tower_LaserUpperHead_Placeable_0"
    },
    {
      "children": [
        27
      ],
      "matrix": [
        1.0,
        0.0,
        0.0,
        0.0,
        0.0,
        0.9999999999999999,
        -1.5893249383225395e-08,
        0.0,
        0.0,
        1.5893249383225395e-08,
        0.9999999999999999,
        0.0,
        0.0,
        -6.735327133355895e-06,
        10.000012397766113,
        1.0
      ],
      "name": "Tower_LaserUpperGun"
    },
    {
      "mesh": 11,
      "name": "Tower_LaserUpperGun_Placeable_0"
    },
    {
      "children": [
        29,
        30
      ],
      "matrix": [
        1.0,
        0.0,
        0.0,
        0.0,
        0.0,
        1.0,
        -2.646977960169688e-23,
        0.0,
        0.0,
        2.646977960169688e-23,
        1.0,
        0.0,
        -20.0,
        -20.0,
        10.353553771972656,
        1.0
      ],
      "name": "Tower_AntiAirNeck"
    },
    {
      "mesh": 12,
      "name": "Tower_AntiAirNeck_Placeable_0"
    },
    {
      "children": [
        31,
        32,
        34
      ],
      "matrix": [
        1.0,
        0.0,
        0.0,
        0.0,
        0.0,
        0.7071067657322371,
        -0.7071067966408576,
        0.0,
        0.0,
        0.7071067966408576,
        0.7071067657322371,
        0.0,
        -1.9073486328125e-06,
        0.0,
        3.1000003814697266,
        1.0
      ],
      "name": "Tower_AntiAirHead"
    },
    {
      "mesh": 13,
      "name": "Tower_AntiAirHead_Placeable_0"
    },
    {
      "children": [
        33
      ],
      "matrix": [
        0.7071067657322371,
        1.1102230246251568e-16,
        0.7071067966408576,
        0.0,
        -1.0149809564219637e-16,
        1.0,
        -5.551115123125784e-17,
        0.0,
        -0.7071067966408576,
        -3.2517682665493053e-17,
        0.7071067657322371,
        0.0,
        2.5000009536743164,
        -4.76837158203125e-07,
        0.9999995231628418,
        1.0
      ],
      "name": "Tower_AntiAirGun.L"
    },
    {
      "mesh": 14,
      "name": "Tower_AntiAirGun.L_Placeable_0"
    },
    {
      "children": [
        35
      ],
      "matrix": [
        0.7071067657322371,
        -1.1102230246251568e-16,
        -0.7071067966408576,
        0.0,
        1.0149809564219637e-16,
        1.0,
        -5.551115123125784e-17,
        0.0,
        0.7071067966408576,
        -3.2517682665493053e-17,
        0.7071067657322371,
        0.0,
        -2.499998092651367,
        -4.76837158203125e-07,
        0.9999995231628418,
        1.0
      ],
      "name": "Tower_AntiAirGun.R"
    },
    {
      "mesh": 15,
      "name": "Tower_AntiAirGun.R_Placeable_0"
    },
    {
      "children": [
        37
      ],
      "matrix": [
        1.0,
        0.0,
        0.0,
        0.0,
        0.0,
        1.0,
        -2.646977960169688e-23,
        0.0,
        0.0,
        2.646977960169688e-23,
        1.0,
        0.0,
        0.0,
        -20.0,
        -2.117582368135751e-22,
        1.0
      ],
      "name": "MultifunctionalSmallTower_Armored"
    },
    {
      "mesh": 16,
      "name": "MultifunctionalSmallTower_Armored_Placeable_0"
    },
    {
      "children": [
        39
      ],
      "matrix": [
        1.0,
        0.0,
        0.0,
        0.0,
        0.0,
        1.0,
        -2.646977960169688e-23,
        0.0,
        0.0,
        2.646977960169688e-23,
        1.0,
        0.0,
        0.0,
        0.0,
        0.0,
        1.0
      ],
      "name": "MultifunctionalTower"
    },
    {
      "mesh": 17,
      "name": "MultifunctionalTower_Placeable_0"
    }
  ],
  "samplers": [
    {
      "magFilter": 9728,
      "minFilter": 9728,
      "wrapS": 10497,
      "wrapT": 10497
    }
  ],
  "scene": 0,
  "scenes": [
    {
      "name": "Sketchfab_Scene",
      "nodes": [
        0
      ]
    }
  ],
  "textures": [
    {
      "sampler": 0,
      "source": 0
    },
    {
      "sampler": 0,
      "source": 1
    },
    {
      "sampler": 0,
      "source": 2
    }
  ]
}
