{
  "accessors": [
    {
      "bufferView": 3,
      "componentType": 5126,
      "count": 1472,
      "max": [
        54.81110763549805,
        101.12933349609375,
        17.30015754699707
      ],
      "min": [
        -54.81110763549805,
        -0.08556240051984787,
        -14.721722602844238
      ],
      "type": "VEC3"
    },
    {
      "bufferView": 3,
      "byteOffset": 17664,
      "componentType": 5126,
      "count": 1472,
      "max": [
        1.0,
        1.0,
        1.0
      ],
      "min": [
        -1.0,
        -1.0,
        -1.0
      ],
      "type": "VEC3"
    },
    {
      "bufferView": 4,
      "componentType": 5126,
      "count": 1472,
      "max": [
        1.0,
        1.0,
        1.0,
        1.0
      ],
      "min": [
        -1.0,
        -1.0,
        -1.0,
        1.0
      ],
      "type": "VEC4"
    },
    {
      "bufferView": 2,
      "componentType": 5126,
      "count": 1472,
      "max": [
        0.9683298468589783,
        0.9900811910629272
      ],
      "min": [
        0.027675848454236984,
        0.01811559498310089
      ],
      "type": "VEC2"
    },
    {
      "bufferView": 1,
      "componentType": 5125,
      "count": 3144,
      "type": "SCALAR"
    },
    {
      "bufferView": 5,
      "componentType": 5126,
      "count": 26,
      "max": [
        1.0,
        0.34493643045425415,
        1.0,
        0.0,
        0.9999996423721313,
        1.0,
        0.7702994346618652,
        0.0,
        0.38676130771636963,
        0.9999997019767761,
        1.0,
        0.0,
        29.463844299316406,
        6.224966049194336,
        57.644020080566406,
        1.0
      ],
      "min": [
        -0.7712211608886719,
        -0.3449389636516571,
        -0.9992547035217285,
        0.0,
        -0.9995235800743103,
        -0.19124585390090942,
        -0.7702994346618652,
        0.0,
        -0.1429833471775055,
        -0.9967254996299744,
        -0.0772886797785759,
        0.0,
        -68.10198211669922,
        -9.124876022338867,
        -57.64401626586914,
        1.0
      ],
      "type": "MAT4"
    },
    {
      "bufferView": 0,
      "componentType": 5123,
      "count": 1472,
      "type": "VEC4"
    },
    {
      "bufferView": 4,
      "byteOffset": 23552,
      "componentType": 5126,
      "count": 1472,
      "max": [
        1.0,
        0.0,
        0.0,
        0.0
      ],
      "min": [
        1.0,
        0.0,
        0.0,
        0.0
      ],
      "type": "VEC4"
    },
    {
      "bufferView": 6,
      "componentType": 5126,
      "count": 223,
      "max": [
        7.666666507720947
      ],
      "min": [
        0.0
      ],
      "type": "SCALAR"
    },
    {
      "bufferView": 7,
      "componentType": 5126,
      "count": 223,
      "max": [
        25.302875518798828,
        12.917769432067871,
        -1.3796406984329224
      ],
      "min": [
        -16.222614288330078,
        -4.128551483154297,
        -36.73433303833008
      ],
      "type": "VEC3"
    },
    {
      "bufferView": 6,
      "byteOffset": 892,
      "componentType": 5126,
      "count": 192,
      "max": [
        7.666666507720947
      ],
      "min": [
        0.0
      ],
      "type": "SCALAR"
    },
    {
      "bufferView": 7,
      "byteOffset": 2676,
      "componentType": 5126,
      "count": 192,
      "max": [
        1.000000238418579,
        1.000000238418579,
        1.0000001192092896
      ],
      "min": [
        0.9999997615814209,
        0.9999997615814209,
        0.9999998807907104
      ],
      "type": "VEC3"
    },
    {
      "bufferView": 6,
      "byteOffset": 1660,
      "componentType": 5126,
      "count": 222,
      "max": [
        7.666666507720947
      ],
      "min": [
        0.0
      ],
      "type": "SCALAR"
    },
    {
      "bufferView": 8,
      "componentType": 5126,
      "count": 222,
      "max": [
        0.17985939979553223,
        0.24806192517280579,
        0.9961947202682495,
        0.9950201511383057
      ],
      "min": [
        -0.36506813764572144,
        -0.5412911772727966,
        -0.841535210609436,
        -0.43728527426719666
      ],
      "type": "VEC4"
    },
    {
      "bufferView": 6,
      "byteOffset": 2548,
      "componentType": 5126,
      "count": 229,
      "max": [
        7.666666507720947
      ],
      "min": [
        0.0
      ],
      "type": "SCALAR"
    },
    {
      "bufferView": 7,
      "byteOffset": 4980,
      "componentType": 5126,
      "count": 229,
      "max": [
        8.797382354736328,
        13.361644744873047,
        3.814698629867053e-06
      ],
      "min": [
        8.797370910644531,
        13.361637115478516,
        -3.814697265625e-06
      ],
      "type": "VEC3"
    },
    {
      "bufferView": 6,
      "byteOffset": 3464,
      "componentType": 5126,
      "count": 223,
      "max": [
        7.666666507720947
      ],
      "min": [
        0.0
      ],
      "type": "SCALAR"
    },
    {
      "bufferView": 7,
      "byteOffset": 7728,
      "componentType": 5126,
      "count": 223,
      "max": [
        1.0000001192092896,
        1.0000001192092896,
        1.0000001192092896
      ],
      "min": [
        0.9999998211860657,
        0.9999998807907104,
        0.9999998807907104
      ],
      "type": "VEC3"
    },
    {
      "bufferView": 6,
      "byteOffset": 4356,
      "componentType": 5126,
      "count": 231,
      "max": [
        7.666666507720947
      ],
      "min": [
        0.0
      ],
      "type": "SCALAR"
    },
    {
      "bufferView": 8,
      "byteOffset": 3552,
      "componentType": 5126,
      "count": 231,
      "max": [
        3.6878489595437713e-08,
        4.7415227300007246e-08,
        0.7071067690849304,
        0.7071068286895752
      ],
      "min": [
        -9.219622398859428e-09,
        -5.268354641430051e-09,
        0.7071067094802856,
        0.7071067690849304
      ],
      "type": "VEC4"
    },
    {
      "bufferView": 6,
      "byteOffset": 5280,
      "componentType": 5126,
      "count": 231,
      "max": [
        7.666666507720947
      ],
      "min": [
        0.0
      ],
      "type": "SCALAR"
    },
    {
      "bufferView": 7,
      "byteOffset": 10404,
      "componentType": 5126,
      "count": 231,
      "max": [
        0.6392173767089844,
        3.814697265625e-06,
        2.8610220397240482e-06
      ],
      "min": [
        0.6392021179199219,
        -7.62939453125e-06,
        -3.8146963561302982e-06
      ],
      "type": "VEC3"
    },
    {
      "bufferView": 6,
      "byteOffset": 6204,
      "componentType": 5126,
      "count": 230,
      "max": [
        7.666666507720947
      ],
      "min": [
        0.0
      ],
      "type": "SCALAR"
    },
    {
      "bufferView": 7,
      "byteOffset": 13176,
      "componentType": 5126,
      "count": 230,
      "max": [
        1.0000003576278687,
        1.0000003576278687,
        1.000000238418579
      ],
      "min": [
        0.9999992251396179,
        0.9999996423721313,
        0.9999995827674866
      ],
      "type": "VEC3"
    },
    {
      "bufferView": 6,
      "byteOffset": 7124,
      "componentType": 5126,
      "count": 231,
      "max": [
        7.666666507720947
      ],
      "min": [
        0.0
      ],
      "type": "SCALAR"
    },
    {
      "bufferView": 8,
      "byteOffset": 7248,
      "componentType": 5126,
      "count": 231,
      "max": [
        0.21949060261249542,
        0.27017974853515625,
        0.9981327652931213,
        0.9998757839202881
      ],
      "min": [
        -0.27093321084976196,
        -0.2510756552219391,
        -0.4035476744174957,
        -0.25674760341644287
      ],
      "type": "VEC4"
    },
    {
      "bufferView": 6,
      "byteOffset": 8048,
      "componentType": 5126,
      "count": 231,
      "max": [
        7.666666507720947
      ],
      "min": [
        0.0
      ],
      "type": "SCALAR"
    },
    {
      "bufferView": 7,
      "byteOffset": 15936,
      "componentType": 5126,
      "count": 231,
      "max": [
        20.54503059387207,
        3.814708179561421e-06,
        2.8610215849766973e-06
      ],
      "min": [
        20.545015335083008,
        -2.86102294921875e-06,
        -2.86102294921875e-06
      ],
      "type": "VEC3"
    },
    {
      "bufferView": 6,
      "byteOffset": 8972,
      "componentType": 5126,
      "count": 229,
      "max": [
        7.666666507720947
      ],
      "min": [
        0.0
      ],
      "type": "SCALAR"
    },
    {
      "bufferView": 7,
      "byteOffset": 18708,
      "componentType": 5126,
      "count": 229,
      "max": [
        1.000000238418579,
        1.0000003576278687,
        1.0000001192092896
      ],
      "min": [
        0.9999997615814209,
        0.9999997615814209,
        0.9999998807907104
      ],
      "type": "VEC3"
    },
    {
      "bufferView": 6,
      "byteOffset": 9888,
      "componentType": 5126,
      "count": 231,
      "max": [
        7.666666507720947
      ],
      "min": [
        0.0
      ],
      "type": "SCALAR"
    },
    {
      "bufferView": 8,
      "byteOffset": 10944,
      "componentType": 5126,
      "count": 231,
      "max": [
        7.967733870611294e-17,
        1.3877789131303437e-16,
        1.0,
        0.9999940991401672
      ],
      "min": [
        -9.614352023439363e-17,
        -1.1796120960131268e-16,
        -0.8156828880310059,
        -0.4699888527393341
      ],
      "type": "VEC4"
    },
    {
      "bufferView": 6,
      "byteOffset": 10812,
      "componentType": 5126,
      "count": 221,
      "max": [
        7.666666507720947
      ],
      "min": [
        0.0
      ],
      "type": "SCALAR"
    },
    {
      "bufferView": 7,
      "byteOffset": 21456,
      "componentType": 5126,
      "count": 221,
      "max": [
        2.1532886028289795,
        6.706595420837402,
        10.826865196228027
      ],
      "min": [
        -9.177580833435059,
        -5.686977386474609,
        5.102054595947266
      ],
      "type": "VEC3"
    },
    {
      "bufferView": 6,
      "byteOffset": 11696,
      "componentType": 5126,
      "count": 227,
      "max": [
        7.666666507720947
      ],
      "min": [
        0.0
      ],
      "type": "SCALAR"
    },
    {
      "bufferView": 7,
      "byteOffset": 24108,
      "componentType": 5126,
      "count": 227,
      "max": [
        1.000000238418579,
        1.0000003576278687,
        1.000000238418579
      ],
      "min": [
        0.9999998211860657,
        0.9999998211860657,
        0.9999997615814209
      ],
      "type": "VEC3"
    },
    {
      "bufferView": 6,
      "byteOffset": 12604,
      "componentType": 5126,
      "count": 228,
      "max": [
        7.666666507720947
      ],
      "min": [
        0.0
      ],
      "type": "SCALAR"
    },
    {
      "bufferView": 8,
      "byteOffset": 14640,
      "componentType": 5126,
      "count": 228,
      "max": [
        0.7460692524909973,
        0.9987413287162781,
        0.49798062443733215,
        0.21074283123016357
      ],
      "min": [
        -0.6623052954673767,
        0.6375633478164673,
        -0.2521463632583618,
        -0.4980185925960541
      ],
      "type": "VEC4"
    },
    {
      "bufferView": 6,
      "byteOffset": 13516,
      "componentType": 5126,
      "count": 231,
      "max": [
        7.666666507720947
      ],
      "min": [
        0.0
      ],
      "type": "SCALAR"
    },
    {
      "bufferView": 7,
      "byteOffset": 26832,
      "componentType": 5126,
      "count": 231,
      "max": [
        8.797386169433594,
        13.36164665222168,
        2.8610284061869606e-06
      ],
      "min": [
        8.797370910644531,
        13.361639022827148,
        -1.9073595467489213e-06
      ],
      "type": "VEC3"
    },
    {
      "bufferView": 6,
      "byteOffset": 14440,
      "componentType": 5126,
      "count": 218,
      "max": [
        7.666666507720947
      ],
      "min": [
        0.0
      ],
      "type": "SCALAR"
    },
    {
      "bufferView": 7,
      "byteOffset": 29604,
      "componentType": 5126,
      "count": 218,
      "max": [
        1.0000001192092896,
        1.0000001192092896,
        1.0000001192092896
      ],
      "min": [
        0.9999997615814209,
        0.9999998807907104,
        0.9999998807907104
      ],
      "type": "VEC3"
    },
    {
      "bufferView": 6,
      "byteOffset": 15312,
      "componentType": 5126,
      "count": 231,
      "max": [
        7.666666507720947
      ],
      "min": [
        0.0
      ],
      "type": "SCALAR"
    },
    {
      "bufferView": 8,
      "byteOffset": 18288,
      "componentType": 5126,
      "count": 231,
      "max": [
        1.0536722605536397e-08,
        1.3170887491753547e-08,
        0.7071067690849304,
        0.7071067690849304
      ],
      "min": [
        -3.161011008501191e-08,
        -5.4000626192873824e-08,
        0.7071067690849304,
        0.7071067690849304
      ],
      "type": "VEC4"
    },
    {
      "bufferView": 6,
      "byteOffset": 16236,
      "componentType": 5126,
      "count": 231,
      "max": [
        7.666666507720947
      ],
      "min": [
        0.0
      ],
      "type": "SCALAR"
    },
    {
      "bufferView": 7,
      "byteOffset": 32220,
      "componentType": 5126,
      "count": 231,
      "max": [
        0.6392154693603516,
        3.814702722593211e-06,
        3.814697265625e-06
      ],
      "min": [
        0.6392040252685547,
        -3.814697265625e-06,
        -2.86102294921875e-06
      ],
      "type": "VEC3"
    },
    {
      "bufferView": 6,
      "byteOffset": 17160,
      "componentType": 5126,
      "count": 231,
      "max": [
        7.666666507720947
      ],
      "min": [
        0.0
      ],
      "type": "SCALAR"
    },
    {
      "bufferView": 7,
      "byteOffset": 34992,
      "componentType": 5126,
      "count": 231,
      "max": [
        1.000000238418579,
        1.0000003576278687,
        1.0000004768371582
      ],
      "min": [
        0.999999463558197,
        0.9999996423721313,
        0.9999997019767761
      ],
      "type": "VEC3"
    },
    {
      "bufferView": 6,
      "byteOffset": 18084,
      "componentType": 5126,
      "count": 231,
      "max": [
        7.666666507720947
      ],
      "min": [
        0.0
      ],
      "type": "SCALAR"
    },
    {
      "bufferView": 8,
      "byteOffset": 21984,
      "componentType": 5126,
      "count": 231,
      "max": [
        0.17429478466510773,
        0.1809128373861313,
        0.998747706413269,
        0.9997421503067017
      ],
      "min": [
        -0.325783908367157,
        -0.2701798379421234,
        -0.40354791283607483,
        -0.279933899641037
      ],
      "type": "VEC4"
    },
    {
      "bufferView": 6,
      "byteOffset": 19008,
      "componentType": 5126,
      "count": 231,
      "max": [
        7.666666507720947
      ],
      "min": [
        0.0
      ],
      "type": "SCALAR"
    },
    {
      "bufferView": 7,
      "byteOffset": 37764,
      "componentType": 5126,
      "count": 231,
      "max": [
        20.545026779174805,
        2.86102294921875e-06,
        1.9073513612966053e-06
      ],
      "min": [
        20.545015335083008,
        -4.768372946273303e-06,
        -2.86102294921875e-06
      ],
      "type": "VEC3"
    },
    {
      "bufferView": 6,
      "byteOffset": 19932,
      "componentType": 5126,
      "count": 222,
      "max": [
        7.666666507720947
      ],
      "min": [
        0.0
      ],
      "type": "SCALAR"
    },
    {
      "bufferView": 7,
      "byteOffset": 40536,
      "componentType": 5126,
      "count": 222,
      "max": [
        1.000000238418579,
        1.000000238418579,
        1.0000001192092896
      ],
      "min": [
        0.9999997615814209,
        0.9999997615814209,
        0.9999998807907104
      ],
      "type": "VEC3"
    },
    {
      "bufferView": 6,
      "byteOffset": 20820,
      "componentType": 5126,
      "count": 231,
      "max": [
        7.666666507720947
      ],
      "min": [
        0.0
      ],
      "type": "SCALAR"
    },
    {
      "bufferView": 8,
      "byteOffset": 25680,
      "componentType": 5126,
      "count": 231,
      "max": [
        1.1121277899652946e-16,
        1.6653247431192822e-16,
        1.0,
        0.9999940991401672
      ],
      "min": [
        -9.7144527889591e-17,
        -1.1111722309216734e-16,
        -0.8531153798103333,
        -0.4692884385585785
      ],
      "type": "VEC4"
    },
    {
      "bufferView": 6,
      "byteOffset": 21744,
      "componentType": 5126,
      "count": 230,
      "max": [
        7.666666507720947
      ],
      "min": [
        0.0
      ],
      "type": "SCALAR"
    },
    {
      "bufferView": 7,
      "byteOffset": 43200,
      "componentType": 5126,
      "count": 230,
      "max": [
        1.2191228866577148,
        8.28575325012207,
        -5.957446098327637
      ],
      "min": [
        -8.555963516235352,
        -5.8229265213012695,
        -11.17855167388916
      ],
      "type": "VEC3"
    },
    {
      "bufferView": 6,
      "byteOffset": 22664,
      "componentType": 5126,
      "count": 218,
      "max": [
        7.666666507720947
      ],
      "min": [
        0.0
      ],
      "type": "SCALAR"
    },
    {
      "bufferView": 7,
      "byteOffset": 45960,
      "componentType": 5126,
      "count": 218,
      "max": [
        1.000000238418579,
        1.0000003576278687,
        1.000000238418579
      ],
      "min": [
        0.9999997615814209,
        0.9999998211860657,
        0.9999998807907104
      ],
      "type": "VEC3"
    },
    {
      "bufferView": 6,
      "byteOffset": 23536,
      "componentType": 5126,
      "count": 231,
      "max": [
        7.666666507720947
      ],
      "min": [
        0.0
      ],
      "type": "SCALAR"
    },
    {
      "bufferView": 8,
      "byteOffset": 29376,
      "componentType": 5126,
      "count": 231,
      "max": [
        0.7374712824821472,
        0.9989981651306152,
        0.22013568878173828,
        0.44887298345565796
      ],
      "min": [
        -0.6640667915344238,
        0.6486533284187317,
        -0.5035114288330078,
        -0.22261880338191986
      ],
      "type": "VEC4"
    },
    {
      "bufferView": 6,
      "byteOffset": 24460,
      "componentType": 5126,
      "count": 230,
      "max": [
        7.666666507720947
      ],
      "min": [
        0.0
      ],
      "type": "SCALAR"
    },
    {
      "bufferView": 7,
      "byteOffset": 48576,
      "componentType": 5126,
      "count": 230,
      "max": [
        1.1253166198730469,
        0.22453594207763672,
        1.430511474609375e-06
      ],
      "min": [
        1.12530517578125,
        0.22452926635742188,
        -1.430511474609375e-06
      ],
      "type": "VEC3"
    },
    {
      "bufferView": 6,
      "byteOffset": 25380,
      "componentType": 5126,
      "count": 230,
      "max": [
        7.666666507720947
      ],
      "min": [
        0.0
      ],
      "type": "SCALAR"
    },
    {
      "bufferView": 7,
      "byteOffset": 51336,
      "componentType": 5126,
      "count": 230,
      "max": [
        1.000000238418579,
        1.000000238418579,
        1.000000238418579
      ],
      "min": [
        0.9999997615814209,
        0.9999997019767761,
        0.9999997615814209
      ],
      "type": "VEC3"
    },
    {
      "bufferView": 6,
      "byteOffset": 26300,
      "componentType": 5126,
      "count": 231,
      "max": [
        7.666666507720947
      ],
      "min": [
        0.0
      ],
      "type": "SCALAR"
    },
    {
      "bufferView": 8,
      "byteOffset": 33072,
      "componentType": 5126,
      "count": 231,
      "max": [
        0.16612957417964935,
        0.17358213663101196,
        0.2813253402709961,
        0.9998911619186401
      ],
      "min": [
        -0.7008239030838013,
        -0.2665001153945923,
        -0.7288862466812134,
        0.609379231929779
      ],
      "type": "VEC4"
    },
    {
      "bufferView": 6,
      "byteOffset": 27224,
      "componentType": 5126,
      "count": 230,
      "max": [
        7.666666507720947
      ],
      "min": [
        0.0
      ],
      "type": "SCALAR"
    },
    {
      "bufferView": 7,
      "byteOffset": 54096,
      "componentType": 5126,
      "count": 230,
      "max": [
        13.819480895996094,
        5.7220458984375e-06,
        3.814699994109105e-06
      ],
      "min": [
        13.819469451904297,
        -4.768379767483566e-06,
        -5.7220458984375e-06
      ],
      "type": "VEC3"
    },
    {
      "bufferView": 6,
      "byteOffset": 28144,
      "componentType": 5126,
      "count": 229,
      "max": [
        7.666666507720947
      ],
      "min": [
        0.0
      ],
      "type": "SCALAR"
    },
    {
      "bufferView": 7,
      "byteOffset": 56856,
      "componentType": 5126,
      "count": 229,
      "max": [
        1.000000238418579,
        1.000000238418579,
        1.000000238418579
      ],
      "min": [
        0.9999998211860657,
        0.9999998211860657,
        0.9999998211860657
      ],
      "type": "VEC3"
    },
    {
      "bufferView": 6,
      "byteOffset": 29060,
      "componentType": 5126,
      "count": 231,
      "max": [
        7.666666507720947
      ],
      "min": [
        0.0
      ],
      "type": "SCALAR"
    },
    {
      "bufferView": 8,
      "byteOffset": 36768,
      "componentType": 5126,
      "count": 231,
      "max": [
        0.9222406148910522,
        0.156214639544487,
        0.14258849620819092,
        0.731491208076477
      ],
      "min": [
        -0.8439834713935852,
        -0.17528191208839417,
        -0.06924570351839066,
        -0.49877655506134033
      ],
      "type": "VEC4"
    },
    {
      "bufferView": 6,
      "byteOffset": 29984,
      "componentType": 5126,
      "count": 231,
      "max": [
        7.666666507720947
      ],
      "min": [
        0.0
      ],
      "type": "SCALAR"
    },
    {
      "bufferView": 7,
      "byteOffset": 59604,
      "componentType": 5126,
      "count": 231,
      "max": [
        14.811254501342773,
        3.814697265625e-06,
        3.814697265625e-06
      ],
      "min": [
        14.81124496459961,
        -1.9073493149335263e-06,
        -3.814706815319369e-06
      ],
      "type": "VEC3"
    },
    {
      "bufferView": 6,
      "byteOffset": 30908,
      "componentType": 5126,
      "count": 230,
      "max": [
        7.666666507720947
      ],
      "min": [
        0.0
      ],
      "type": "SCALAR"
    },
    {
      "bufferView": 7,
      "byteOffset": 62376,
      "componentType": 5126,
      "count": 230,
      "max": [
        1.0000003576278687,
        1.000000238418579,
        1.0000001192092896
      ],
      "min": [
        0.9999998211860657,
        0.9999998211860657,
        0.9999998807907104
      ],
      "type": "VEC3"
    },
    {
      "bufferView": 6,
      "byteOffset": 31828,
      "componentType": 5126,
      "count": 231,
      "max": [
        7.666666507720947
      ],
      "min": [
        0.0
      ],
      "type": "SCALAR"
    },
    {
      "bufferView": 8,
      "byteOffset": 40464,
      "componentType": 5126,
      "count": 231,
      "max": [
        1.4129008515547222e-16,
        8.774000048556531e-17,
        0.032325975596904755,
        0.999999463558197
      ],
      "min": [
        -1.1343035095711063e-16,
        -1.5397784461195358e-16,
        -0.7614204287528992,
        0.64825838804245
      ],
      "type": "VEC4"
    },
    {
      "bufferView": 6,
      "byteOffset": 32752,
      "componentType": 5126,
      "count": 231,
      "max": [
        7.666666507720947
      ],
      "min": [
        0.0
      ],
      "type": "SCALAR"
    },
    {
      "bufferView": 7,
      "byteOffset": 65136,
      "componentType": 5126,
      "count": 231,
      "max": [
        9.96161937713623,
        4.76837158203125e-06,
        3.814699994109105e-06
      ],
      "min": [
        9.9616117477417,
        -2.50339439844538e-06,
        -3.814701358351158e-06
      ],
      "type": "VEC3"
    },
    {
      "bufferView": 6,
      "byteOffset": 33676,
      "componentType": 5126,
      "count": 228,
      "max": [
        7.666666507720947
      ],
      "min": [
        0.0
      ],
      "type": "SCALAR"
    },
    {
      "bufferView": 7,
      "byteOffset": 67908,
      "componentType": 5126,
      "count": 228,
      "max": [
        1.000000238418579,
        1.0000003576278687,
        1.000000238418579
      ],
      "min": [
        0.9999997615814209,
        0.9999997615814209,
        0.9999997615814209
      ],
      "type": "VEC3"
    },
    {
      "bufferView": 6,
      "byteOffset": 34588,
      "componentType": 5126,
      "count": 231,
      "max": [
        7.666666507720947
      ],
      "min": [
        0.0
      ],
      "type": "SCALAR"
    },
    {
      "bufferView": 8,
      "byteOffset": 44160,
      "componentType": 5126,
      "count": 231,
      "max": [
        0.36507701873779297,
        0.5023571848869324,
        0.5959958434104919,
        0.995424747467041
      ],
      "min": [
        -0.7887734770774841,
        -0.17652009427547455,
        -0.6010004878044128,
        0.5887903571128845
      ],
      "type": "VEC4"
    },
    {
      "bufferView": 6,
      "byteOffset": 35512,
      "componentType": 5126,
      "count": 230,
      "max": [
        7.666666507720947
      ],
      "min": [
        0.0
      ],
      "type": "SCALAR"
    },
    {
      "bufferView": 7,
      "byteOffset": 70644,
      "componentType": 5126,
      "count": 230,
      "max": [
        -6.380090713500977,
        -2.305990219116211,
        8.653642654418945
      ],
      "min": [
        -6.380100250244141,
        -2.305997848510742,
        8.65363883972168
      ],
      "type": "VEC3"
    },
    {
      "bufferView": 6,
      "byteOffset": 36432,
      "componentType": 5126,
      "count": 227,
      "max": [
        7.666666507720947
      ],
      "min": [
        0.0
      ],
      "type": "SCALAR"
    },
    {
      "bufferView": 7,
      "byteOffset": 73404,
      "componentType": 5126,
      "count": 227,
      "max": [
        1.000000238418579,
        1.000000238418579,
        1.000000238418579
      ],
      "min": [
        0.9999997615814209,
        0.9999997615814209,
        0.9999997615814209
      ],
      "type": "VEC3"
    },
    {
      "bufferView": 6,
      "byteOffset": 37340,
      "componentType": 5126,
      "count": 231,
      "max": [
        7.666666507720947
      ],
      "min": [
        0.0
      ],
      "type": "SCALAR"
    },
    {
      "bufferView": 8,
      "byteOffset": 47856,
      "componentType": 5126,
      "count": 231,
      "max": [
        0.8464701175689697,
        0.09582444280385971,
        0.8137770891189575,
        0.3619365990161896
      ],
      "min": [
        0.528139054775238,
        -0.3864622414112091,
        0.5031881332397461,
        -0.10802686214447021
      ],
      "type": "VEC4"
    },
    {
      "bufferView": 6,
      "byteOffset": 38264,
      "componentType": 5126,
      "count": 231,
      "max": [
        7.666666507720947
      ],
      "min": [
        0.0
      ],
      "type": "SCALAR"
    },
    {
      "bufferView": 7,
      "byteOffset": 76128,
      "componentType": 5126,
      "count": 231,
      "max": [
        13.819480895996094,
        5.7220458984375e-06,
        5.722058176615974e-06
      ],
      "min": [
        13.819469451904297,
        -3.814697265625e-06,
        -3.814702722593211e-06
      ],
      "type": "VEC3"
    },
    {
      "bufferView": 6,
      "byteOffset": 39188,
      "componentType": 5126,
      "count": 230,
      "max": [
        7.666666507720947
      ],
      "min": [
        0.0
      ],
      "type": "SCALAR"
    },
    {
      "bufferView": 7,
      "byteOffset": 78900,
      "componentType": 5126,
      "count": 230,
      "max": [
        1.000000238418579,
        1.000000238418579,
        1.000000238418579
      ],
      "min": [
        0.9999998211860657,
        0.9999998211860657,
        0.9999998211860657
      ],
      "type": "VEC3"
    },
    {
      "bufferView": 6,
      "byteOffset": 40108,
      "componentType": 5126,
      "count": 231,
      "max": [
        7.666666507720947
      ],
      "min": [
        0.0
      ],
      "type": "SCALAR"
    },
    {
      "bufferView": 8,
      "byteOffset": 51552,
      "componentType": 5126,
      "count": 231,
      "max": [
        0.958450973033905,
        0.05084929242730141,
        0.3233200013637543,
        0.7288551330566406
      ],
      "min": [
        0.6618569493293762,
        -0.17528192698955536,
        0.02479896880686283,
        0.2222813367843628
      ],
      "type": "VEC4"
    },
    {
      "bufferView": 6,
      "byteOffset": 41032,
      "componentType": 5126,
      "count": 231,
      "max": [
        7.666666507720947
      ],
      "min": [
        0.0
      ],
      "type": "SCALAR"
    },
    {
      "bufferView": 7,
      "byteOffset": 81660,
      "componentType": 5126,
      "count": 231,
      "max": [
        14.811254501342773,
        3.814697265625e-06,
        3.814701358351158e-06
      ],
      "min": [
        14.811244010925293,
        -1.9073534076596843e-06,
        -3.814698629867053e-06
      ],
      "type": "VEC3"
    },
    {
      "bufferView": 6,
      "byteOffset": 41956,
      "componentType": 5126,
      "count": 230,
      "max": [
        7.666666507720947
      ],
      "min": [
        0.0
      ],
      "type": "SCALAR"
    },
    {
      "bufferView": 7,
      "byteOffset": 84432,
      "componentType": 5126,
      "count": 230,
      "max": [
        1.000000238418579,
        1.000000238418579,
        1.0000001192092896
      ],
      "min": [
        0.9999997019767761,
        0.9999998211860657,
        0.9999998211860657
      ],
      "type": "VEC3"
    },
    {
      "bufferView": 6,
      "byteOffset": 42876,
      "componentType": 5126,
      "count": 231,
      "max": [
        7.666666507720947
      ],
      "min": [
        0.0
      ],
      "type": "SCALAR"
    },
    {
      "bufferView": 8,
      "byteOffset": 55248,
      "componentType": 5126,
      "count": 231,
      "max": [
        9.116348266524057e-17,
        1.0694437483452313e-16,
        0.029205188155174255,
        0.999999463558197
      ],
      "min": [
        -1.2093559226537576e-16,
        -1.372403015206412e-16,
        -0.6380565762519836,
        0.7699894905090332
      ],
      "type": "VEC4"
    },
    {
      "bufferView": 6,
      "byteOffset": 43800,
      "componentType": 5126,
      "count": 230,
      "max": [
        7.666666507720947
      ],
      "min": [
        0.0
      ],
      "type": "SCALAR"
    },
    {
      "bufferView": 7,
      "byteOffset": 87192,
      "componentType": 5126,
      "count": 230,
      "max": [
        9.961620330810547,
        2.861022494471399e-06,
        3.814697265625e-06
      ],
      "min": [
        9.961609840393066,
        -1.9073499970545527e-06,
        -5.7220458984375e-06
      ],
      "type": "VEC3"
    },
    {
      "bufferView": 6,
      "byteOffset": 44720,
      "componentType": 5126,
      "count": 230,
      "max": [
        7.666666507720947
      ],
      "min": [
        0.0
      ],
      "type": "SCALAR"
    },
    {
      "bufferView": 7,
      "byteOffset": 89952,
      "componentType": 5126,
      "count": 230,
      "max": [
        1.000000238418579,
        1.0000003576278687,
        1.000000238418579
      ],
      "min": [
        0.9999997615814209,
        0.9999998211860657,
        0.9999997615814209
      ],
      "type": "VEC3"
    },
    {
      "bufferView": 6,
      "byteOffset": 45640,
      "componentType": 5126,
      "count": 231,
      "max": [
        7.666666507720947
      ],
      "min": [
        0.0
      ],
      "type": "SCALAR"
    },
    {
      "bufferView": 8,
      "byteOffset": 58944,
      "componentType": 5126,
      "count": 231,
      "max": [
        0.6592263579368591,
        0.1265728771686554,
        0.5354743599891663,
        0.9920846223831177
      ],
      "min": [
        -0.3611786961555481,
        -0.5195646286010742,
        -0.6919950842857361,
        0.6237680315971375
      ],
      "type": "VEC4"
    },
    {
      "bufferView": 6,
      "byteOffset": 46564,
      "componentType": 5126,
      "count": 229,
      "max": [
        7.666666507720947
      ],
      "min": [
        0.0
      ],
      "type": "SCALAR"
    },
    {
      "bufferView": 7,
      "byteOffset": 92712,
      "componentType": 5126,
      "count": 229,
      "max": [
        -6.380090713500977,
        -2.305943489074707,
        -8.653653144836426
      ],
      "min": [
        -6.380100250244141,
        -2.3059511184692383,
        -8.653658866882324
      ],
      "type": "VEC3"
    },
    {
      "bufferView": 6,
      "byteOffset": 47480,
      "componentType": 5126,
      "count": 230,
      "max": [
        7.666666507720947
      ],
      "min": [
        0.0
      ],
      "type": "SCALAR"
    },
    {
      "bufferView": 7,
      "byteOffset": 95460,
      "componentType": 5126,
      "count": 230,
      "max": [
        1.000000238418579,
        1.000000238418579,
        1.000000238418579
      ],
      "min": [
        0.9999998211860657,
        0.9999998211860657,
        0.9999998211860657
      ],
      "type": "VEC3"
    },
    {
      "bufferView": 6,
      "byteOffset": 48400,
      "componentType": 5126,
      "count": 231,
      "max": [
        7.666666507720947
      ],
      "min": [
        0.0
      ],
      "type": "SCALAR"
    },
    {
      "bufferView": 8,
      "byteOffset": 62640,
      "componentType": 5126,
      "count": 231,
      "max": [
        0.7039973735809326,
        0.38646015524864197,
        0.8242595791816711,
        0.24606306850910187
      ],
      "min": [
        -0.6879124045372009,
        -0.24369966983795166,
        -0.6789852380752563,
        -0.10750921815633774
      ],
      "type": "VEC4"
    },
    {
      "bufferView": 6,
      "byteOffset": 49324,
      "componentType": 5126,
      "count": 230,
      "max": [
        7.666666507720947
      ],
      "min": [
        0.0
      ],
      "type": "SCALAR"
    },
    {
      "bufferView": 7,
      "byteOffset": 98220,
      "componentType": 5126,
      "count": 230,
      "max": [
        17.915546417236328,
        -0.8606328964233398,
        1.9073486328125e-06
      ],
      "min": [
        17.915536880493164,
        -0.860637903213501,
        -2.8610263598238816e-06
      ],
      "type": "VEC3"
    },
    {
      "bufferView": 6,
      "byteOffset": 50244,
      "componentType": 5126,
      "count": 224,
      "max": [
        7.666666507720947
      ],
      "min": [
        0.0
      ],
      "type": "SCALAR"
    },
    {
      "bufferView": 7,
      "byteOffset": 100980,
      "componentType": 5126,
      "count": 224,
      "max": [
        1.000000238418579,
        1.0000001192092896,
        1.0000001192092896
      ],
      "min": [
        0.9999997615814209,
        0.9999997615814209,
        0.9999998807907104
      ],
      "type": "VEC3"
    },
    {
      "bufferView": 6,
      "byteOffset": 51140,
      "componentType": 5126,
      "count": 231,
      "max": [
        7.666666507720947
      ],
      "min": [
        0.0
      ],
      "type": "SCALAR"
    },
    {
      "bufferView": 8,
      "byteOffset": 66336,
      "componentType": 5126,
      "count": 231,
      "max": [
        7.071470520259027e-08,
        -4.3721257725337637e-07,
        0.17364834249019623,
        0.9848077297210693
      ],
      "min": [
        -5.272711689485732e-08,
        -5.161867875358439e-07,
        0.17364820837974548,
        0.9848077297210693
      ],
      "type": "VEC4"
    },
    {
      "bufferView": 6,
      "byteOffset": 52064,
      "componentType": 5126,
      "count": 230,
      "max": [
        7.666666507720947
      ],
      "min": [
        0.0
      ],
      "type": "SCALAR"
    },
    {
      "bufferView": 7,
      "byteOffset": 103668,
      "componentType": 5126,
      "count": 230,
      "max": [
        14.657672882080078,
        -0.011460065841674805,
        0.0068624019622802734
      ],
      "min": [
        14.641495704650879,
        -0.01617532968521118,
        -0.003702997462823987
      ],
      "type": "VEC3"
    },
    {
      "bufferView": 6,
      "byteOffset": 52984,
      "componentType": 5126,
      "count": 223,
      "max": [
        7.666666507720947
      ],
      "min": [
        0.0
      ],
      "type": "SCALAR"
    },
    {
      "bufferView": 7,
      "byteOffset": 106428,
      "componentType": 5126,
      "count": 223,
      "max": [
        1.000000238418579,
        1.000000238418579,
        1.000000238418579
      ],
      "min": [
        0.9999998211860657,
        0.9999997615814209,
        0.9999997615814209
      ],
      "type": "VEC3"
    },
    {
      "bufferView": 6,
      "byteOffset": 53876,
      "componentType": 5126,
      "count": 231,
      "max": [
        7.666666507720947
      ],
      "min": [
        0.0
      ],
      "type": "SCALAR"
    },
    {
      "bufferView": 8,
      "byteOffset": 70032,
      "componentType": 5126,
      "count": 231,
      "max": [
        0.11660269647836685,
        0.1264147311449051,
        0.38136669993400574,
        0.9999860525131226
      ],
      "min": [
        -0.2296881377696991,
        -0.1308097541332245,
        -0.1499881148338318,
        0.9240580201148987
      ],
      "type": "VEC4"
    },
    {
      "bufferView": 6,
      "byteOffset": 54800,
      "componentType": 5126,
      "count": 229,
      "max": [
        7.666666507720947
      ],
      "min": [
        0.0
      ],
      "type": "SCALAR"
    },
    {
      "bufferView": 7,
      "byteOffset": 109104,
      "componentType": 5126,
      "count": 229,
      "max": [
        5.126179218292236,
        0.012138843536376953,
        1.7555429935455322
      ],
      "min": [
        4.200247287750244,
        -2.9162275791168213,
        -0.00541919469833374
      ],
      "type": "VEC3"
    },
    {
      "bufferView": 6,
      "byteOffset": 55716,
      "componentType": 5126,
      "count": 217,
      "max": [
        7.666666507720947
      ],
      "min": [
        0.0
      ],
      "type": "SCALAR"
    },
    {
      "bufferView": 7,
      "byteOffset": 111852,
      "componentType": 5126,
      "count": 217,
      "max": [
        1.000000238418579,
        1.000000238418579,
        1.0000001192092896
      ],
      "min": [
        0.9999998211860657,
        0.9999998211860657,
        0.9999998211860657
      ],
      "type": "VEC3"
    },
    {
      "bufferView": 6,
      "byteOffset": 56584,
      "componentType": 5126,
      "count": 231,
      "max": [
        7.666666507720947
      ],
      "min": [
        0.0
      ],
      "type": "SCALAR"
    },
    {
      "bufferView": 8,
      "byteOffset": 73728,
      "componentType": 5126,
      "count": 231,
      "max": [
        0.24387794733047485,
        0.2910574972629547,
        0.6741457581520081,
        0.9997597932815552
      ],
      "min": [
        -0.23484662175178528,
        -0.24671505391597748,
        -0.19741910696029663,
        0.7101423740386963
      ],
      "type": "VEC4"
    },
    {
      "bufferView": 6,
      "byteOffset": 57508,
      "componentType": 5126,
      "count": 181,
      "max": [
        7.666666507720947
      ],
      "min": [
        0.0
      ],
      "type": "SCALAR"
    },
    {
      "bufferView": 7,
      "byteOffset": 114456,
      "componentType": 5126,
      "count": 181,
      "max": [
        1.000000238418579,
        1.000000238418579,
        1.0000001192092896
      ],
      "min": [
        0.9999998211860657,
        0.9999998211860657,
        0.9999998211860657
      ],
      "type": "VEC3"
    },
    {
      "bufferView": 6,
      "byteOffset": 58232,
      "componentType": 5126,
      "count": 176,
      "max": [
        7.666666507720947
      ],
      "min": [
        0.0
      ],
      "type": "SCALAR"
    },
    {
      "bufferView": 8,
      "byteOffset": 77424,
      "componentType": 5126,
      "count": 176,
      "max": [
        0.4994604289531708,
        0.5010765194892883,
        0.5010768175125122,
        0.6924930810928345
      ],
      "min": [
        -0.605368971824646,
        -0.5000000596046448,
        -0.49999934434890747,
        -0.49946120381355286
      ],
      "type": "VEC4"
    },
    {
      "bufferView": 6,
      "byteOffset": 58936,
      "componentType": 5126,
      "count": 157,
      "max": [
        7.666666507720947
      ],
      "min": [
        0.0
      ],
      "type": "SCALAR"
    },
    {
      "bufferView": 7,
      "byteOffset": 116628,
      "componentType": 5126,
      "count": 157,
      "max": [
        0.0,
        7.859318733215332,
        9.524182319641113
      ],
      "min": [
        0.0,
        -17.135000228881836,
        -13.233510971069336
      ],
      "type": "VEC3"
    },
    {
      "bufferView": 6,
      "byteOffset": 59564,
      "componentType": 5126,
      "count": 177,
      "max": [
        7.666666507720947
      ],
      "min": [
        0.0
      ],
      "type": "SCALAR"
    },
    {
      "bufferView": 7,
      "byteOffset": 118512,
      "componentType": 5126,
      "count": 177,
      "max": [
        1.000000238418579,
        1.000000238418579,
        1.0000001192092896
      ],
      "min": [
        0.9999997615814209,
        0.9999997615814209,
        0.9999999403953552
      ],
      "type": "VEC3"
    },
    {
      "bufferView": 6,
      "byteOffset": 60272,
      "componentType": 5126,
      "count": 221,
      "max": [
        7.666666507720947
      ],
      "min": [
        0.0
      ],
      "type": "SCALAR"
    },
    {
      "bufferView": 8,
      "byteOffset": 80240,
      "componentType": 5126,
      "count": 221,
      "max": [
        0.6011452078819275,
        0.704416036605835,
        0.704416036605835,
        0.7656939029693604
      ],
      "min": [
        -0.6625455021858215,
        -0.5193894505500793,
        -0.8413191437721252,
        -0.4965784251689911
      ],
      "type": "VEC4"
    }
  ],
  "animations": [
    {
      "channels": [
        {
          "sampler": 0,
          "target": {
            "node": 33,
            "path": "translation"
          }
        },
        {
          "sampler": 1,
          "target": {
            "node": 33,
            "path": "scale"
          }
        },
        {
          "sampler": 2,
          "target": {
            "node": 33,
            "path": "rotation"
          }
        },
        {
          "sampler": 3,
          "target": {
            "node": 14,
            "path": "translation"
          }
        },
        {
          "sampler": 4,
          "target": {
            "node": 14,
            "path": "scale"
          }
        },
        {
          "sampler": 5,
          "target": {
            "node": 14,
            "path": "rotation"
          }
        },
        {
          "sampler": 6,
          "target": {
            "node": 13,
            "path": "translation"
          }
        },
        {
          "sampler": 7,
          "target": {
            "node": 13,
            "path": "scale"
          }
        },
        {
          "sampler": 8,
          "target": {
            "node": 13,
            "path": "rotation"
          }
        },
        {
          "sampler": 9,
          "target": {
            "node": 12,
            "path": "translation"
          }
        },
        {
          "sampler": 10,
          "target": {
            "node": 12,
            "path": "scale"
          }
        },
        {
          "sampler": 11,
          "target": {
            "node": 12,
            "path": "rotation"
          }
        },
        {
          "sampler": 12,
          "target": {
            "node": 11,
            "path": "translation"
          }
        },
        {
          "sampler": 13,
          "target": {
            "node": 11,
            "path": "scale"
          }
        },
        {
          "sampler": 14,
          "target": {
            "node": 11,
            "path": "rotation"
          }
        },
        {
          "sampler": 15,
          "target": {
            "node": 19,
            "path": "translation"
          }
        },
        {
          "sampler": 16,
          "target": {
            "node": 19,
            "path": "scale"
          }
        },
        {
          "sampler": 17,
          "target": {
            "node": 19,
            "path": "rotation"
          }
        },
        {
          "sampler": 18,
          "target": {
            "node": 18,
            "path": "translation"
          }
        },
        {
          "sampler": 19,
          "target": {
            "node": 18,
            "path": "scale"
          }
        },
        {
          "sampler": 20,
          "target": {
            "node": 18,
            "path": "rotation"
          }
        },
        {
          "sampler": 21,
          "target": {
            "node": 17,
            "path": "translation"
          }
        },
        {
          "sampler": 22,
          "target": {
            "node": 17,
            "path": "scale"
          }
        },
        {
          "sampler": 23,
          "target": {
            "node": 17,
            "path": "rotation"
          }
        },
        {
          "sampler": 24,
          "target": {
            "node": 16,
            "path": "translation"
          }
        },
        {
          "sampler": 25,
          "target": {
            "node": 16,
            "path": "scale"
          }
        },
        {
          "sampler": 26,
          "target": {
            "node": 16,
            "path": "rotation"
          }
        },
        {
          "sampler": 27,
          "target": {
            "node": 23,
            "path": "translation"
          }
        },
        {
          "sampler": 28,
          "target": {
            "node": 23,
            "path": "scale"
          }
        },
        {
          "sampler": 29,
          "target": {
            "node": 23,
            "path": "rotation"
          }
        },
        {
          "sampler": 30,
          "target": {
            "node": 28,
            "path": "translation"
          }
        },
        {
          "sampler": 31,
          "target": {
            "node": 28,
            "path": "scale"
          }
        },
        {
          "sampler": 32,
          "target": {
            "node": 28,
            "path": "rotation"
          }
        },
        {
          "sampler": 33,
          "target": {
            "node": 27,
            "path": "translation"
          }
        },
        {
          "sampler": 34,
          "target": {
            "node": 27,
            "path": "scale"
          }
        },
        {
          "sampler": 35,
          "target": {
            "node": 27,
            "path": "rotation"
          }
        },
        {
          "sampler": 36,
          "target": {
            "node": 26,
            "path": "translation"
          }
        },
        {
          "sampler": 37,
          "target": {
            "node": 26,
            "path": "scale"
          }
        },
        {
          "sampler": 38,
          "target": {
            "node": 26,
            "path": "rotation"
          }
        },
        {
          "sampler": 39,
          "target": {
            "node": 25,
            "path": "translation"
          }
        },
        {
          "sampler": 40,
          "target": {
            "node": 25,
            "path": "scale"
          }
        },
        {
          "sampler": 41,
          "target": {
            "node": 25,
            "path": "rotation"
          }
        },
        {
          "sampler": 42,
          "target": {
            "node": 32,
            "path": "translation"
          }
        },
        {
          "sampler": 43,
          "target": {
            "node": 32,
            "path": "scale"
          }
        },
        {
          "sampler": 44,
          "target": {
            "node": 32,
            "path": "rotation"
          }
        },
        {
          "sampler": 45,
          "target": {
            "node": 31,
            "path": "translation"
          }
        },
        {
          "sampler": 46,
          "target": {
            "node": 31,
            "path": "scale"
          }
        },
        {
          "sampler": 47,
          "target": {
            "node": 31,
            "path": "rotation"
          }
        },
        {
          "sampler": 48,
          "target": {
            "node": 30,
            "path": "translation"
          }
        },
        {
          "sampler": 49,
          "target": {
            "node": 30,
            "path": "scale"
          }
        },
        {
          "sampler": 50,
          "target": {
            "node": 30,
            "path": "rotation"
          }
        },
        {
          "sampler": 51,
          "target": {
            "node": 29,
            "path": "translation"
          }
        },
        {
          "sampler": 52,
          "target": {
            "node": 29,
            "path": "scale"
          }
        },
        {
          "sampler": 53,
          "target": {
            "node": 29,
            "path": "rotation"
          }
        },
        {
          "sampler": 54,
          "target": {
            "node": 22,
            "path": "translation"
          }
        },
        {
          "sampler": 55,
          "target": {
            "node": 22,
            "path": "scale"
          }
        },
        {
          "sampler": 56,
          "target": {
            "node": 22,
            "path": "rotation"
          }
        },
        {
          "sampler": 57,
          "target": {
            "node": 21,
            "path": "translation"
          }
        },
        {
          "sampler": 58,
          "target": {
            "node": 21,
            "path": "scale"
          }
        },
        {
          "sampler": 59,
          "target": {
            "node": 21,
            "path": "rotation"
          }
        },
        {
          "sampler": 60,
          "target": {
            "node": 10,
            "path": "translation"
          }
        },
        {
          "sampler": 61,
          "target": {
            "node": 10,
            "path": "scale"
          }
        },
        {
          "sampler": 62,
          "target": {
            "node": 10,
            "path": "rotation"
          }
        },
        {
          "sampler": 63,
          "target": {
            "node": 9,
            "path": "scale"
          }
        },
        {
          "sampler": 64,
          "target": {
            "node": 9,
            "path": "rotation"
          }
        },
        {
          "sampler": 65,
          "target": {
            "node": 8,
            "path": "translation"
          }
        },
        {
          "sampler": 66,
          "target": {
            "node": 8,
            "path": "scale"
          }
        },
        {
          "sampler": 67,
          "target": {
            "node": 8,
            "path": "rotation"
          }
        }
      ],
      "name": "Take 001",
      "samplers": [
        {
          "input": 8,
          "interpolation": "LINEAR",
          "output": 9
        },
        {
          "input": 10,
          "interpolation": "LINEAR",
          "output": 11
        },
        {
          "input": 12,
          "interpolation": "LINEAR",
          "output": 13
        },
        {
          "input": 14,
          "interpolation": "LINEAR",
          "output": 15
        },
        {
          "input": 16,
          "interpolation": "LINEAR",
          "output": 17
        },
        {
          "input": 18,
          "interpolation": "LINEAR",
          "output": 19
        },
        {
          "input": 20,
          "interpolation": "LINEAR",
          "output": 21
        },
        {
          "input": 22,
          "interpolation": "LINEAR",
          "output": 23
        },
        {
          "input": 24,
          "interpolation": "LINEAR",
          "output": 25
        },
        {
          "input": 26,
          "interpolation": "LINEAR",
          "output": 27
        },
        {
          "input": 28,
          "interpolation": "LINEAR",
          "output": 29
        },
        {
          "input": 30,
          "interpolation": "LINEAR",
          "output": 31
        },
        {
          "input": 32,
          "interpolation": "LINEAR",
          "output": 33
        },
        {
          "input": 34,
          "interpolation": "LINEAR",
          "output": 35
        },
        {
          "input": 36,
          "interpolation": "LINEAR",
          "output": 37
        },
        {
          "input": 38,
          "interpolation": "LINEAR",
          "output": 39
        },
        {
          "input": 40,
          "interpolation": "LINEAR",
          "output": 41
        },
        {
          "input": 42,
          "interpolation": "LINEAR",
          "output": 43
        },
        {
          "input": 44,
          "interpolation": "LINEAR",
          "output": 45
        },
        {
          "input": 46,
          "interpolation": "LINEAR",
          "output": 47
        },
        {
          "input": 48,
          "interpolation": "LINEAR",
          "output": 49
        },
        {
          "input": 50,
          "interpolation": "LINEAR",
          "output": 51
        },
        {
          "input": 52,
          "interpolation": "LINEAR",
          "output": 53
        },
        {
          "input": 54,
          "interpolation": "LINEAR",
          "output": 55
        },
        {
          "input": 56,
          "interpolation": "LINEAR",
          "output": 57
        },
        {
          "input": 58,
          "interpolation": "LINEAR",
          "output": 59
        },
        {
          "input": 60,
          "interpolation": "LINEAR",
          "output": 61
        },
        {
          "input": 62,
          "interpolation": "LINEAR",
          "output": 63
        },
        {
          "input": 64,
          "interpolation": "LINEAR",
          "output": 65
        },
        {
          "input": 66,
          "interpolation": "LINEAR",
          "output": 67
        },
        {
          "input": 68,
          "interpolation": "LINEAR",
          "output": 69
        },
        {
          "input": 70,
          "interpolation": "LINEAR",
          "output": 71
        },
        {
          "input": 72,
          "interpolation": "LINEAR",
          "output": 73
        },
        {
          "input": 74,
          "interpolation": "LINEAR",
          "output": 75
        },
        {
          "input": 76,
          "interpolation": "LINEAR",
          "output": 77
        },
        {
          "input": 78,
          "interpolation": "LINEAR",
          "output": 79
        },
        {
          "input": 80,
          "interpolation": "LINEAR",
          "output": 81
        },
        {
          "input": 82,
          "interpolation": "LINEAR",
          "output": 83
        },
        {
          "input": 84,
          "interpolation": "LINEAR",
          "output": 85
        },
        {
          "input": 86,
          "interpolation": "LINEAR",
          "output": 87
        },
        {
          "input": 88,
          "interpolation": "LINEAR",
          "output": 89
        },
        {
          "input": 90,
          "interpolation": "LINEAR",
          "output": 91
        },
        {
          "input": 92,
          "interpolation": "LINEAR",
          "output": 93
        },
        {
          "input": 94,
          "interpolation": "LINEAR",
          "output": 95
        },
        {
          "input": 96,
          "interpolation": "LINEAR",
          "output": 97
        },
        {
          "input": 98,
          "interpolation": "LINEAR",
          "output": 99
        },
        {
          "input": 100,
          "interpolation": "LINEAR",
          "output": 101
        },
        {
          "input": 102,
          "interpolation": "LINEAR",
          "output": 103
        },
        {
          "input": 104,
          "interpolation": "LINEAR",
          "output": 105
        },
        {
          "input": 106,
          "interpolation": "LINEAR",
          "output": 107
        },
        {
          "input": 108,
          "interpolation": "LINEAR",
          "output": 109
        },
        {
          "input": 110,
          "interpolation": "LINEAR",
          "output": 111
        },
        {
          "input": 112,
          "interpolation": "LINEAR",
          "output": 113
        },
        {
          "input": 114,
          "interpolation": "LINEAR",
          "output": 115
        },
        {
          "input": 116,
          "interpolation": "LINEAR",
          "output": 117
        },
        {
          "input": 118,
          "interpolation": "LINEAR",
          "output": 119
        },
        {
          "input": 120,
          "interpolation": "LINEAR",
          "output": 121
        },
        {
          "input": 122,
          "interpolation": "LINEAR",
          "output": 123
        },
        {
          "input": 124,
          "interpolation": "LINEAR",
          "output": 125
        },
        {
          "input": 126,
          "interpolation": "LINEAR",
          "output": 127
        },
        {
          "input": 128,
          "interpolation": "LINEAR",
          "output": 129
        },
        {
          "input": 130,
          "interpolation": "LINEAR",
          "output": 131
        },
        {
          "input": 132,
          "interpolation": "LINEAR",
          "output": 133
        },
        {
          "input": 134,
          "interpolation": "LINEAR",
          "output": 135
        },
        {
          "input": 136,
          "interpolation": "LINEAR",
          "output": 137
        },
        {
          "input": 138,
          "interpolation": "LINEAR",
          "output": 139
        },
        {
          "input": 140,
          "interpolation": "LINEAR",
          "output": 141
        },
        {
          "input": 142,
          "interpolation": "LINEAR",
          "output": 143
        }
      ]
    }
  ],
  "asset": {
    "extras": {
      "author": "l0wpoly (https://sketchfab.com/l0wpoly)",
      "license": "SKETCHFAB Standard (https://sketchfab.com/licenses)",
      "source": "https://sketchfab.com/3d-models/robot-80a736ddac1044299b134cfcca87c7f9",
      "title": "Robot"
    },
    "generator": "Sketchfab-17.15.0",
    "version": "2.0"
  },
  "bufferViews": [
    {
      "buffer": 0,
      "byteLength": 11776,
      "byteStride": 8,
      "name": "shortBufferViews",
      "target": 34962
    },
    {
      "buffer": 0,
      "byteLength": 12576,
      "byteOffset": 11776,
      "name": "floatBufferViews",
      "target": 34963
    },
    {
      "buffer": 0,
      "byteLength": 11776,
      "byteOffset": 24352,
      "byteStride": 8,
      "name": "floatBufferViews",
      "target": 34962
    },
    {
      "buffer": 0,
      "byteLength": 35328,
      "byteOffset": 36128,
      "byteStride": 12,
      "name": "floatBufferViews",
      "target": 34962
    },
    {
      "buffer": 0,
      "byteLength": 47104,
      "byteOffset": 71456,
      "byteStride": 16,
      "name": "floatBufferViews",
      "target": 34962
    },
    {
      "buffer": 0,
      "byteLength": 1664,
      "byteOffset": 118560,
      "name": "floatBufferViews"
    },
    {
      "buffer": 0,
      "byteLength": 61156,
      "byteOffset": 120224,
      "name": "floatBufferViews"
    },
    {
      "buffer": 0,
      "byteLength": 120636,
      "byteOffset": 181380,
      "byteStride": 12,
      "name": "floatBufferViews"
    },
    {
      "buffer": 0,
      "byteLength": 83776,
      "byteOffset": 302016,
      "byteStride": 16,
      "name": "floatBufferViews"
    }
  ],
  "buffers": [
    {
      "byteLength": 385792,
      "uri": "scene.bin"
    }
  ],
  "images": [
    {
      "uri": "textures/hero_texture_baseColor.png"
    },
    {
      "uri": "textures/hero_texture_metallicRoughness.png"
    },
    {
      "uri": "textures/hero_texture_normal.png"
    }
  ],
  "materials": [
    {
      "doubleSided": true,
      "name": "hero_texture",
      "normalTexture": {
        "index": 2
      },
      "occlusionTexture": {
        "index": 1
      },
      "pbrMetallicRoughness": {
        "baseColorTexture": {
          "index": 0
        },
        "metallicRoughnessTexture": {
          "index": 1
        }
      }
    }
  ],
  "meshes": [
    {
      "name": "hero_hero_texture_0",
      "primitives": [
        {
          "attributes": {
            "JOINTS_0": 6,
            "NORMAL": 1,
            "POSITION": 0,
            "TANGENT": 2,
            "TEXCOORD_0": 3,
            "WEIGHTS_0": 7
          },
          "indices": 4,
          "material": 0,
          "mode": 4
        }
      ]
    }
  ],
  "nodes": [
    {
      "children": [
        1
      ],
      "matrix": [
        1.0,
        0.0,
        0.0,
        0.0,
        0.0,
        2.220446049250313e-16,
        -1.0,
        0.0,
        0.0,
        1.0,
        2.220446049250313e-16,
        0.0,
        0.0,
        0.0,
        0.0,
        1.0
      ],
      "name": "Sketchfab_model"
    },
    {
      "children": [
        2
      ],
      "matrix": [
        0.009999999776482582,
        0.0,
        0.0,
        0.0,
        0.0,
        0.0,
        0.009999999776482582,
        0.0,
        0.0,
        -0.009999999776482582,
        0.0,
        0.0,
        0.0,
        0.0,
        0.0,
        1.0
      ],
      "name": "robot.fbx"
    },
    {
      "children": [
        3
      ],
      "name": "Object_2"
    },
    {
      "children": [
        4
      ],
      "name": "RootNode"
    },
    {
      "children": [
        5,
        7,
        6,
        34
      ],
      "name": "Object_4"
    },
    {
      "children": [
        8
      ],
      "name": "_rootJoint"
    },
    {
      "matrix": [
        1.0,
        -2.117582368135751e-22,
        -4.235164736271502e-22,
        0.0,
        -4.235164736271501e-22,
        6.123233995736765e-17,
        -0.9999999999999999,
        0.0,
        2.117582368135751e-22,
        0.9999999999999999,
        6.123233995736765e-17,
        0.0,
        0.0,
        3.552713678800501e-15,
        -1.2924697071141057e-26,
        1.0
      ],
      "name": "Object_6"
    },
    {
      "mesh": 0,
      "name": "Object_7",
      "skin": 0
    },
    {
      "children": [
        9,
        33
      ],
      "name": "hero_controler_00",
      "rotation": [
        0.47967419028282166,
        0.571652352809906,
        0.5099382400512695,
        -0.42788931727409363
      ],
      "translation": [
        0.0,
        5.215000152587891,
        0.0
      ]
    },
    {
      "children": [
        10
      ],
      "name": "hero_controler dupa_01",
      "rotation": [
        -0.5,
        -0.5,
        -0.4999993145465851,
        0.5000007152557373
      ],
      "scale": [
        1.0000001192092896,
        1.0,
        0.9999999403953552
      ]
    },
    {
      "children": [
        11,
        16,
        21
      ],
      "name": "hero_controler Spine_02",
      "rotation": [
        0.2184368520975113,
        0.011316221207380295,
        -0.132879838347435,
        0.9666955471038818
      ],
      "scale": [
        1.0,
        1.0000001192092896,
        1.0
      ],
      "translation": [
        5.116910457611084,
        -0.010135889053344727,
        -0.004882805049419403
      ]
    },
    {
      "children": [
        12
      ],
      "name": "hero_controler L noga_03",
      "rotation": [
        0.349704384803772,
        0.9172655344009399,
        -0.16442731022834778,
        0.09640908241271973
      ],
      "scale": [
        0.9999999403953552,
        1.0000001192092896,
        1.0000001192092896
      ],
      "translation": [
        -5.702060699462891,
        2.679997205734253,
        8.8311767578125
      ]
    },
    {
      "children": [
        13
      ],
      "name": "hero_controler - none_04",
      "rotation": [
        -4.779933932354135e-20,
        -1.3877707571295039e-17,
        -0.0034443053882569075,
        0.999994158744812
      ],
      "scale": [
        0.9999999403953552,
        0.9999999403953552,
        0.9999999403953552
      ],
      "translation": [
        20.545021057128906,
        -1.430511474609375e-06,
        9.5367431640625e-07
      ]
    },
    {
      "children": [
        14
      ],
      "name": "hero_controler L stopa_05",
      "rotation": [
        0.005209540948271751,
        -0.00844518281519413,
        0.10797219723463058,
        0.9941043853759766
      ],
      "scale": [
        0.9999999403953552,
        0.9999998807907104,
        0.9999999403953552
      ],
      "translation": [
        0.6392135620117188,
        2.86102294921875e-06,
        -9.5367431640625e-07
      ]
    },
    {
      "children": [
        15
      ],
      "name": "hero_controler L Toe0_06",
      "rotation": [
        1.4817253202181746e-08,
        1.4817253202181746e-08,
        0.7071068286895752,
        0.7071068286895752
      ],
      "scale": [
        0.9999999403953552,
        1.0,
        0.9999999403953552
      ],
      "translation": [
        8.797380447387695,
        13.361641883850098,
        0.0
      ]
    },
    {
      "name": "hero_controler L Toe0Nub_07",
      "rotation": [
        -9.31322685637781e-10,
        2.561137080192566e-09,
        1.0,
        -5.884709784979028e-17
      ],
      "scale": [
        -0.9999999403953552,
        -1.0,
        -0.9999999403953552
      ],
      "translation": [
        0.39818763732910156,
        3.552713678800501e-15,
        1.7763568394002505e-15
      ]
    },
    {
      "children": [
        17
      ],
      "name": "hero_controler R noga_08",
      "rotation": [
        -0.6309565305709839,
        0.7355340123176575,
        -0.2161591351032257,
        -0.1189907044172287
      ],
      "scale": [
        0.9999998807907104,
        0.9999999403953552,
        1.0000001192092896
      ],
      "translation": [
        -4.1736297607421875,
        -5.338030815124512,
        -8.460780143737793
      ]
    },
    {
      "children": [
        18
      ],
      "name": "hero_controler - none_09",
      "rotation": [
        7.034420856947915e-18,
        2.7731519549054646e-17,
        -0.0034432467073202133,
        0.9999940991401672
      ],
      "scale": [
        1.0,
        1.000000238418579,
        1.0
      ],
      "translation": [
        20.545019149780273,
        4.76837158203125e-07,
        -9.5367431640625e-07
      ]
    },
    {
      "children": [
        19
      ],
      "name": "hero_controler R stopa_010",
      "rotation": [
        0.0008537215762771666,
        0.0016380972228944302,
        -0.19522073864936829,
        0.9807575941085815
      ],
      "scale": [
        1.0000001192092896,
        1.0,
        0.9999998807907104
      ],
      "translation": [
        0.6392135620117188,
        4.76837158203125e-07,
        0.0
      ]
    },
    {
      "children": [
        20
      ],
      "name": "hero_controler R Toe0_011",
      "rotation": [
        -6.997036283706848e-09,
        -1.0948303597047016e-08,
        0.7071068286895752,
        0.7071068286895752
      ],
      "translation": [
        8.797378540039063,
        13.361641883850098,
        9.5367431640625e-07
      ]
    },
    {
      "name": "hero_controler R Toe0Nub_012",
      "rotation": [
        1.0244548320770264e-08,
        -9.31322685637781e-10,
        -7.450580596923828e-09,
        1.0
      ],
      "scale": [
        0.9999999403953552,
        1.0,
        1.0
      ],
      "translation": [
        0.39818763732910156,
        3.814697265625e-06,
        0.0
      ]
    },
    {
      "children": [
        22
      ],
      "name": "hero_controler Spine1_013",
      "rotation": [
        0.01156239677220583,
        -0.1173071414232254,
        -0.0752146914601326,
        0.9901757836341858
      ],
      "scale": [
        0.9999999403953552,
        1.0,
        1.0
      ],
      "translation": [
        14.643890380859375,
        -0.015988588333129883,
        -0.0006566643714904785
      ]
    },
    {
      "children": [
        23,
        25,
        29
      ],
      "name": "hero_controler - none_014",
      "rotation": [
        -4.968809252936524e-10,
        -4.6914968265809875e-07,
        0.17364829778671265,
        0.9848077297210693
      ],
      "scale": [
        1.0000001192092896,
        1.0000001192092896,
        0.9999999403953552
      ],
      "translation": [
        17.915544509887695,
        -0.860633373260498,
        -2.86102294921875e-06
      ]
    },
    {
      "children": [
        24
      ],
      "name": "hero_controler Head_015",
      "rotation": [
        0.050846416503190994,
        0.054252371191978455,
        -0.034809719771146774,
        0.9966241121292114
      ],
      "scale": [
        0.9999999403953552,
        1.0,
        1.0
      ],
      "translation": [
        1.12530517578125,
        0.2245330810546875,
        1.7763568394002505e-15
      ]
    },
    {
      "name": "hero_controler HeadNub_016",
      "rotation": [
        -1.3038517820973539e-08,
        -7.450580596923828e-09,
        -7.450581485102248e-09,
        1.0
      ],
      "scale": [
        0.9999999403953552,
        0.9999998807907104,
        0.9999999403953552
      ],
      "translation": [
        35.510406494140625,
        9.5367431640625e-07,
        1.430511474609375e-06
      ]
    },
    {
      "children": [
        26
      ],
      "name": "hero_controler L obojczyk_017",
      "rotation": [
        0.6233212351799011,
        -0.11016535758972168,
        0.7623519897460938,
        0.13473546504974365
      ],
      "translation": [
        -6.380096435546875,
        -2.3059959411621094,
        8.653640747070313
      ]
    },
    {
      "children": [
        27
      ],
      "name": "hero_controler L UpperArm_018",
      "rotation": [
        0.34428831934928894,
        0.12338560819625854,
        0.26203975081443787,
        0.8930715322494507
      ],
      "scale": [
        1.0,
        1.0000001192092896,
        1.0000001192092896
      ],
      "translation": [
        9.961614608764648,
        9.5367431640625e-07,
        0.0
      ]
    },
    {
      "children": [
        28
      ],
      "name": "hero_controler L Forearm_019",
      "rotation": [
        -1.6063240345210184e-17,
        -4.050760038826075e-17,
        -0.09498342871665955,
        0.9954788684844971
      ],
      "scale": [
        1.0000001192092896,
        0.9999999403953552,
        1.0
      ],
      "translation": [
        14.811250686645508,
        1.9073486328125e-06,
        -3.814697265625e-06
      ]
    },
    {
      "name": "hero_controler L Hand_020",
      "rotation": [
        -0.6960869431495667,
        0.12283668667078018,
        0.12273889780044556,
        0.6966414451599121
      ],
      "scale": [
        0.9999998807907104,
        0.9999999403953552,
        0.9999998211860657
      ],
      "translation": [
        13.819475173950195,
        1.9073486328125e-06,
        -3.552713678800501e-15
      ]
    },
    {
      "children": [
        30
      ],
      "name": "hero_controler R obojczyk_021",
      "rotation": [
        -0.6233208775520325,
        0.11016318202018738,
        0.7623523473739624,
        0.13473711907863617
      ],
      "scale": [
        1.0,
        1.0,
        0.9999999403953552
      ],
      "translation": [
        -6.380096435546875,
        -2.3059463500976563,
        -8.653656005859375
      ]
    },
    {
      "children": [
        31
      ],
      "name": "hero_controler R UpperArm_022",
      "rotation": [
        -0.0073317475616931915,
        -0.3189004361629486,
        -0.11111592501401901,
        0.941223680973053
      ],
      "scale": [
        0.9999998807907104,
        0.9999999403953552,
        0.9999999403953552
      ],
      "translation": [
        9.961616516113281,
        -3.552713678800501e-15,
        -7.105427357601002e-15
      ]
    },
    {
      "children": [
        32
      ],
      "name": "hero_controler R Forearm_023",
      "rotation": [
        1.5741399258116826e-17,
        4.096508751528423e-17,
        -0.6354707479476929,
        0.7721249461174011
      ],
      "translation": [
        14.811248779296875,
        9.5367431640625e-07,
        3.814697265625e-06
      ]
    },
    {
      "name": "hero_controler R Hand_024",
      "rotation": [
        0.6960869431495667,
        -0.12283670902252197,
        0.12273890525102615,
        0.6966414451599121
      ],
      "scale": [
        1.0,
        1.000000238418579,
        1.0000001192092896
      ],
      "translation": [
        13.819477081298828,
        -9.5367431640625e-07,
        0.0
      ]
    },
    {
      "name": "hero_controler Footsteps",
      "rotation": [
        0.036617424339056015,
        0.04363849386572838,
        0.7648000121116638,
        0.6417443156242371
      ],
      "scale": [
        0.9999999403953552,
        1.0,
        1.0
      ],
      "translation": [
        -2.305751085281372,
        -0.406552255153656,
        -20.44988250732422
      ]
    },
    {
      "name": "hero",
      "rotation": [
        -0.7071068286895752,
        -0.0,
        0.0,
        0.7071068286895752
      ]
    }
  ],
  "samplers": [
    {
      "magFilter": 9729,
      "minFilter": 9987,
      "wrapS": 10497,
      "wrapT": 10497
    }
  ],
  "scene": 0,
  "scenes": [
    {
      "name": "Sketchfab_Scene",
      "nodes": [
        0
      ]
    }
  ],
  "skins": [
    {
      "inverseBindMatrices": 5,
      "joints": [
        5,
        8,
        9,
        10,
        11,
        12,
        13,
        14,
        15,
        16,
        17,
        18,
        19,
        20,
        21,
        22,
        23,
        24,
        25,
        26,
        27,
        28,
        29,
        30,
        31,
        32
      ],
      "skeleton": 5
    }
  ],
  "textures": [
    {
      "sampler": 0,
      "source": 0
    },
    {
      "sampler": 0,
      "source": 1
    },
    {
      "sampler": 0,
      "source": 2
    }
  ]
}
