{
  "accessors": [
    {
      "bufferView": 2,
      "componentType": 5126,
      "count": 8367,
      "max": [
        90.86625671386719,
        57.176368713378906,
        57.659027099609375
      ],
      "min": [
        -95.63849639892578,
        -57.73783874511719,
        -82.78121185302734
      ],
      "type": "VEC3"
    },
    {
      "bufferView": 2,
      "byteOffset": 100404,
      "componentType": 5126,
      "count": 8367,
      "max": [
        1.0,
        1.0,
        1.0
      ],
      "min": [
        -1.0,
        -1.0,
        -1.0
      ],
      "type": "VEC3"
    },
    {
      "bufferView": 1,
      "componentType": 5126,
      "count": 8367,
      "max": [
        0.993018627166748,
        1.984043836593628
      ],
      "min": [
        0.0010000000474974513,
        0.0010000000474974513
      ],
      "type": "VEC2"
    },
    {
      "bufferView": 0,
      "componentType": 5125,
      "count": 33510,
      "type": "SCALAR"
    },
    {
      "bufferView": 2,
      "byteOffset": 200808,
      "componentType": 5126,
      "count": 1070,
      "max": [
        106.8088607788086,
        21.209524154663086,
        60.05599594116211
      ],
      "min": [
        0.0,
        -52.507362365722656,
        -36.06096267700195
      ],
      "type": "VEC3"
    },
    {
      "bufferView": 2,
      "byteOffset": 213648,
      "componentType": 5126,
      "count": 1070,
      "max": [
        1.0,
        0.9836432933807373,
        1.0
      ],
      "min": [
        -1.0,
        -1.0,
        -1.0
      ],
      "type": "VEC3"
    },
    {
      "bufferView": 1,
      "byteOffset": 66936,
      "componentType": 5126,
      "count": 1070,
      "max": [
        0.9870151281356812,
        0.9859853386878967
      ],
      "min": [
        0.0012269020080566406,
        0.2764875292778015
      ],
      "type": "VEC2"
    },
    {
      "bufferView": 0,
      "byteOffset": 134040,
      "componentType": 5125,
      "count": 4470,
      "type": "SCALAR"
    },
    {
      "bufferView": 2,
      "byteOffset": 226488,
      "componentType": 5126,
      "count": 1070,
      "max": [
        0.0,
        22.66828727722168,
        57.33895492553711
      ],
      "min": [
        -105.79104614257813,
        -52.507362365722656,
        -36.06096267700195
      ],
      "type": "VEC3"
    },
    {
      "bufferView": 2,
      "byteOffset": 239328,
      "componentType": 5126,
      "count": 1070,
      "max": [
        1.0,
        0.9836432933807373,
        1.0
      ],
      "min": [
        -1.0,
        -1.0,
        -1.0
      ],
      "type": "VEC3"
    },
    {
      "bufferView": 1,
      "byteOffset": 75496,
      "componentType": 5126,
      "count": 1070,
      "max": [
        0.9733301997184753,
        1.8726749420166016
      ],
      "min": [
        0.0012269020080566406,
        0.2764875292778015
      ],
      "type": "VEC2"
    },
    {
      "bufferView": 0,
      "byteOffset": 151920,
      "componentType": 5125,
      "count": 4470,
      "type": "SCALAR"
    }
  ],
  "asset": {
    "extras": {
      "author": "iasarmientoj (https://sketchfab.com/iasarmientoj)",
      "license": "CC-BY-4.0 (http://creativecommons.org/licenses/by/4.0/)",
      "source": "https://sketchfab.com/3d-models/futuristic-army-robot-38208b7e2ca34d3cb420bed5bbcdb03b",
      "title": "Futuristic army robot"
    },
    "generator": "Sketchfab-16.17.0",
    "version": "2.0"
  },
  "bufferViews": [
    {
      "buffer": 0,
      "byteLength": 169800,
      "name": "floatBufferViews",
      "target": 34963
    },
    {
      "buffer": 0,
      "byteLength": 84056,
      "byteOffset": 169800,
      "byteStride": 8,
      "name": "floatBufferViews",
      "target": 34962
    },
    {
      "buffer": 0,
      "byteLength": 252168,
      "byteOffset": 253856,
      "byteStride": 12,
      "name": "floatBufferViews",
      "target": 34962
    }
  ],
  "buffers": [
    {
      "byteLength": 506024,
      "uri": "scene.bin"
    }
  ],
  "extensionsUsed": [
    "KHR_materials_specular",
    "KHR_materials_emissive_strength"
  ],
  "materials": [
    {
      "doubleSided": true,
      "extensions": {
        "KHR_materials_specular": {
          "specularColorFactor": [
            1.0,
            1.0,
            1.0
          ],
          "specularFactor": 0.6747379902773684
        }
      },
      "name": "M_spawnNegro",
      "pbrMetallicRoughness": {
        "baseColorFactor": [
          0.013314292935956682,
          0.013314292935956682,
          0.013314292935956682,
          1.0
        ],
        "metallicFactor": 0.6936059148056702,
        "roughnessFactor": 0.16802930532011595
      }
    },
    {
      "doubleSided": true,
      "emissiveFactor": [
        0.7635897726229559,
        0.03564081245896186,
        1.0
      ],
      "extensions": {
        "KHR_materials_emissive_strength": {
          "emissiveStrength": 10.0
        }
      },
      "name": "M_spawnLuz2",
      "pbrMetallicRoughness": {
        "baseColorFactor": [
          0.9867477557068929,
          0.0,
          1.0,
          1.0
        ],
        "metallicFactor": 0.0,
        "roughnessFactor": 0.8929713596497552
      }
    },
    {
      "doubleSided": true,
      "emissiveFactor": [
        1.0,
        0.7911212023993123,
        0.03564081245896186
      ],
      "extensions": {
        "KHR_materials_emissive_strength": {
          "emissiveStrength": 10.0
        }
      },
      "name": "M_spawnLuz",
      "pbrMetallicRoughness": {
        "baseColorFactor": [
          0.890196,
          0.839216,
          0.0,
          1.0
        ],
        "metallicFactor": 0.0,
        "roughnessFactor": 0.8929713596497552
      }
    }
  ],
  "meshes": [
    {
      "name": "boss01_M_spawnNegro_0",
      "primitives": [
        {
          "attributes": {
            "NORMAL": 1,
            "POSITION": 0,
            "TEXCOORD_0": 2
          },
          "indices": 3,
          "material": 0,
          "mode": 4
        }
      ]
    },
    {
      "name": "boss01_M_spawnLuz2_0",
      "primitives": [
        {
          "attributes": {
            "NORMAL": 5,
            "POSITION": 4,
            "TEXCOORD_0": 6
          },
          "indices": 7,
          "material": 1,
          "mode": 4
        }
      ]
    },
    {
      "name": "boss01_M_spawnLuz_0",
      "primitives": [
        {
          "attributes": {
            "NORMAL": 9,
            "POSITION": 8,
            "TEXCOORD_0": 10
          },
          "indices": 11,
          "material": 2,
          "mode": 4
        }
      ]
    }
  ],
  "nodes": [
    {
      "children": [
        1
      ],
      "matrix": [
        1.0,
        0.0,
        0.0,
        0.0,
        0.0,
        2.220446049250313e-16,
        -1.0,
        0.0,
        0.0,
        1.0,
        2.220446049250313e-16,
        0.0,
        0.0,
        0.0,
        0.0,
        1.0
      ],
      "name": "Sketchfab_model"
    },
    {
      "children": [
        2
      ],
      "matrix": [
        1.0,
        0.0,
        0.0,
        0.0,
        0.0,
        0.0,
        1.0,
        0.0,
        0.0,
        -1.0,
        0.0,
        0.0,
        0.0,
        0.0,
        0.0,
        1.0
      ],
      "name": "cdc8452bf8584279bbb4018350060371.fbx"
    },
    {
      "children": [
        3
      ],
      "name": "RootNode"
    },
    {
      "children": [
        4,
        5,
        6
      ],
      "matrix": [
        1.0,
        0.0,
        0.0,
        0.0,
        0.0,
        2.220446049250313e-16,
        -1.0,
        0.0,
        0.0,
        1.0,
        2.220446049250313e-16,
        0.0,
        3.818422555923462e-06,
        93.13053894042969,
        -25.759380340576172,
        1.0
      ],
      "name": "boss01"
    },
    {
      "mesh": 0,
      "name": "boss01_M_spawnNegro_0"
    },
    {
      "mesh": 1,
      "name": "boss01_M_spawnLuz2_0"
    },
    {
      "mesh": 2,
      "name": "boss01_M_spawnLuz_0"
    }
  ],
  "scene": 0,
  "scenes": [
    {
      "name": "Sketchfab_Scene",
      "nodes": [
        0
      ]
    }
  ]
}
