{
  "accessors": [
    {
      "bufferView": 2,
      "componentType": 5126,
      "count": 11592,
      "max": [
        2.937514543533325,
        -4.939907550811768,
        3.93112850189209
      ],
      "min": [
        0.6182839274406433,
        -5.913813591003418,
        -3.9311282634735107
      ],
      "type": "VEC3"
    },
    {
      "bufferView": 2,
      "byteOffset": 139104,
      "componentType": 5126,
      "count": 11592,
      "max": [
        0.9998816251754761,
        0.9999293684959412,
        0.9999956488609314
      ],
      "min": [
        -0.6419482231140137,
        -0.9999836683273315,
        -0.9999956488609314
      ],
      "type": "VEC3"
    },
    {
      "bufferView": 1,
      "componentType": 5126,
      "count": 11592,
      "max": [
        0.6250001192092896,
        0.7500001788139343
      ],
      "min": [
        0.125,
        0.4999999701976776
      ],
      "type": "VEC2"
    },
    {
      "bufferView": 0,
      "componentType": 5125,
      "count": 51072,
      "type": "SCALAR"
    },
    {
      "bufferView": 2,
      "byteOffset": 278208,
      "componentType": 5126,
      "count": 8135,
      "max": [
        1.238126516342163,
        3.430612802505493,
        3.6028788089752197
      ],
      "min": [
        -1.2381266355514526,
        0.9543598890304565,
        -3.6028788089752197
      ],
      "type": "VEC3"
    },
    {
      "bufferView": 2,
      "byteOffset": 375828,
      "componentType": 5126,
      "count": 8135,
      "max": [
        1.0,
        1.0,
        1.0
      ],
      "min": [
        -1.0,
        -1.0,
        -1.0
      ],
      "type": "VEC3"
    },
    {
      "bufferView": 1,
      "byteOffset": 92736,
      "componentType": 5126,
      "count": 8135,
      "max": [
        1.0000001192092896,
        1.000000238418579
      ],
      "min": [
        0.0,
        0.03343147039413452
      ],
      "type": "VEC2"
    },
    {
      "bufferView": 0,
      "byteOffset": 204288,
      "componentType": 5125,
      "count": 40704,
      "type": "SCALAR"
    },
    {
      "bufferView": 2,
      "byteOffset": 473448,
      "componentType": 5126,
      "count": 8721,
      "max": [
        -2.2370996475219727,
        0.44237709045410156,
        3.8593201637268066
      ],
      "min": [
        -4.450902462005615,
        -1.7714252471923828,
        -3.8593201637268066
      ],
      "type": "VEC3"
    },
    {
      "bufferView": 2,
      "byteOffset": 578100,
      "componentType": 5126,
      "count": 8721,
      "max": [
        1.0,
        1.0,
        1.0
      ],
      "min": [
        -1.0,
        -1.0,
        -1.0
      ],
      "type": "VEC3"
    },
    {
      "bufferView": 1,
      "byteOffset": 157816,
      "componentType": 5126,
      "count": 8721,
      "max": [
        1.0000001192092896,
        1.0000001192092896
      ],
      "min": [
        0.0,
        0.03296070545911789
      ],
      "type": "VEC2"
    },
    {
      "bufferView": 0,
      "byteOffset": 367104,
      "componentType": 5125,
      "count": 42240,
      "type": "SCALAR"
    },
    {
      "bufferView": 2,
      "byteOffset": 682752,
      "componentType": 5126,
      "count": 5440,
      "max": [
        -2.147005558013916,
        -1.013069748878479,
        2.93164324760437
      ],
      "min": [
        -2.9849448204040527,
        -1.8510090112686157,
        -2.93164324760437
      ],
      "type": "VEC3"
    },
    {
      "bufferView": 2,
      "byteOffset": 748032,
      "componentType": 5126,
      "count": 5440,
      "max": [
        1.0,
        1.0,
        1.0
      ],
      "min": [
        -1.0,
        -1.0,
        -1.0
      ],
      "type": "VEC3"
    },
    {
      "bufferView": 1,
      "byteOffset": 227584,
      "componentType": 5126,
      "count": 5440,
      "max": [
        1.0000001192092896,
        1.0000001192092896
      ],
      "min": [
        0.0,
        0.03343150019645691
      ],
      "type": "VEC2"
    },
    {
      "bufferView": 0,
      "byteOffset": 536064,
      "componentType": 5125,
      "count": 26880,
      "type": "SCALAR"
    },
    {
      "bufferView": 2,
      "byteOffset": 813312,
      "componentType": 5126,
      "count": 29882,
      "max": [
        1.0335416793823242,
        -1.3620386123657227,
        3.9142658710479736
      ],
      "min": [
        -4.168320655822754,
        -5.1337432861328125,
        -3.9142661094665527
      ],
      "type": "VEC3"
    },
    {
      "bufferView": 2,
      "byteOffset": 1171896,
      "componentType": 5126,
      "count": 29882,
      "max": [
        0.9999250173568726,
        0.9996804594993591,
        0.9999982118606567
      ],
      "min": [
        -0.9961348176002502,
        -1.0,
        -0.9999982714653015
      ],
      "type": "VEC3"
    },
    {
      "bufferView": 1,
      "byteOffset": 271104,
      "componentType": 5126,
      "count": 29882,
      "max": [
        0.8750001192092896,
        1.0000001192092896
      ],
      "min": [
        0.1249999925494194,
        0.0
      ],
      "type": "VEC2"
    },
    {
      "bufferView": 0,
      "byteOffset": 643584,
      "componentType": 5125,
      "count": 143616,
      "type": "SCALAR"
    },
    {
      "bufferView": 2,
      "byteOffset": 1530480,
      "componentType": 5126,
      "count": 11641,
      "max": [
        -0.43741437792778015,
        5.272157192230225,
        2.2647604942321777
      ],
      "min": [
        -4.785198211669922,
        -5.272157192230225,
        -5.532123565673828
      ],
      "type": "VEC3"
    },
    {
      "bufferView": 2,
      "byteOffset": 1670172,
      "componentType": 5126,
      "count": 11641,
      "max": [
        1.0,
        1.0,
        1.0
      ],
      "min": [
        -1.0,
        -1.0,
        -1.0
      ],
      "type": "VEC3"
    },
    {
      "bufferView": 1,
      "byteOffset": 510160,
      "componentType": 5126,
      "count": 11641,
      "max": [
        0.8750001192092896,
        1.0000001192092896
      ],
      "min": [
        0.125,
        0.0
      ],
      "type": "VEC2"
    },
    {
      "bufferView": 0,
      "byteOffset": 1218048,
      "componentType": 5125,
      "count": 54528,
      "type": "SCALAR"
    },
    {
      "bufferView": 2,
      "byteOffset": 1809864,
      "componentType": 5126,
      "count": 4492,
      "max": [
        -2.420794725418091,
        2.9161152839660645,
        0.3743835687637329
      ],
      "min": [
        -4.800397872924805,
        -2.9161152839660645,
        -1.4374562501907349
      ],
      "type": "VEC3"
    },
    {
      "bufferView": 2,
      "byteOffset": 1863768,
      "componentType": 5126,
      "count": 4492,
      "max": [
        0.9987933039665222,
        0.9999909400939941,
        0.9993666410446167
      ],
      "min": [
        -0.9987934231758118,
        -0.9999909400939941,
        -0.9993666410446167
      ],
      "type": "VEC3"
    },
    {
      "bufferView": 0,
      "byteOffset": 1436160,
      "componentType": 5125,
      "count": 18432,
      "type": "SCALAR"
    },
    {
      "bufferView": 2,
      "byteOffset": 1917672,
      "componentType": 5126,
      "count": 7448,
      "max": [
        0.3570128381252289,
        3.1427409648895264,
        1.6428732872009277
      ],
      "min": [
        -0.35424619913101196,
        -3.1427412033081055,
        0.8259808421134949
      ],
      "type": "VEC3"
    },
    {
      "bufferView": 2,
      "byteOffset": 2007048,
      "componentType": 5126,
      "count": 7448,
      "max": [
        1.0,
        0.9999678730964661,
        0.999997079372406
      ],
      "min": [
        -1.0,
        -0.9999681711196899,
        -0.9980688691139221
      ],
      "type": "VEC3"
    },
    {
      "bufferView": 1,
      "byteOffset": 603288,
      "componentType": 5126,
      "count": 7448,
      "max": [
        1.0000001192092896,
        1.0000001192092896
      ],
      "min": [
        0.0,
        0.009999946691095829
      ],
      "type": "VEC2"
    },
    {
      "bufferView": 0,
      "byteOffset": 1509888,
      "componentType": 5125,
      "count": 35328,
      "type": "SCALAR"
    },
    {
      "bufferView": 2,
      "byteOffset": 2096424,
      "componentType": 5126,
      "count": 382,
      "max": [
        0.7632504105567932,
        2.6444091796875,
        0.32306981086730957
      ],
      "min": [
        -0.7633638381958008,
        -2.6444091796875,
        -1.211578607559204
      ],
      "type": "VEC3"
    },
    {
      "bufferView": 2,
      "byteOffset": 2101008,
      "componentType": 5126,
      "count": 382,
      "max": [
        1.0,
        0.9752042293548584,
        0.9892686605453491
      ],
      "min": [
        -1.0,
        -0.9752042889595032,
        -0.9870113134384155
      ],
      "type": "VEC3"
    },
    {
      "bufferView": 1,
      "byteOffset": 662872,
      "componentType": 5126,
      "count": 382,
      "max": [
        0.8331791162490845,
        1.0
      ],
      "min": [
        0.16148218512535095,
        0.0
      ],
      "type": "VEC2"
    },
    {
      "bufferView": 0,
      "byteOffset": 1651200,
      "componentType": 5125,
      "count": 1248,
      "type": "SCALAR"
    },
    {
      "bufferView": 2,
      "byteOffset": 2105592,
      "componentType": 5126,
      "count": 472,
      "max": [
        -0.14687669277191162,
        4.139338970184326,
        1.0777512788772583
      ],
      "min": [
        -2.113861560821533,
        -4.139338970184326,
        -0.9895215034484863
      ],
      "type": "VEC3"
    },
    {
      "bufferView": 2,
      "byteOffset": 2111256,
      "componentType": 5126,
      "count": 472,
      "max": [
        0.766375720500946,
        0.991237461566925,
        0.7519513964653015
      ],
      "min": [
        -0.8040950298309326,
        -0.9912375211715698,
        -0.7523630261421204
      ],
      "type": "VEC3"
    },
    {
      "bufferView": 1,
      "byteOffset": 665928,
      "componentType": 5126,
      "count": 472,
      "max": [
        0.875358521938324,
        0.9827991724014282
      ],
      "min": [
        0.125,
        0.0
      ],
      "type": "VEC2"
    },
    {
      "bufferView": 0,
      "byteOffset": 1656192,
      "componentType": 5125,
      "count": 840,
      "type": "SCALAR"
    },
    {
      "bufferView": 2,
      "byteOffset": 2116920,
      "componentType": 5126,
      "count": 792,
      "max": [
        0.3238215446472168,
        3.0618648529052734,
        1.5930732488632202
      ],
      "min": [
        -0.3190203905105591,
        -3.0618648529052734,
        0.854728639125824
      ],
      "type": "VEC3"
    },
    {
      "bufferView": 2,
      "byteOffset": 2126424,
      "componentType": 5126,
      "count": 792,
      "max": [
        1.0,
        0.26847171783447266,
        0.9632955193519592
      ],
      "min": [
        -1.0,
        -0.26847171783447266,
        -0.9632955193519592
      ],
      "type": "VEC3"
    },
    {
      "bufferView": 1,
      "byteOffset": 669704,
      "componentType": 5126,
      "count": 792,
      "max": [
        1.0000001192092896,
        1.0000001192092896
      ],
      "min": [
        0.0,
        0.5000000596046448
      ],
      "type": "VEC2"
    },
    {
      "bufferView": 0,
      "byteOffset": 1659552,
      "componentType": 5125,
      "count": 3072,
      "type": "SCALAR"
    },
    {
      "bufferView": 2,
      "byteOffset": 2135928,
      "componentType": 5126,
      "count": 1838,
      "max": [
        0.4158610701560974,
        2.047304391860962,
        0.9909259080886841
      ],
      "min": [
        -0.4793259799480438,
        -2.047304391860962,
        0.07668298482894897
      ],
      "type": "VEC3"
    },
    {
      "bufferView": 2,
      "byteOffset": 2157984,
      "componentType": 5126,
      "count": 1838,
      "max": [
        0.9962520599365234,
        0.9995759725570679,
        0.971548855304718
      ],
      "min": [
        -0.999937117099762,
        -0.9995758533477783,
        -0.97523033618927
      ],
      "type": "VEC3"
    },
    {
      "bufferView": 1,
      "byteOffset": 676040,
      "componentType": 5126,
      "count": 1838,
      "max": [
        1.0,
        1.0
      ],
      "min": [
        0.0,
        0.01000000536441803
      ],
      "type": "VEC2"
    },
    {
      "bufferView": 0,
      "byteOffset": 1671840,
      "componentType": 5125,
      "count": 4776,
      "type": "SCALAR"
    },
    {
      "bufferView": 2,
      "byteOffset": 2180040,
      "componentType": 5126,
      "count": 11752,
      "max": [
        -7.064519882202148,
        17.07646369934082,
        -0.3138047158718109
      ],
      "min": [
        -10.671074867248535,
        -17.07646369934082,
        -1.7039238214492798
      ],
      "type": "VEC3"
    },
    {
      "bufferView": 2,
      "byteOffset": 2321064,
      "componentType": 5126,
      "count": 11752,
      "max": [
        0.9964878559112549,
        0.9999889135360718,
        0.9977017641067505
      ],
      "min": [
        -0.9989175200462341,
        -0.9999886751174927,
        -0.9976997375488281
      ],
      "type": "VEC3"
    },
    {
      "bufferView": 1,
      "byteOffset": 690744,
      "componentType": 5126,
      "count": 11752,
      "max": [
        1.0000001192092896,
        1.0000001192092896
      ],
      "min": [
        0.0,
        0.5000000596046448
      ],
      "type": "VEC2"
    },
    {
      "bufferView": 0,
      "byteOffset": 1690944,
      "componentType": 5125,
      "count": 58368,
      "type": "SCALAR"
    },
    {
      "bufferView": 2,
      "byteOffset": 2462088,
      "componentType": 5126,
      "count": 11752,
      "max": [
        -6.1556878089904785,
        17.687461853027344,
        -1.747074842453003
      ],
      "min": [
        -6.967209815979004,
        -17.687461853027344,
        -3.634617567062378
      ],
      "type": "VEC3"
    },
    {
      "bufferView": 2,
      "byteOffset": 2603112,
      "componentType": 5126,
      "count": 11752,
      "max": [
        0.9998040199279785,
        0.999977707862854,
        0.9999654293060303
      ],
      "min": [
        -0.9999494552612305,
        -0.9999788999557495,
        -0.9999654293060303
      ],
      "type": "VEC3"
    },
    {
      "bufferView": 1,
      "byteOffset": 784760,
      "componentType": 5126,
      "count": 11752,
      "max": [
        1.0000001192092896,
        1.0000001192092896
      ],
      "min": [
        0.0,
        0.5000000596046448
      ],
      "type": "VEC2"
    },
    {
      "bufferView": 0,
      "byteOffset": 1924416,
      "componentType": 5125,
      "count": 58368,
      "type": "SCALAR"
    },
    {
      "bufferView": 2,
      "byteOffset": 2744136,
      "componentType": 5126,
      "count": 3082,
      "max": [
        -6.5764479637146,
        24.630163192749023,
        -1.0625628232955933
      ],
      "min": [
        -16.143983840942383,
        -24.63016128540039,
        -9.837282180786133
      ],
      "type": "VEC3"
    },
    {
      "bufferView": 2,
      "byteOffset": 2781120,
      "componentType": 5126,
      "count": 3082,
      "max": [
        0.9985665082931519,
        0.9995681047439575,
        0.996837317943573
      ],
      "min": [
        -0.9987429976463318,
        -0.9995679259300232,
        -0.9966523051261902
      ],
      "type": "VEC3"
    },
    {
      "bufferView": 1,
      "byteOffset": 878776,
      "componentType": 5126,
      "count": 3082,
      "max": [
        0.8750001192092896,
        1.0000001192092896
      ],
      "min": [
        0.125,
        0.0
      ],
      "type": "VEC2"
    },
    {
      "bufferView": 0,
      "byteOffset": 2157888,
      "componentType": 5125,
      "count": 14976,
      "type": "SCALAR"
    },
    {
      "bufferView": 2,
      "byteOffset": 2818104,
      "componentType": 5126,
      "count": 2950,
      "max": [
        -2.619882583618164,
        8.564790725708008,
        -0.8360733985900879
      ],
      "min": [
        -6.253332138061523,
        -8.564790725708008,
        -4.744229316711426
      ],
      "type": "VEC3"
    },
    {
      "bufferView": 2,
      "byteOffset": 2853504,
      "componentType": 5126,
      "count": 2950,
      "max": [
        1.0,
        0.994873046875,
        0.995685875415802
      ],
      "min": [
        -1.0,
        -0.9948729872703552,
        -0.9998412132263184
      ],
      "type": "VEC3"
    },
    {
      "bufferView": 1,
      "byteOffset": 903432,
      "componentType": 5126,
      "count": 2950,
      "max": [
        1.0,
        1.0
      ],
      "min": [
        0.0,
        0.01000000536441803
      ],
      "type": "VEC2"
    },
    {
      "bufferView": 0,
      "byteOffset": 2217792,
      "componentType": 5125,
      "count": 8808,
      "type": "SCALAR"
    },
    {
      "bufferView": 2,
      "byteOffset": 2888904,
      "componentType": 5126,
      "count": 5401,
      "max": [
        1.0604920387268066,
        1.4045971632003784,
        1.3496074676513672
      ],
      "min": [
        -1.0573123693466187,
        -1.4045971632003784,
        -1.1564898490905762
      ],
      "type": "VEC3"
    },
    {
      "bufferView": 2,
      "byteOffset": 2953716,
      "componentType": 5126,
      "count": 5401,
      "max": [
        1.0,
        1.0,
        1.0
      ],
      "min": [
        -1.0,
        -1.0,
        -1.0
      ],
      "type": "VEC3"
    },
    {
      "bufferView": 1,
      "byteOffset": 927032,
      "componentType": 5126,
      "count": 5401,
      "max": [
        1.0,
        1.000000238418579
      ],
      "min": [
        0.0,
        0.0
      ],
      "type": "VEC2"
    },
    {
      "bufferView": 0,
      "byteOffset": 2253024,
      "componentType": 5125,
      "count": 15012,
      "type": "SCALAR"
    },
    {
      "bufferView": 2,
      "byteOffset": 3018528,
      "componentType": 5126,
      "count": 6000,
      "max": [
        -1.1952331066131592,
        -0.21576771140098572,
        2.2737555503845215
      ],
      "min": [
        -2.4051642417907715,
        -1.4025315046310425,
        -2.2737555503845215
      ],
      "type": "VEC3"
    },
    {
      "bufferView": 2,
      "byteOffset": 3090528,
      "componentType": 5126,
      "count": 6000,
      "max": [
        0.9999997019767761,
        0.9999791979789734,
        0.9999130368232727
      ],
      "min": [
        -0.9999997615814209,
        -0.9999860525131226,
        -0.9999130964279175
      ],
      "type": "VEC3"
    },
    {
      "bufferView": 0,
      "byteOffset": 2313072,
      "componentType": 5125,
      "count": 23040,
      "type": "SCALAR"
    },
    {
      "bufferView": 2,
      "byteOffset": 3162528,
      "componentType": 5126,
      "count": 6402,
      "max": [
        -1.6131596565246582,
        -0.3273039758205414,
        3.0138256549835205
      ],
      "min": [
        -3.142080545425415,
        -1.8252627849578857,
        -3.0138256549835205
      ],
      "type": "VEC3"
    },
    {
      "bufferView": 2,
      "byteOffset": 3239352,
      "componentType": 5126,
      "count": 6402,
      "max": [
        1.0,
        0.9993710517883301,
        0.9993892908096313
      ],
      "min": [
        -1.0,
        -0.9993710517883301,
        -0.9993892908096313
      ],
      "type": "VEC3"
    },
    {
      "bufferView": 1,
      "byteOffset": 970240,
      "componentType": 5126,
      "count": 6402,
      "max": [
        1.0,
        1.0
      ],
      "min": [
        0.0,
        0.0
      ],
      "type": "VEC2"
    },
    {
      "bufferView": 0,
      "byteOffset": 2405232,
      "componentType": 5125,
      "count": 36864,
      "type": "SCALAR"
    },
    {
      "bufferView": 2,
      "byteOffset": 3316176,
      "componentType": 5126,
      "count": 65532,
      "max": [
        -1.5287944078445435,
        9.155279159545898,
        -1.7009801864624023
      ],
      "min": [
        -7.115862846374512,
        -9.154989242553711,
        -5.647697925567627
      ],
      "type": "VEC3"
    },
    {
      "bufferView": 2,
      "byteOffset": 4102560,
      "componentType": 5126,
      "count": 65532,
      "max": [
        1.0,
        0.9999257922172546,
        0.9999824166297913
      ],
      "min": [
        -1.0,
        -0.9998742938041687,
        -0.9999115467071533
      ],
      "type": "VEC3"
    },
    {
      "bufferView": 1,
      "byteOffset": 1021456,
      "componentType": 5126,
      "count": 65532,
      "max": [
        1.000000238418579,
        1.0000003576278687
      ],
      "min": [
        0.0,
        0.0
      ],
      "type": "VEC2"
    },
    {
      "bufferView": 0,
      "byteOffset": 2552688,
      "componentType": 5125,
      "count": 347775,
      "type": "SCALAR"
    },
    {
      "bufferView": 2,
      "byteOffset": 4888944,
      "componentType": 5126,
      "count": 65532,
      "max": [
        -1.5287944078445435,
        9.154989242553711,
        -1.7009801864624023
      ],
      "min": [
        -7.1158623695373535,
        -9.155279159545898,
        -5.647697925567627
      ],
      "type": "VEC3"
    },
    {
      "bufferView": 2,
      "byteOffset": 5675328,
      "componentType": 5126,
      "count": 65532,
      "max": [
        1.0,
        0.9999656677246094,
        0.999835193157196
      ],
      "min": [
        -1.0,
        -0.9999656677246094,
        -0.9999114274978638
      ],
      "type": "VEC3"
    },
    {
      "bufferView": 1,
      "byteOffset": 1545712,
      "componentType": 5126,
      "count": 65532,
      "max": [
        1.0000001192092896,
        1.000000238418579
      ],
      "min": [
        0.0,
        0.0
      ],
      "type": "VEC2"
    },
    {
      "bufferView": 0,
      "byteOffset": 3943788,
      "componentType": 5125,
      "count": 323526,
      "type": "SCALAR"
    },
    {
      "bufferView": 2,
      "byteOffset": 6461712,
      "componentType": 5126,
      "count": 34683,
      "max": [
        -1.5287944078445435,
        9.154946327209473,
        -1.7009801864624023
      ],
      "min": [
        -7.083143711090088,
        5.419228553771973,
        -5.603829383850098
      ],
      "type": "VEC3"
    },
    {
      "bufferView": 2,
      "byteOffset": 6877908,
      "componentType": 5126,
      "count": 34683,
      "max": [
        1.0,
        0.9989619255065918,
        0.9999823570251465
      ],
      "min": [
        -1.0,
        -0.9998832941055298,
        -0.9998570084571838
      ],
      "type": "VEC3"
    },
    {
      "bufferView": 1,
      "byteOffset": 2069968,
      "componentType": 5126,
      "count": 34683,
      "max": [
        1.0000001192092896,
        1.0000003576278687
      ],
      "min": [
        0.0,
        0.025176625698804855
      ],
      "type": "VEC2"
    },
    {
      "bufferView": 0,
      "byteOffset": 5237892,
      "componentType": 5125,
      "count": 170427,
      "type": "SCALAR"
    },
    {
      "bufferView": 2,
      "byteOffset": 7294104,
      "componentType": 5126,
      "count": 65,
      "max": [
        1.0369197130203247,
        1.0369197130203247,
        3.5778985023498535
      ],
      "min": [
        -1.0369197130203247,
        -1.0369197130203247,
        -0.9099765419960022
      ],
      "type": "VEC3"
    },
    {
      "bufferView": 2,
      "byteOffset": 7294884,
      "componentType": 5126,
      "count": 65,
      "max": [
        0.9743314981460571,
        0.9743314385414124,
        1.0
      ],
      "min": [
        -0.9743314981460571,
        -0.9743314385414124,
        -1.0
      ],
      "type": "VEC3"
    },
    {
      "bufferView": 1,
      "byteOffset": 2347432,
      "componentType": 5126,
      "count": 65,
      "max": [
        0.9900000095367432,
        0.49000000953674316
      ],
      "min": [
        0.01000000536441803,
        0.01000000536441803
      ],
      "type": "VEC2"
    },
    {
      "bufferView": 0,
      "byteOffset": 5919600,
      "componentType": 5125,
      "count": 186,
      "type": "SCALAR"
    },
    {
      "bufferView": 2,
      "byteOffset": 7295664,
      "componentType": 5126,
      "count": 491,
      "max": [
        5.065804481506348,
        -0.4573545455932617,
        17.238399505615234
      ],
      "min": [
        -4.4561967849731445,
        -9.92786979675293,
        -0.3052985668182373
      ],
      "type": "VEC3"
    },
    {
      "bufferView": 2,
      "byteOffset": 7301556,
      "componentType": 5126,
      "count": 491,
      "max": [
        0.9699195623397827,
        0.9699760675430298,
        0.9598702192306519
      ],
      "min": [
        -0.9700188636779785,
        -0.9700324535369873,
        -0.6574773192405701
      ],
      "type": "VEC3"
    },
    {
      "bufferView": 1,
      "byteOffset": 2347952,
      "componentType": 5126,
      "count": 491,
      "max": [
        6.0,
        1.0
      ],
      "min": [
        0.0,
        0.0
      ],
      "type": "VEC2"
    },
    {
      "bufferView": 0,
      "byteOffset": 5920344,
      "componentType": 5125,
      "count": 1434,
      "type": "SCALAR"
    },
    {
      "bufferView": 2,
      "byteOffset": 7307448,
      "componentType": 5126,
      "count": 65532,
      "max": [
        1.4900267124176025,
        1.524516224861145,
        1.5245035886764526
      ],
      "min": [
        -1.1230213642120361,
        -1.524516224861145,
        -1.5245035886764526
      ],
      "type": "VEC3"
    },
    {
      "bufferView": 2,
      "byteOffset": 8093832,
      "componentType": 5126,
      "count": 65532,
      "max": [
        1.0,
        0.9999526739120483,
        0.9999526739120483
      ],
      "min": [
        -1.0,
        -0.9999526739120483,
        -0.9999526739120483
      ],
      "type": "VEC3"
    },
    {
      "bufferView": 1,
      "byteOffset": 2351880,
      "componentType": 5126,
      "count": 65532,
      "max": [
        0.8750001192092896,
        0.7583810091018677
      ],
      "min": [
        0.485375314950943,
        0.12494863569736481
      ],
      "type": "VEC2"
    },
    {
      "bufferView": 0,
      "byteOffset": 5926080,
      "componentType": 5125,
      "count": 356448,
      "type": "SCALAR"
    },
    {
      "bufferView": 2,
      "byteOffset": 8880216,
      "componentType": 5126,
      "count": 43872,
      "max": [
        1.4900267124176025,
        1.0593247413635254,
        1.5245035886764526
      ],
      "min": [
        -1.1230213642120361,
        -1.524516224861145,
        -1.0199480056762695
      ],
      "type": "VEC3"
    },
    {
      "bufferView": 2,
      "byteOffset": 9406680,
      "componentType": 5126,
      "count": 43872,
      "max": [
        0.9999991655349731,
        0.9957967400550842,
        0.9995379447937012
      ],
      "min": [
        -0.9999992847442627,
        -0.9995332956314087,
        -0.9995397329330444
      ],
      "type": "VEC3"
    },
    {
      "bufferView": 1,
      "byteOffset": 2876136,
      "componentType": 5126,
      "count": 43872,
      "max": [
        0.8750001192092896,
        0.7583810091018677
      ],
      "min": [
        0.485375314950943,
        0.12494863569736481
      ],
      "type": "VEC2"
    },
    {
      "bufferView": 0,
      "byteOffset": 7351872,
      "componentType": 5125,
      "count": 231456,
      "type": "SCALAR"
    },
    {
      "bufferView": 2,
      "byteOffset": 9933144,
      "componentType": 5126,
      "count": 65532,
      "max": [
        3.5755975246429443,
        1.1155043840408325,
        1.8555724620819092
      ],
      "min": [
        -1.616991639137268,
        -1.115504503250122,
        -2.6763978004455566
      ],
      "type": "VEC3"
    },
    {
      "bufferView": 2,
      "byteOffset": 10719528,
      "componentType": 5126,
      "count": 65532,
      "max": [
        1.0,
        1.0,
        1.0
      ],
      "min": [
        -1.0,
        -1.0,
        -1.0
      ],
      "type": "VEC3"
    },
    {
      "bufferView": 1,
      "byteOffset": 3227112,
      "componentType": 5126,
      "count": 65532,
      "max": [
        0.8750001788139343,
        0.6250000596046448
      ],
      "min": [
        0.4997974932193756,
        0.1250000298023224
      ],
      "type": "VEC2"
    },
    {
      "bufferView": 0,
      "byteOffset": 8277696,
      "componentType": 5125,
      "count": 352614,
      "type": "SCALAR"
    },
    {
      "bufferView": 2,
      "byteOffset": 11505912,
      "componentType": 5126,
      "count": 54345,
      "max": [
        3.5755975246429443,
        1.115504503250122,
        2.6763978004455566
      ],
      "min": [
        -1.616991639137268,
        -1.1084141731262207,
        -2.6763978004455566
      ],
      "type": "VEC3"
    },
    {
      "bufferView": 2,
      "byteOffset": 12158052,
      "componentType": 5126,
      "count": 54345,
      "max": [
        1.0,
        1.0,
        1.0
      ],
      "min": [
        -1.0,
        -1.0,
        -1.0
      ],
      "type": "VEC3"
    },
    {
      "bufferView": 1,
      "byteOffset": 3751368,
      "componentType": 5126,
      "count": 54345,
      "max": [
        0.8750001788139343,
        0.6250000596046448
      ],
      "min": [
        0.4997974932193756,
        0.1250000298023224
      ],
      "type": "VEC2"
    },
    {
      "bufferView": 0,
      "byteOffset": 9688152,
      "componentType": 5125,
      "count": 287898,
      "type": "SCALAR"
    },
    {
      "bufferView": 2,
      "byteOffset": 12810192,
      "componentType": 5126,
      "count": 11378,
      "max": [
        1.1414635181427002,
        0.9857041239738464,
        2.3064427375793457
      ],
      "min": [
        -1.153316617012024,
        -0.8192867040634155,
        -2.576136827468872
      ],
      "type": "VEC3"
    },
    {
      "bufferView": 2,
      "byteOffset": 12946728,
      "componentType": 5126,
      "count": 11378,
      "max": [
        0.9987669587135315,
        0.9998576641082764,
        0.9986637234687805
      ],
      "min": [
        -0.9997103214263916,
        -0.9999526739120483,
        -0.9992846250534058
      ],
      "type": "VEC3"
    },
    {
      "bufferView": 1,
      "byteOffset": 4186128,
      "componentType": 5126,
      "count": 11378,
      "max": [
        0.6250001192092896,
        1.0000001192092896
      ],
      "min": [
        0.125,
        0.003787865862250328
      ],
      "type": "VEC2"
    },
    {
      "bufferView": 0,
      "byteOffset": 10839744,
      "componentType": 5125,
      "count": 61632,
      "type": "SCALAR"
    },
    {
      "bufferView": 2,
      "byteOffset": 13083264,
      "componentType": 5126,
      "count": 11380,
      "max": [
        1.118151307106018,
        0.7676500082015991,
        2.312204360961914
      ],
      "min": [
        -1.1767536401748657,
        -0.9444202184677124,
        -2.5850930213928223
      ],
      "type": "VEC3"
    },
    {
      "bufferView": 2,
      "byteOffset": 13219824,
      "componentType": 5126,
      "count": 11380,
      "max": [
        0.9988124966621399,
        0.9999598264694214,
        0.9975301623344421
      ],
      "min": [
        -0.9997628927230835,
        -0.999991774559021,
        -0.9997026920318604
      ],
      "type": "VEC3"
    },
    {
      "bufferView": 1,
      "byteOffset": 4277152,
      "componentType": 5126,
      "count": 11380,
      "max": [
        0.6250001192092896,
        1.0000001192092896
      ],
      "min": [
        0.125,
        0.003787865862250328
      ],
      "type": "VEC2"
    },
    {
      "bufferView": 0,
      "byteOffset": 11086272,
      "componentType": 5125,
      "count": 61632,
      "type": "SCALAR"
    },
    {
      "bufferView": 2,
      "byteOffset": 13356384,
      "componentType": 5126,
      "count": 3808,
      "max": [
        1.0000001192092896,
        1.0000001192092896,
        1.0000001192092896
      ],
      "min": [
        -1.0000001192092896,
        -1.0000001192092896,
        -1.0000001192092896
      ],
      "type": "VEC3"
    },
    {
      "bufferView": 2,
      "byteOffset": 13402080,
      "componentType": 5126,
      "count": 3808,
      "max": [
        1.0,
        1.0,
        1.0
      ],
      "min": [
        -1.0,
        -1.0,
        -1.0
      ],
      "type": "VEC3"
    },
    {
      "bufferView": 1,
      "byteOffset": 4368192,
      "componentType": 5126,
      "count": 3808,
      "max": [
        0.8750001192092896,
        1.0000001192092896
      ],
      "min": [
        0.125,
        0.0
      ],
      "type": "VEC2"
    },
    {
      "bufferView": 0,
      "byteOffset": 11332800,
      "componentType": 5125,
      "count": 20160,
      "type": "SCALAR"
    },
    {
      "bufferView": 2,
      "byteOffset": 13447776,
      "componentType": 5126,
      "count": 54174,
      "max": [
        1.3931652307510376,
        3.7772765159606934,
        2.0369527339935303
      ],
      "min": [
        -1.0000001192092896,
        -3.7772765159606934,
        -1.0000001192092896
      ],
      "type": "VEC3"
    },
    {
      "bufferView": 2,
      "byteOffset": 14097864,
      "componentType": 5126,
      "count": 54174,
      "max": [
        1.0,
        1.0,
        1.0
      ],
      "min": [
        -1.0,
        -1.0,
        -1.0
      ],
      "type": "VEC3"
    },
    {
      "bufferView": 1,
      "byteOffset": 4398656,
      "componentType": 5126,
      "count": 54174,
      "max": [
        0.8750001788139343,
        1.0000001192092896
      ],
      "min": [
        0.125,
        0.0
      ],
      "type": "VEC2"
    },
    {
      "bufferView": 0,
      "byteOffset": 11413440,
      "componentType": 5125,
      "count": 277536,
      "type": "SCALAR"
    },
    {
      "bufferView": 2,
      "byteOffset": 14747952,
      "componentType": 5126,
      "count": 13216,
      "max": [
        1.0000001192092896,
        1.0000001192092896,
        1.0000008344650269
      ],
      "min": [
        -1.1941239833831787,
        -1.0000001192092896,
        -1.0000001192092896
      ],
      "type": "VEC3"
    },
    {
      "bufferView": 2,
      "byteOffset": 14906544,
      "componentType": 5126,
      "count": 13216,
      "max": [
        1.0,
        1.0,
        1.0
      ],
      "min": [
        -1.0,
        -1.0,
        -1.0
      ],
      "type": "VEC3"
    },
    {
      "bufferView": 1,
      "byteOffset": 4832048,
      "componentType": 5126,
      "count": 13216,
      "max": [
        0.8750001192092896,
        1.0000001192092896
      ],
      "min": [
        0.125,
        0.0
      ],
      "type": "VEC2"
    },
    {
      "bufferView": 0,
      "byteOffset": 12523584,
      "componentType": 5125,
      "count": 67392,
      "type": "SCALAR"
    },
    {
      "bufferView": 2,
      "byteOffset": 15065136,
      "componentType": 5126,
      "count": 14931,
      "max": [
        1.929854154586792,
        1.2462818622589111,
        1.1360198259353638
      ],
      "min": [
        -2.052595376968384,
        -1.2462818622589111,
        -1.3326466083526611
      ],
      "type": "VEC3"
    },
    {
      "bufferView": 2,
      "byteOffset": 15244308,
      "componentType": 5126,
      "count": 14931,
      "max": [
        1.0,
        1.0,
        1.0
      ],
      "min": [
        -1.0,
        -1.0,
        -1.0
      ],
      "type": "VEC3"
    },
    {
      "bufferView": 1,
      "byteOffset": 4937776,
      "componentType": 5126,
      "count": 14931,
      "max": [
        0.8750001192092896,
        1.0000001192092896
      ],
      "min": [
        0.125,
        0.0
      ],
      "type": "VEC2"
    },
    {
      "bufferView": 0,
      "byteOffset": 12793152,
      "componentType": 5125,
      "count": 73824,
      "type": "SCALAR"
    },
    {
      "bufferView": 2,
      "byteOffset": 15423480,
      "componentType": 5126,
      "count": 13526,
      "max": [
        1.0004334449768066,
        1.4002478122711182,
        1.000369906425476
      ],
      "min": [
        -0.9999999403953552,
        -1.4002478122711182,
        -1.2009495496749878
      ],
      "type": "VEC3"
    },
    {
      "bufferView": 2,
      "byteOffset": 15585792,
      "componentType": 5126,
      "count": 13526,
      "max": [
        1.0,
        1.0,
        1.0
      ],
      "min": [
        -1.0,
        -1.0,
        -1.0
      ],
      "type": "VEC3"
    },
    {
      "bufferView": 1,
      "byteOffset": 5057224,
      "componentType": 5126,
      "count": 13526,
      "max": [
        0.888020932674408,
        1.0000001192092896
      ],
      "min": [
        0.049479175359010696,
        0.0
      ],
      "type": "VEC2"
    },
    {
      "bufferView": 0,
      "byteOffset": 13088448,
      "componentType": 5125,
      "count": 63840,
      "type": "SCALAR"
    },
    {
      "bufferView": 2,
      "byteOffset": 15748104,
      "componentType": 5126,
      "count": 17800,
      "max": [
        1.0000001192092896,
        1.0000001192092896,
        0.6375574469566345
      ],
      "min": [
        -1.1941241025924683,
        -1.0000001192092896,
        -1.0000001192092896
      ],
      "type": "VEC3"
    },
    {
      "bufferView": 2,
      "byteOffset": 15961704,
      "componentType": 5126,
      "count": 17800,
      "max": [
        1.0,
        1.0,
        1.0
      ],
      "min": [
        -1.0,
        -1.0,
        -1.0
      ],
      "type": "VEC3"
    },
    {
      "bufferView": 1,
      "byteOffset": 5165432,
      "componentType": 5126,
      "count": 17800,
      "max": [
        0.8750001192092896,
        1.0000001192092896
      ],
      "min": [
        0.125,
        0.0
      ],
      "type": "VEC2"
    },
    {
      "bufferView": 0,
      "byteOffset": 13343808,
      "componentType": 5125,
      "count": 88512,
      "type": "SCALAR"
    },
    {
      "bufferView": 2,
      "byteOffset": 16175304,
      "componentType": 5126,
      "count": 10688,
      "max": [
        -0.5244589447975159,
        2.136528491973877,
        0.7560427188873291
      ],
      "min": [
        -2.0464751720428467,
        -2.136528491973877,
        -1.3420275449752808
      ],
      "type": "VEC3"
    },
    {
      "bufferView": 2,
      "byteOffset": 16303560,
      "componentType": 5126,
      "count": 10688,
      "max": [
        1.0,
        1.0,
        1.0
      ],
      "min": [
        -1.0,
        -1.0,
        -1.0
      ],
      "type": "VEC3"
    },
    {
      "bufferView": 1,
      "byteOffset": 5307832,
      "componentType": 5126,
      "count": 10688,
      "max": [
        1.0000001192092896,
        1.0000001192092896
      ],
      "min": [
        0.0,
        0.010000006295740604
      ],
      "type": "VEC2"
    },
    {
      "bufferView": 0,
      "byteOffset": 13697856,
      "componentType": 5125,
      "count": 50688,
      "type": "SCALAR"
    },
    {
      "bufferView": 2,
      "byteOffset": 16431816,
      "componentType": 5126,
      "count": 11346,
      "max": [
        -1.6509653329849243,
        1.9525625705718994,
        0.2039213329553604
      ],
      "min": [
        -2.5795960426330566,
        -1.9525625705718994,
        -1.0761775970458984
      ],
      "type": "VEC3"
    },
    {
      "bufferView": 2,
      "byteOffset": 16567968,
      "componentType": 5126,
      "count": 11346,
      "max": [
        1.0,
        1.0,
        1.0
      ],
      "min": [
        -1.0,
        -1.0,
        -1.0
      ],
      "type": "VEC3"
    },
    {
      "bufferView": 1,
      "byteOffset": 5393336,
      "componentType": 5126,
      "count": 11346,
      "max": [
        1.0000001192092896,
        1.0000001192092896
      ],
      "min": [
        0.0,
        0.010000006295740604
      ],
      "type": "VEC2"
    },
    {
      "bufferView": 0,
      "byteOffset": 13900608,
      "componentType": 5125,
      "count": 53760,
      "type": "SCALAR"
    },
    {
      "bufferView": 2,
      "byteOffset": 16704120,
      "componentType": 5126,
      "count": 11109,
      "max": [
        -2.0391361713409424,
        2.527632236480713,
        0.2573266625404358
      ],
      "min": [
        -2.59429931640625,
        -2.527632236480713,
        -1.060655951499939
      ],
      "type": "VEC3"
    },
    {
      "bufferView": 2,
      "byteOffset": 16837428,
      "componentType": 5126,
      "count": 11109,
      "max": [
        1.0,
        1.0,
        1.0
      ],
      "min": [
        -1.0,
        -1.0,
        -1.0
      ],
      "type": "VEC3"
    },
    {
      "bufferView": 1,
      "byteOffset": 5484104,
      "componentType": 5126,
      "count": 11109,
      "max": [
        1.0000001192092896,
        1.0000001192092896
      ],
      "min": [
        0.0,
        0.010000006295740604
      ],
      "type": "VEC2"
    },
    {
      "bufferView": 0,
      "byteOffset": 14115648,
      "componentType": 5125,
      "count": 53760,
      "type": "SCALAR"
    },
    {
      "bufferView": 2,
      "byteOffset": 16970736,
      "componentType": 5126,
      "count": 705,
      "max": [
        0.965808629989624,
        0.965808629989624,
        0.9918860197067261
      ],
      "min": [
        -0.965808629989624,
        -0.9658087491989136,
        -0.9889296889305115
      ],
      "type": "VEC3"
    },
    {
      "bufferView": 2,
      "byteOffset": 16979196,
      "componentType": 5126,
      "count": 705,
      "max": [
        0.997361958026886,
        0.9973620176315308,
        1.0
      ],
      "min": [
        -0.9973620772361755,
        -0.9973620772361755,
        -1.0
      ],
      "type": "VEC3"
    },
    {
      "bufferView": 1,
      "byteOffset": 5572976,
      "componentType": 5126,
      "count": 705,
      "max": [
        1.0000001192092896,
        1.0000001192092896
      ],
      "min": [
        0.0,
        0.010000006295740604
      ],
      "type": "VEC2"
    },
    {
      "bufferView": 0,
      "byteOffset": 14330688,
      "componentType": 5125,
      "count": 2496,
      "type": "SCALAR"
    },
    {
      "bufferView": 2,
      "byteOffset": 16987656,
      "componentType": 5126,
      "count": 24,
      "max": [
        0.0,
        0.8089088201522827,
        0.07400369644165039
      ],
      "min": [
        -0.03999999910593033,
        -0.8089087009429932,
        -0.07400369644165039
      ],
      "type": "VEC3"
    },
    {
      "bufferView": 2,
      "byteOffset": 16987944,
      "componentType": 5126,
      "count": 24,
      "max": [
        1.0,
        0.9861539006233215,
        1.0
      ],
      "min": [
        -1.0,
        -0.9861540198326111,
        -1.0
      ],
      "type": "VEC3"
    },
    {
      "bufferView": 1,
      "byteOffset": 5578616,
      "componentType": 5126,
      "count": 24,
      "max": [
        0.4027777910232544,
        0.75
      ],
      "min": [
        0.375,
        0.5
      ],
      "type": "VEC2"
    },
    {
      "bufferView": 0,
      "byteOffset": 14340672,
      "componentType": 5125,
      "count": 36,
      "type": "SCALAR"
    },
    {
      "bufferView": 2,
      "byteOffset": 16988232,
      "componentType": 5126,
      "count": 24,
      "max": [
        0.0,
        0.6097960472106934,
        0.07400393486022949
      ],
      "min": [
        -0.03999999910593033,
        -0.6097960472106934,
        -0.07400381565093994
      ],
      "type": "VEC3"
    },
    {
      "bufferView": 2,
      "byteOffset": 16988520,
      "componentType": 5126,
      "count": 24,
      "max": [
        1.0,
        0.9861539006233215,
        1.0
      ],
      "min": [
        -1.0,
        -0.9861539006233215,
        -1.0
      ],
      "type": "VEC3"
    },
    {
      "bufferView": 1,
      "byteOffset": 5578808,
      "componentType": 5126,
      "count": 24,
      "max": [
        0.625,
        0.75
      ],
      "min": [
        0.5972222685813904,
        0.5
      ],
      "type": "VEC2"
    },
    {
      "bufferView": 0,
      "byteOffset": 14340816,
      "componentType": 5125,
      "count": 36,
      "type": "SCALAR"
    },
    {
      "bufferView": 2,
      "byteOffset": 16988808,
      "componentType": 5126,
      "count": 24,
      "max": [
        0.0,
        0.6595742702484131,
        0.07400393486022949
      ],
      "min": [
        -0.03999999910593033,
        -0.6595742702484131,
        -0.07400369644165039
      ],
      "type": "VEC3"
    },
    {
      "bufferView": 2,
      "byteOffset": 16989096,
      "componentType": 5126,
      "count": 24,
      "max": [
        1.0,
        0.9861538410186768,
        1.0
      ],
      "min": [
        -1.0,
        -0.9861538410186768,
        -1.0
      ],
      "type": "VEC3"
    },
    {
      "bufferView": 1,
      "byteOffset": 5579000,
      "componentType": 5126,
      "count": 24,
      "max": [
        0.569444477558136,
        0.75
      ],
      "min": [
        0.5416667461395264,
        0.5
      ],
      "type": "VEC2"
    },
    {
      "bufferView": 0,
      "byteOffset": 14340960,
      "componentType": 5125,
      "count": 36,
      "type": "SCALAR"
    },
    {
      "bufferView": 2,
      "byteOffset": 16989384,
      "componentType": 5126,
      "count": 24,
      "max": [
        0.0,
        0.7093524932861328,
        0.07400369644165039
      ],
      "min": [
        -0.03999999910593033,
        -0.7093524932861328,
        -0.07400393486022949
      ],
      "type": "VEC3"
    },
    {
      "bufferView": 2,
      "byteOffset": 16989672,
      "componentType": 5126,
      "count": 24,
      "max": [
        1.0,
        0.9861538410186768,
        1.0
      ],
      "min": [
        -1.0,
        -0.9861540794372559,
        -1.0
      ],
      "type": "VEC3"
    },
    {
      "bufferView": 1,
      "byteOffset": 5579192,
      "componentType": 5126,
      "count": 24,
      "max": [
        0.513888955116272,
        0.75
      ],
      "min": [
        0.4861111640930176,
        0.5
      ],
      "type": "VEC2"
    },
    {
      "bufferView": 0,
      "byteOffset": 14341104,
      "componentType": 5125,
      "count": 36,
      "type": "SCALAR"
    },
    {
      "bufferView": 2,
      "byteOffset": 16989960,
      "componentType": 5126,
      "count": 24,
      "max": [
        0.0,
        0.7591304779052734,
        0.07400393486022949
      ],
      "min": [
        -0.03999999910593033,
        -0.7591304779052734,
        -0.07400393486022949
      ],
      "type": "VEC3"
    },
    {
      "bufferView": 2,
      "byteOffset": 16990248,
      "componentType": 5126,
      "count": 24,
      "max": [
        1.0,
        0.9861540794372559,
        1.0
      ],
      "min": [
        -1.0,
        -0.9861540794372559,
        -1.0
      ],
      "type": "VEC3"
    },
    {
      "bufferView": 1,
      "byteOffset": 5579384,
      "componentType": 5126,
      "count": 24,
      "max": [
        0.4583333730697632,
        0.75
      ],
      "min": [
        0.4305555522441864,
        0.5
      ],
      "type": "VEC2"
    },
    {
      "bufferView": 0,
      "byteOffset": 14341248,
      "componentType": 5125,
      "count": 36,
      "type": "SCALAR"
    },
    {
      "bufferView": 2,
      "byteOffset": 16990536,
      "componentType": 5126,
      "count": 24,
      "max": [
        0.0,
        0.8089087009429932,
        0.07400369644165039
      ],
      "min": [
        -0.03999999910593033,
        -0.8089088201522827,
        -0.07400369644165039
      ],
      "type": "VEC3"
    },
    {
      "bufferView": 2,
      "byteOffset": 16990824,
      "componentType": 5126,
      "count": 24,
      "max": [
        1.0,
        0.9861540198326111,
        1.0
      ],
      "min": [
        -1.0,
        -0.9861539006233215,
        -1.0
      ],
      "type": "VEC3"
    },
    {
      "bufferView": 1,
      "byteOffset": 5579576,
      "componentType": 5126,
      "count": 24,
      "max": [
        0.4027777910232544,
        0.75
      ],
      "min": [
        0.375,
        0.5
      ],
      "type": "VEC2"
    },
    {
      "bufferView": 0,
      "byteOffset": 14341392,
      "componentType": 5125,
      "count": 36,
      "type": "SCALAR"
    },
    {
      "bufferView": 2,
      "byteOffset": 16991112,
      "componentType": 5126,
      "count": 24,
      "max": [
        0.0,
        0.6097960472106934,
        0.07400393486022949
      ],
      "min": [
        -0.03999999910593033,
        -0.6097960472106934,
        -0.07400381565093994
      ],
      "type": "VEC3"
    },
    {
      "bufferView": 2,
      "byteOffset": 16991400,
      "componentType": 5126,
      "count": 24,
      "max": [
        1.0,
        0.9861539006233215,
        1.0
      ],
      "min": [
        -1.0,
        -0.9861539006233215,
        -1.0
      ],
      "type": "VEC3"
    },
    {
      "bufferView": 1,
      "byteOffset": 5579768,
      "componentType": 5126,
      "count": 24,
      "max": [
        0.625,
        0.75
      ],
      "min": [
        0.5972222685813904,
        0.5
      ],
      "type": "VEC2"
    },
    {
      "bufferView": 0,
      "byteOffset": 14341536,
      "componentType": 5125,
      "count": 36,
      "type": "SCALAR"
    },
    {
      "bufferView": 2,
      "byteOffset": 16991688,
      "componentType": 5126,
      "count": 24,
      "max": [
        0.0,
        0.6595742702484131,
        0.07400393486022949
      ],
      "min": [
        -0.03999999910593033,
        -0.6595742702484131,
        -0.07400369644165039
      ],
      "type": "VEC3"
    },
    {
      "bufferView": 2,
      "byteOffset": 16991976,
      "componentType": 5126,
      "count": 24,
      "max": [
        1.0,
        0.9861538410186768,
        1.0
      ],
      "min": [
        -1.0,
        -0.9861538410186768,
        -1.0
      ],
      "type": "VEC3"
    },
    {
      "bufferView": 1,
      "byteOffset": 5579960,
      "componentType": 5126,
      "count": 24,
      "max": [
        0.569444477558136,
        0.75
      ],
      "min": [
        0.5416667461395264,
        0.5
      ],
      "type": "VEC2"
    },
    {
      "bufferView": 0,
      "byteOffset": 14341680,
      "componentType": 5125,
      "count": 36,
      "type": "SCALAR"
    },
    {
      "bufferView": 2,
      "byteOffset": 16992264,
      "componentType": 5126,
      "count": 24,
      "max": [
        0.0,
        0.7093524932861328,
        0.07400369644165039
      ],
      "min": [
        -0.03999999910593033,
        -0.7093524932861328,
        -0.07400393486022949
      ],
      "type": "VEC3"
    },
    {
      "bufferView": 2,
      "byteOffset": 16992552,
      "componentType": 5126,
      "count": 24,
      "max": [
        1.0,
        0.9861540794372559,
        1.0
      ],
      "min": [
        -1.0,
        -0.9861538410186768,
        -1.0
      ],
      "type": "VEC3"
    },
    {
      "bufferView": 1,
      "byteOffset": 5580152,
      "componentType": 5126,
      "count": 24,
      "max": [
        0.513888955116272,
        0.75
      ],
      "min": [
        0.4861111640930176,
        0.5
      ],
      "type": "VEC2"
    },
    {
      "bufferView": 0,
      "byteOffset": 14341824,
      "componentType": 5125,
      "count": 36,
      "type": "SCALAR"
    },
    {
      "bufferView": 2,
      "byteOffset": 16992840,
      "componentType": 5126,
      "count": 24,
      "max": [
        0.0,
        0.7591304779052734,
        0.07400393486022949
      ],
      "min": [
        -0.03999999910593033,
        -0.7591304779052734,
        -0.07400393486022949
      ],
      "type": "VEC3"
    },
    {
      "bufferView": 2,
      "byteOffset": 16993128,
      "componentType": 5126,
      "count": 24,
      "max": [
        1.0,
        0.9861540794372559,
        1.0
      ],
      "min": [
        -1.0,
        -0.9861540794372559,
        -1.0
      ],
      "type": "VEC3"
    },
    {
      "bufferView": 1,
      "byteOffset": 5580344,
      "componentType": 5126,
      "count": 24,
      "max": [
        0.4583333730697632,
        0.75
      ],
      "min": [
        0.4305555522441864,
        0.5
      ],
      "type": "VEC2"
    },
    {
      "bufferView": 0,
      "byteOffset": 14341968,
      "componentType": 5125,
      "count": 36,
      "type": "SCALAR"
    },
    {
      "bufferView": 2,
      "byteOffset": 16993416,
      "componentType": 5126,
      "count": 832,
      "max": [
        0.9023690223693848,
        0.9023690223693848,
        0.9814815521240234
      ],
      "min": [
        -0.9023690819740295,
        -0.9023690223693848,
        -0.9814814925193787
      ],
      "type": "VEC3"
    },
    {
      "bufferView": 2,
      "byteOffset": 17003400,
      "componentType": 5126,
      "count": 832,
      "max": [
        0.9802161455154419,
        0.9802161455154419,
        0.9961417317390442
      ],
      "min": [
        -0.9802162051200867,
        -0.9802161455154419,
        -0.9961417317390442
      ],
      "type": "VEC3"
    },
    {
      "bufferView": 1,
      "byteOffset": 5580536,
      "componentType": 5126,
      "count": 832,
      "max": [
        1.0000001192092896,
        1.0000001192092896
      ],
      "min": [
        0.0,
        0.010000006295740604
      ],
      "type": "VEC2"
    },
    {
      "bufferView": 0,
      "byteOffset": 14342112,
      "componentType": 5125,
      "count": 1248,
      "type": "SCALAR"
    }
  ],
  "asset": {
    "extras": {
      "author": "woodsquid (https://sketchfab.com/woodsquid)",
      "license": "CC-BY-4.0 (http://creativecommons.org/licenses/by/4.0/)",
      "source": "https://sketchfab.com/3d-models/scv-terran-starcraft-c7ecf57835e74a1f88f1c91e66c9dfbd",
      "title": "SCV Terran Starcraft"
    },
    "generator": "Sketchfab-12.67.0",
    "version": "2.0"
  },
  "bufferViews": [
    {
      "buffer": 0,
      "byteLength": 14347104,
      "name": "floatBufferViews",
      "target": 34963
    },
    {
      "buffer": 0,
      "byteLength": 5587192,
      "byteOffset": 14347104,
      "byteStride": 8,
      "name": "floatBufferViews",
      "target": 34962
    },
    {
      "buffer": 0,
      "byteLength": 17013384,
      "byteOffset": 19934296,
      "byteStride": 12,
      "name": "floatBufferViews",
      "target": 34962
    }
  ],
  "buffers": [
    {
      "byteLength": 36947680,
      "uri": "scene.bin"
    }
  ],
  "materials": [
    {
      "doubleSided": true,
      "name": "Scene_-_Root",
      "pbrMetallicRoughness": {
        "metallicFactor": 0.0,
        "roughnessFactor": 0.6
      }
    }
  ],
  "meshes": [
    {
      "name": "toes__0",
      "primitives": [
        {
          "attributes": {
            "NORMAL": 1,
            "POSITION": 0,
            "TEXCOORD_0": 2
          },
          "indices": 3,
          "material": 0,
          "mode": 4
        }
      ]
    },
    {
      "name": "hips__0",
      "primitives": [
        {
          "attributes": {
            "NORMAL": 5,
            "POSITION": 4,
            "TEXCOORD_0": 6
          },
          "indices": 7,
          "material": 0,
          "mode": 4
        }
      ]
    },
    {
      "name": "knees__0",
      "primitives": [
        {
          "attributes": {
            "NORMAL": 9,
            "POSITION": 8,
            "TEXCOORD_0": 10
          },
          "indices": 11,
          "material": 0,
          "mode": 4
        }
      ]
    },
    {
      "name": "knee joint__0",
      "primitives": [
        {
          "attributes": {
            "NORMAL": 13,
            "POSITION": 12,
            "TEXCOORD_0": 14
          },
          "indices": 15,
          "material": 0,
          "mode": 4
        }
      ]
    },
    {
      "name": "lower leg__0",
      "primitives": [
        {
          "attributes": {
            "NORMAL": 17,
            "POSITION": 16,
            "TEXCOORD_0": 18
          },
          "indices": 19,
          "material": 0,
          "mode": 4
        }
      ]
    },
    {
      "name": "upper leg__0",
      "primitives": [
        {
          "attributes": {
            "NORMAL": 21,
            "POSITION": 20,
            "TEXCOORD_0": 22
          },
          "indices": 23,
          "material": 0,
          "mode": 4
        }
      ]
    },
    {
      "name": "knee gear__0",
      "primitives": [
        {
          "attributes": {
            "NORMAL": 25,
            "POSITION": 24
          },
          "indices": 26,
          "material": 0,
          "mode": 4
        }
      ]
    },
    {
      "name": "shoulder joint__0",
      "primitives": [
        {
          "attributes": {
            "NORMAL": 28,
            "POSITION": 27,
            "TEXCOORD_0": 29
          },
          "indices": 30,
          "material": 0,
          "mode": 4
        }
      ]
    },
    {
      "name": "shoulder joint box__0",
      "primitives": [
        {
          "attributes": {
            "NORMAL": 32,
            "POSITION": 31,
            "TEXCOORD_0": 33
          },
          "indices": 34,
          "material": 0,
          "mode": 4
        }
      ]
    },
    {
      "name": "upper arm__0",
      "primitives": [
        {
          "attributes": {
            "NORMAL": 36,
            "POSITION": 35,
            "TEXCOORD_0": 37
          },
          "indices": 38,
          "material": 0,
          "mode": 4
        }
      ]
    },
    {
      "name": "shoulder joint pipes__0",
      "primitives": [
        {
          "attributes": {
            "NORMAL": 40,
            "POSITION": 39,
            "TEXCOORD_0": 41
          },
          "indices": 42,
          "material": 0,
          "mode": 4
        }
      ]
    },
    {
      "name": "shoulder rotator__0",
      "primitives": [
        {
          "attributes": {
            "NORMAL": 44,
            "POSITION": 43,
            "TEXCOORD_0": 45
          },
          "indices": 46,
          "material": 0,
          "mode": 4
        }
      ]
    },
    {
      "name": "elbow pipe2__0",
      "primitives": [
        {
          "attributes": {
            "NORMAL": 48,
            "POSITION": 47,
            "TEXCOORD_0": 49
          },
          "indices": 50,
          "material": 0,
          "mode": 4
        }
      ]
    },
    {
      "name": "elbow pipe1__0",
      "primitives": [
        {
          "attributes": {
            "NORMAL": 52,
            "POSITION": 51,
            "TEXCOORD_0": 53
          },
          "indices": 54,
          "material": 0,
          "mode": 4
        }
      ]
    },
    {
      "name": "elbow bit 1__0",
      "primitives": [
        {
          "attributes": {
            "NORMAL": 56,
            "POSITION": 55,
            "TEXCOORD_0": 57
          },
          "indices": 58,
          "material": 0,
          "mode": 4
        }
      ]
    },
    {
      "name": "elbow joint__0",
      "primitives": [
        {
          "attributes": {
            "NORMAL": 60,
            "POSITION": 59,
            "TEXCOORD_0": 61
          },
          "indices": 62,
          "material": 0,
          "mode": 4
        }
      ]
    },
    {
      "name": "drill box__0",
      "primitives": [
        {
          "attributes": {
            "NORMAL": 64,
            "POSITION": 63,
            "TEXCOORD_0": 65
          },
          "indices": 66,
          "material": 0,
          "mode": 4
        }
      ]
    },
    {
      "name": "elbow joint gear__0",
      "primitives": [
        {
          "attributes": {
            "NORMAL": 68,
            "POSITION": 67
          },
          "indices": 69,
          "material": 0,
          "mode": 4
        }
      ]
    },
    {
      "name": "elbow joint torus__0",
      "primitives": [
        {
          "attributes": {
            "NORMAL": 71,
            "POSITION": 70,
            "TEXCOORD_0": 72
          },
          "indices": 73,
          "material": 0,
          "mode": 4
        }
      ]
    },
    {
      "name": "funky connector__0",
      "primitives": [
        {
          "attributes": {
            "NORMAL": 75,
            "POSITION": 74,
            "TEXCOORD_0": 76
          },
          "indices": 77,
          "material": 0,
          "mode": 4
        }
      ]
    },
    {
      "name": "funky connector__0",
      "primitives": [
        {
          "attributes": {
            "NORMAL": 79,
            "POSITION": 78,
            "TEXCOORD_0": 80
          },
          "indices": 81,
          "material": 0,
          "mode": 4
        }
      ]
    },
    {
      "name": "funky connector__0",
      "primitives": [
        {
          "attributes": {
            "NORMAL": 83,
            "POSITION": 82,
            "TEXCOORD_0": 84
          },
          "indices": 85,
          "material": 0,
          "mode": 4
        }
      ]
    },
    {
      "name": "drill__0",
      "primitives": [
        {
          "attributes": {
            "NORMAL": 87,
            "POSITION": 86,
            "TEXCOORD_0": 88
          },
          "indices": 89,
          "material": 0,
          "mode": 4
        }
      ]
    },
    {
      "name": "drill bit__0",
      "primitives": [
        {
          "attributes": {
            "NORMAL": 91,
            "POSITION": 90,
            "TEXCOORD_0": 92
          },
          "indices": 93,
          "material": 0,
          "mode": 4
        }
      ]
    },
    {
      "name": "grabber1__0",
      "primitives": [
        {
          "attributes": {
            "NORMAL": 95,
            "POSITION": 94,
            "TEXCOORD_0": 96
          },
          "indices": 97,
          "material": 0,
          "mode": 4
        }
      ]
    },
    {
      "name": "grabber1__0",
      "primitives": [
        {
          "attributes": {
            "NORMAL": 99,
            "POSITION": 98,
            "TEXCOORD_0": 100
          },
          "indices": 101,
          "material": 0,
          "mode": 4
        }
      ]
    },
    {
      "name": "grabber2__0",
      "primitives": [
        {
          "attributes": {
            "NORMAL": 103,
            "POSITION": 102,
            "TEXCOORD_0": 104
          },
          "indices": 105,
          "material": 0,
          "mode": 4
        }
      ]
    },
    {
      "name": "grabber2__0",
      "primitives": [
        {
          "attributes": {
            "NORMAL": 107,
            "POSITION": 106,
            "TEXCOORD_0": 108
          },
          "indices": 109,
          "material": 0,
          "mode": 4
        }
      ]
    },
    {
      "name": "shoulders.001__0",
      "primitives": [
        {
          "attributes": {
            "NORMAL": 111,
            "POSITION": 110,
            "TEXCOORD_0": 112
          },
          "indices": 113,
          "material": 0,
          "mode": 4
        }
      ]
    },
    {
      "name": "shoulders.002__0",
      "primitives": [
        {
          "attributes": {
            "NORMAL": 115,
            "POSITION": 114,
            "TEXCOORD_0": 116
          },
          "indices": 117,
          "material": 0,
          "mode": 4
        }
      ]
    },
    {
      "name": "main torso__0",
      "primitives": [
        {
          "attributes": {
            "NORMAL": 119,
            "POSITION": 118,
            "TEXCOORD_0": 120
          },
          "indices": 121,
          "material": 0,
          "mode": 4
        }
      ]
    },
    {
      "name": "bottom rig__0",
      "primitives": [
        {
          "attributes": {
            "NORMAL": 123,
            "POSITION": 122,
            "TEXCOORD_0": 124
          },
          "indices": 125,
          "material": 0,
          "mode": 4
        }
      ]
    },
    {
      "name": "top torso__0",
      "primitives": [
        {
          "attributes": {
            "NORMAL": 127,
            "POSITION": 126,
            "TEXCOORD_0": 128
          },
          "indices": 129,
          "material": 0,
          "mode": 4
        }
      ]
    },
    {
      "name": "cockpit__0",
      "primitives": [
        {
          "attributes": {
            "NORMAL": 131,
            "POSITION": 130,
            "TEXCOORD_0": 132
          },
          "indices": 133,
          "material": 0,
          "mode": 4
        }
      ]
    },
    {
      "name": "rig-leg connector__0",
      "primitives": [
        {
          "attributes": {
            "NORMAL": 135,
            "POSITION": 134,
            "TEXCOORD_0": 136
          },
          "indices": 137,
          "material": 0,
          "mode": 4
        }
      ]
    },
    {
      "name": "top torso.001__0",
      "primitives": [
        {
          "attributes": {
            "NORMAL": 139,
            "POSITION": 138,
            "TEXCOORD_0": 140
          },
          "indices": 141,
          "material": 0,
          "mode": 4
        }
      ]
    },
    {
      "name": "booster1__0",
      "primitives": [
        {
          "attributes": {
            "NORMAL": 143,
            "POSITION": 142,
            "TEXCOORD_0": 144
          },
          "indices": 145,
          "material": 0,
          "mode": 4
        }
      ]
    },
    {
      "name": "booster2__0",
      "primitives": [
        {
          "attributes": {
            "NORMAL": 147,
            "POSITION": 146,
            "TEXCOORD_0": 148
          },
          "indices": 149,
          "material": 0,
          "mode": 4
        }
      ]
    },
    {
      "name": "booster3__0",
      "primitives": [
        {
          "attributes": {
            "NORMAL": 151,
            "POSITION": 150,
            "TEXCOORD_0": 152
          },
          "indices": 153,
          "material": 0,
          "mode": 4
        }
      ]
    },
    {
      "name": "light__0",
      "primitives": [
        {
          "attributes": {
            "NORMAL": 155,
            "POSITION": 154,
            "TEXCOORD_0": 156
          },
          "indices": 157,
          "material": 0,
          "mode": 4
        }
      ]
    },
    {
      "name": "top rig.001__0",
      "primitives": [
        {
          "attributes": {
            "NORMAL": 159,
            "POSITION": 158,
            "TEXCOORD_0": 160
          },
          "indices": 161,
          "material": 0,
          "mode": 4
        }
      ]
    },
    {
      "name": "top rig.002__0",
      "primitives": [
        {
          "attributes": {
            "NORMAL": 163,
            "POSITION": 162,
            "TEXCOORD_0": 164
          },
          "indices": 165,
          "material": 0,
          "mode": 4
        }
      ]
    },
    {
      "name": "top rig.003__0",
      "primitives": [
        {
          "attributes": {
            "NORMAL": 167,
            "POSITION": 166,
            "TEXCOORD_0": 168
          },
          "indices": 169,
          "material": 0,
          "mode": 4
        }
      ]
    },
    {
      "name": "top rig.004__0",
      "primitives": [
        {
          "attributes": {
            "NORMAL": 171,
            "POSITION": 170,
            "TEXCOORD_0": 172
          },
          "indices": 173,
          "material": 0,
          "mode": 4
        }
      ]
    },
    {
      "name": "top rig.005__0",
      "primitives": [
        {
          "attributes": {
            "NORMAL": 175,
            "POSITION": 174,
            "TEXCOORD_0": 176
          },
          "indices": 177,
          "material": 0,
          "mode": 4
        }
      ]
    },
    {
      "name": "top rig.006__0",
      "primitives": [
        {
          "attributes": {
            "NORMAL": 179,
            "POSITION": 178,
            "TEXCOORD_0": 180
          },
          "indices": 181,
          "material": 0,
          "mode": 4
        }
      ]
    },
    {
      "name": "top rig.007__0",
      "primitives": [
        {
          "attributes": {
            "NORMAL": 183,
            "POSITION": 182,
            "TEXCOORD_0": 184
          },
          "indices": 185,
          "material": 0,
          "mode": 4
        }
      ]
    },
    {
      "name": "top rig.008__0",
      "primitives": [
        {
          "attributes": {
            "NORMAL": 187,
            "POSITION": 186,
            "TEXCOORD_0": 188
          },
          "indices": 189,
          "material": 0,
          "mode": 4
        }
      ]
    },
    {
      "name": "top rig.009__0",
      "primitives": [
        {
          "attributes": {
            "NORMAL": 191,
            "POSITION": 190,
            "TEXCOORD_0": 192
          },
          "indices": 193,
          "material": 0,
          "mode": 4
        }
      ]
    },
    {
      "name": "top rig.010__0",
      "primitives": [
        {
          "attributes": {
            "NORMAL": 195,
            "POSITION": 194,
            "TEXCOORD_0": 196
          },
          "indices": 197,
          "material": 0,
          "mode": 4
        }
      ]
    },
    {
      "name": "Cylinder__0",
      "primitives": [
        {
          "attributes": {
            "NORMAL": 199,
            "POSITION": 198,
            "TEXCOORD_0": 200
          },
          "indices": 201,
          "material": 0,
          "mode": 4
        }
      ]
    }
  ],
  "nodes": [
    {
      "children": [
        1
      ],
      "matrix": [
        1.0,
        0.0,
        0.0,
        0.0,
        0.0,
        2.220446049250313e-16,
        -1.0,
        0.0,
        0.0,
        1.0,
        2.220446049250313e-16,
        0.0,
        0.0,
        0.0,
        0.0,
        1.0
      ],
      "name": "Sketchfab_model"
    },
    {
      "children": [
        2
      ],
      "matrix": [
        0.009999999776482582,
        0.0,
        0.0,
        0.0,
        0.0,
        0.0,
        0.009999999776482582,
        0.0,
        0.0,
        -0.009999999776482582,
        0.0,
        0.0,
        0.0,
        0.0,
        0.0,
        1.0
      ],
      "name": "a5c4df7bc6824699bbcd16af23cd9d71.fbx"
    },
    {
      "children": [
        3,
        5,
        7,
        9,
        11,
        13,
        15,
        17,
        19,
        21,
        23,
        25,
        27,
        29,
        31,
        33,
        35,
        37,
        41,
        45,
        47,
        49,
        52,
        55,
        57,
        59,
        61,
        63,
        65,
        67,
        69,
        71,
        73,
        75,
        77,
        79,
        81,
        83,
        85,
        87,
        89,
        91,
        93,
        95,
        97,
        99
      ],
      "name": "RootNode"
    },
    {
      "children": [
        4
      ],
      "matrix": [
        33.80070495605469,
        0.0,
        0.0,
        0.0,
        0.0,
        33.80070495605465,
        1.4774756186153465e-06,
        0.0,
        0.0,
        -1.4774756186153465e-06,
        33.80070495605465,
        0.0,
        0.0,
        215.53265380859375,
        0.0,
        1.0
      ],
      "name": "toes"
    },
    {
      "mesh": 0,
      "name": "toes__0"
    },
    {
      "children": [
        6
      ],
      "matrix": [
        40.14509582519531,
        0.0,
        0.0,
        0.0,
        0.0,
        40.14509582519527,
        1.7547980140474452e-06,
        0.0,
        0.0,
        -1.7547980140474452e-06,
        40.14509582519527,
        0.0,
        0.0,
        208.10873413085938,
        0.0,
        1.0
      ],
      "name": "hips"
    },
    {
      "mesh": 1,
      "name": "hips__0"
    },
    {
      "children": [
        8
      ],
      "matrix": [
        39.746368408203125,
        0.0,
        0.0,
        0.0,
        0.0,
        39.74636840820308,
        1.7373690836861673e-06,
        0.0,
        0.0,
        -1.7373690836861673e-06,
        39.74636840820308,
        0.0,
        0.0,
        215.53265380859375,
        0.0,
        1.0
      ],
      "name": "knees"
    },
    {
      "mesh": 2,
      "name": "knees__0"
    },
    {
      "children": [
        10
      ],
      "matrix": [
        39.746368408203125,
        0.0,
        0.0,
        0.0,
        0.0,
        39.74636840820308,
        1.7373690836861673e-06,
        0.0,
        0.0,
        -1.7373690836861673e-06,
        39.74636840820308,
        0.0,
        11.633126258850098,
        215.53265380859375,
        0.0,
        1.0
      ],
      "name": "knee joint"
    },
    {
      "mesh": 3,
      "name": "knee joint__0"
    },
    {
      "children": [
        12
      ],
      "matrix": [
        39.746368408203125,
        0.0,
        0.0,
        0.0,
        0.0,
        39.74636840820308,
        1.7373690836861673e-06,
        0.0,
        0.0,
        -1.7373690836861673e-06,
        39.74636840820308,
        0.0,
        0.0,
        215.53265380859375,
        0.0,
        1.0
      ],
      "name": "lower leg"
    },
    {
      "mesh": 4,
      "name": "lower leg__0"
    },
    {
      "children": [
        14
      ],
      "matrix": [
        13.967436920902584,
        -18.61612094146562,
        -1.2919309676898724e-15,
        0.0,
        -8.137365883870878e-07,
        -6.105361254599202e-07,
        -23.273361206054663,
        0.0,
        18.616120941465606,
        13.967436920902571,
        -1.0173108812165702e-06,
        0.0,
        0.0,
        215.53265380859375,
        0.0,
        1.0
      ],
      "name": "upper leg"
    },
    {
      "mesh": 5,
      "name": "upper leg__0"
    },
    {
      "children": [
        16
      ],
      "matrix": [
        37.631675720214844,
        0.0,
        0.0,
        0.0,
        0.0,
        -6.130978174990489e-06,
        -37.631675720214346,
        0.0,
        0.0,
        49.42405319213802,
        -8.052200324361246e-06,
        0.0,
        0.0,
        215.53265380859375,
        0.0,
        1.0
      ],
      "name": "knee gear"
    },
    {
      "mesh": 6,
      "name": "knee gear__0"
    },
    {
      "children": [
        18
      ],
      "matrix": [
        41.71049499511719,
        0.0,
        0.0,
        0.0,
        -0.0,
        -8.345669352104863e-06,
        -51.22535324096612,
        0.0,
        0.0,
        41.71049499511663,
        -6.795502182374076e-06,
        0.0,
        -12.670573234558105,
        448.7503967285156,
        0.08533895015716553,
        1.0
      ],
      "name": "shoulder joint"
    },
    {
      "mesh": 7,
      "name": "shoulder joint__0"
    },
    {
      "children": [
        20
      ],
      "matrix": [
        50.40267562866211,
        0.0,
        0.0,
        0.0,
        -0.0,
        -8.211638156587734e-06,
        -50.40267562866144,
        0.0,
        0.0,
        50.40267562866144,
        -8.211638156587734e-06,
        0.0,
        -12.670573234558105,
        514.3958740234375,
        0.0,
        1.0
      ],
      "name": "shoulder joint box"
    },
    {
      "mesh": 8,
      "name": "shoulder joint box__0"
    },
    {
      "children": [
        22
      ],
      "matrix": [
        50.40267562866211,
        0.0,
        0.0,
        0.0,
        -0.0,
        -8.211638156587734e-06,
        -50.40267562866144,
        0.0,
        0.0,
        50.40267562866144,
        -8.211638156587734e-06,
        0.0,
        -12.670573234558105,
        448.7503967285156,
        0.08533895015716553,
        1.0
      ],
      "name": "upper arm"
    },
    {
      "mesh": 9,
      "name": "upper arm__0"
    },
    {
      "children": [
        24
      ],
      "matrix": [
        41.71049499511719,
        0.0,
        0.0,
        0.0,
        -0.0,
        -8.345669352104863e-06,
        -51.22535324096612,
        0.0,
        0.0,
        41.71049499511663,
        -6.795502182374076e-06,
        0.0,
        -12.670573234558105,
        448.7503967285156,
        0.08533895015716553,
        1.0
      ],
      "name": "shoulder joint pipes"
    },
    {
      "mesh": 10,
      "name": "shoulder joint pipes__0"
    },
    {
      "children": [
        26
      ],
      "matrix": [
        100.0,
        0.0,
        0.0,
        0.0,
        -0.0,
        -1.629206793918314e-05,
        -99.99999999999868,
        0.0,
        0.0,
        99.99999999999868,
        -1.629206793918314e-05,
        0.0,
        -12.670585632324219,
        448.7503967285156,
        0.0853419303894043,
        1.0
      ],
      "name": "shoulder rotator"
    },
    {
      "mesh": 11,
      "name": "shoulder rotator__0"
    },
    {
      "children": [
        28
      ],
      "matrix": [
        11.43606948852539,
        0.0,
        0.0,
        0.0,
        -0.0,
        -1.8631722106427506e-06,
        -11.43606948852524,
        0.0,
        0.0,
        17.66750335693336,
        -2.8784016500690833e-06,
        0.0,
        -12.670573234558105,
        448.75030517578125,
        0.0853419229388237,
        1.0
      ],
      "name": "elbow pipe2"
    },
    {
      "mesh": 12,
      "name": "elbow pipe2__0"
    },
    {
      "children": [
        30
      ],
      "matrix": [
        11.43606948852539,
        0.0,
        0.0,
        0.0,
        -0.0,
        -1.8631722106427506e-06,
        -11.43606948852524,
        0.0,
        0.0,
        17.66750335693336,
        -2.8784016500690833e-06,
        0.0,
        -7.415972709655762,
        458.8075256347656,
        0.0853419229388237,
        1.0
      ],
      "name": "elbow pipe1"
    },
    {
      "mesh": 13,
      "name": "elbow pipe1__0"
    },
    {
      "children": [
        32
      ],
      "matrix": [
        9.143108367919922,
        0.0,
        0.0,
        0.0,
        -0.0,
        -1.4896014270546526e-06,
        -9.143108367919801,
        0.0,
        0.0,
        9.143108367919801,
        -1.4896014270546526e-06,
        0.0,
        -12.670573234558105,
        448.7503967285156,
        0.0853419303894043,
        1.0
      ],
      "name": "elbow bit 1"
    },
    {
      "mesh": 14,
      "name": "elbow bit 1__0"
    },
    {
      "children": [
        34
      ],
      "matrix": [
        28.782154083251953,
        0.0,
        0.0,
        0.0,
        -0.0,
        -4.689208097603783e-06,
        -28.782154083251573,
        0.0,
        0.0,
        28.782154083251573,
        -4.689208097603783e-06,
        0.0,
        -12.670573234558105,
        448.7503967285156,
        0.0853419303894043,
        1.0
      ],
      "name": "elbow joint"
    },
    {
      "mesh": 15,
      "name": "elbow joint__0"
    },
    {
      "children": [
        36
      ],
      "matrix": [
        108.0987319946289,
        0.0,
        0.0,
        0.0,
        0.0,
        -11.169821194732636,
        -50.03747283740555,
        0.0,
        0.0,
        50.03747283740555,
        -11.169821194732636,
        0.0,
        87.75967407226563,
        313.1664733886719,
        214.25833129882813,
        1.0
      ],
      "name": "drill box"
    },
    {
      "mesh": 16,
      "name": "drill box__0"
    },
    {
      "children": [
        38,
        39
      ],
      "matrix": [
        100.0,
        0.0,
        0.0,
        0.0,
        0.0,
        99.9999999999999,
        4.371138828673792e-06,
        0.0,
        0.0,
        -4.371138828673792e-06,
        99.9999999999999,
        0.0,
        39.77671813964844,
        448.7503967285156,
        0.0,
        1.0
      ],
      "name": "elbow joint gear"
    },
    {
      "mesh": 17,
      "name": "elbow joint gear__0"
    },
    {
      "children": [
        40
      ],
      "matrix": [
        0.7583250403404236,
        0.0,
        0.0,
        0.0,
        0.0,
        0.7583250403404236,
        6.617444900424221e-24,
        0.0,
        0.0,
        -6.617444900424221e-24,
        0.7583250403404236,
        0.0,
        0.006288647651672363,
        3.730260544898556e-11,
        0.0008533895015716553,
        1.0
      ],
      "name": "elbow joint torus"
    },
    {
      "mesh": 18,
      "name": "elbow joint torus__0"
    },
    {
      "children": [
        42,
        43,
        44
      ],
      "matrix": [
        28.530275344848633,
        0.0,
        0.0,
        0.0,
        0.0,
        -4.648171842418757e-06,
        -28.530275344848256,
        0.0,
        0.0,
        28.530275344848256,
        -4.648171842418757e-06,
        0.0,
        44.7982292175293,
        448.7503967285156,
        0.0853419303894043,
        1.0
      ],
      "name": "funky connector"
    },
    {
      "mesh": 19,
      "name": "funky connector__0"
    },
    {
      "mesh": 20,
      "name": "funky connector__0"
    },
    {
      "mesh": 21,
      "name": "funky connector__0"
    },
    {
      "children": [
        46
      ],
      "matrix": [
        2.578203531636938e-06,
        -34.149341118724266,
        7.623125378628884,
        0.0,
        -9.53924993494187e-07,
        -7.6231253786289725,
        -34.14934111872433,
        0.0,
        34.9898452758788,
        2.3084424583965375e-06,
        -1.4927150149792334e-06,
        0.0,
        226.8145294189453,
        313.70538330078125,
        213.9661102294922,
        1.0
      ],
      "name": "drill"
    },
    {
      "mesh": 22,
      "name": "drill__0"
    },
    {
      "children": [
        48
      ],
      "matrix": [
        6.032076543945031e-07,
        -7.989727634671196,
        1.78353965381132,
        0.0,
        -2.2318440304264493e-07,
        -1.7835396538113408,
        -7.989727634671211,
        0.0,
        8.950797080993626,
        5.905256059496605e-07,
        -3.818533355590673e-07,
        0.0,
        197.70726013183594,
        308.5756530761719,
        171.7725067138672,
        1.0
      ],
      "name": "drill bit"
    },
    {
      "mesh": 23,
      "name": "drill bit__0"
    },
    {
      "children": [
        50,
        51
      ],
      "matrix": [
        37.33139419555664,
        0.0,
        0.0,
        0.0,
        0.0,
        7.331820497498923,
        -36.60433192889298,
        0.0,
        0.0,
        36.60433192889298,
        7.331820497498923,
        0.0,
        30.830585479736328,
        325.66680908203125,
        -215.80824279785156,
        1.0
      ],
      "name": "grabber1"
    },
    {
      "mesh": 24,
      "name": "grabber1__0"
    },
    {
      "mesh": 25,
      "name": "grabber1__0"
    },
    {
      "children": [
        53,
        54
      ],
      "matrix": [
        32.80478286743164,
        0.0,
        0.0,
        0.0,
        0.0,
        10.386544669471682,
        -51.85513322445758,
        0.0,
        0.0,
        51.85513322445758,
        10.386544669471682,
        0.0,
        103.56932830810547,
        325.61444091796875,
        -215.577880859375,
        1.0
      ],
      "name": "grabber2"
    },
    {
      "mesh": 26,
      "name": "grabber2__0"
    },
    {
      "mesh": 27,
      "name": "grabber2__0"
    },
    {
      "children": [
        56
      ],
      "matrix": [
        49.06405427884402,
        -45.23897401466187,
        7.389200485598249,
        0.0,
        3.7828018968711214,
        -4.079666808293289,
        -50.09466708130447,
        0.0,
        34.20029039009977,
        37.02138900679768,
        -0.43242144980375946,
        0.0,
        -9.703218460083008,
        516.500732421875,
        190.1574249267578,
        1.0
      ],
      "name": "shoulders.001"
    },
    {
      "mesh": 28,
      "name": "shoulders.001__0"
    },
    {
      "children": [
        58
      ],
      "matrix": [
        51.753429743990836,
        -40.04218739778687,
        -15.05504112346672,
        0.0,
        -9.209339825173744,
        6.564345347756366,
        -49.11747913040839,
        0.0,
        30.763253829074014,
        39.92324289420906,
        -0.4324184639785856,
        0.0,
        -19.19391632080078,
        514.2078247070313,
        -188.01412963867188,
        1.0
      ],
      "name": "shoulders.002"
    },
    {
      "mesh": 29,
      "name": "shoulders.002__0"
    },
    {
      "children": [
        60
      ],
      "matrix": [
        80.19074249267578,
        0.0,
        0.0,
        0.0,
        0.0,
        -9.94819669150607e-06,
        -61.06159591674724,
        0.0,
        0.0,
        109.7807998657212,
        -1.788556249830221e-05,
        0.0,
        1.1270866394042969,
        458.6638488769531,
        0.0,
        1.0
      ],
      "name": "main torso"
    },
    {
      "mesh": 30,
      "name": "main torso__0"
    },
    {
      "children": [
        62
      ],
      "matrix": [
        95.79523468017578,
        0.0,
        0.0,
        0.0,
        0.0,
        -4.796138155555682e-06,
        -29.438486099242777,
        0.0,
        0.0,
        98.36087799072136,
        -1.6025021067825574e-05,
        0.0,
        15.74250602722168,
        476.99261474609375,
        0.0,
        1.0
      ],
      "name": "bottom rig"
    },
    {
      "mesh": 31,
      "name": "bottom rig__0"
    },
    {
      "children": [
        64
      ],
      "matrix": [
        54.24176025390625,
        0.0,
        0.0,
        0.0,
        -0.0,
        -5.505313643313589e-06,
        -33.79137420654252,
        0.0,
        0.0,
        53.907447814940696,
        -8.782638022289952e-06,
        0.0,
        -44.42620086669922,
        574.8434448242188,
        0.0,
        1.0
      ],
      "name": "top torso"
    },
    {
      "mesh": 32,
      "name": "top torso__0"
    },
    {
      "children": [
        66
      ],
      "matrix": [
        31.1068058013916,
        0.0,
        0.0,
        0.0,
        0.0,
        -4.5238533406025536e-06,
        -27.767213821410767,
        0.0,
        0.0,
        99.05493927001822,
        -1.6138098002988185e-05,
        0.0,
        74.34342193603516,
        472.9608154296875,
        -2.3283064365386963e-08,
        1.0
      ],
      "name": "cockpit"
    },
    {
      "mesh": 33,
      "name": "cockpit__0"
    },
    {
      "children": [
        68
      ],
      "matrix": [
        45.78735059460156,
        35.39709352807145,
        0.0,
        0.0,
        3.6427133545934506e-06,
        -4.711974258707525e-06,
        -36.55670166015576,
        0.0,
        -35.39709352807098,
        45.78735059460096,
        -9.428921829556538e-06,
        0.0,
        -6.054486948414706e-05,
        324.0649108886719,
        0.0,
        1.0
      ],
      "name": "rig-leg connector"
    },
    {
      "mesh": 34,
      "name": "rig-leg connector__0"
    },
    {
      "children": [
        70
      ],
      "matrix": [
        54.24176025390625,
        0.0,
        0.0,
        0.0,
        0.0,
        -8.397913160310969e-06,
        29.76611518859745,
        0.0,
        0.0,
        -73.33189392089552,
        -2.0689124970688994e-05,
        0.0,
        -34.50984573364258,
        426.2640075683594,
        0.0,
        1.0
      ],
      "name": "top torso.001"
    },
    {
      "mesh": 35,
      "name": "top torso.001__0"
    },
    {
      "children": [
        72
      ],
      "matrix": [
        3.7601622509640184e-06,
        -49.80485916137682,
        0.0,
        0.0,
        3.7601622537287433e-06,
        2.764725068958693e-13,
        -49.80485916137682,
        0.0,
        49.804859161376676,
        3.7601622537287433e-06,
        3.7601622509640184e-06,
        0.0,
        -74.05596923828125,
        465.466552734375,
        0.0,
        1.0
      ],
      "name": "booster1"
    },
    {
      "mesh": 36,
      "name": "booster1__0"
    },
    {
      "children": [
        74
      ],
      "matrix": [
        3.03008877310832e-06,
        -40.1347427368163,
        0.0,
        0.0,
        3.030088775336246e-06,
        2.2279257736910422e-13,
        -40.1347427368163,
        0.0,
        53.88430786132783,
        4.068152061869285e-06,
        4.068152058878105e-06,
        0.0,
        -74.05596923828125,
        388.6054992675781,
        0.0,
        1.0
      ],
      "name": "booster2"
    },
    {
      "mesh": 37,
      "name": "booster2__0"
    },
    {
      "children": [
        76
      ],
      "matrix": [
        3.03008877310832e-06,
        -40.1347427368163,
        0.0,
        0.0,
        3.030088775336246e-06,
        2.2279257736910422e-13,
        -40.1347427368163,
        0.0,
        47.02525711059544,
        3.5503081373287944e-06,
        3.5503081347183684e-06,
        0.0,
        -74.05596923828125,
        388.6054992675781,
        0.0,
        1.0
      ],
      "name": "booster3"
    },
    {
      "mesh": 38,
      "name": "booster3__0"
    },
    {
      "children": [
        78
      ],
      "matrix": [
        8.193570794014225e-07,
        -10.852713584899874,
        0.0,
        0.0,
        8.193570800038691e-07,
        6.024466250809048e-14,
        -10.852713584899874,
        0.0,
        10.852713584899842,
        8.193570800038691e-07,
        8.193570794014225e-07,
        0.0,
        -6.199573040008545,
        597.517822265625,
        0.0,
        1.0
      ],
      "name": "light"
    },
    {
      "mesh": 39,
      "name": "light__0"
    },
    {
      "children": [
        80
      ],
      "matrix": [
        37.16995209367263,
        37.00090157969387,
        0.0,
        0.0,
        7.711901909927824e-07,
        -7.747136185025417e-07,
        -25.00771331787107,
        0.0,
        -50.27079030949929,
        50.50046857616627,
        -3.114708655188727e-06,
        0.0,
        28.09378433227539,
        611.4132690429688,
        65.6066665649414,
        1.0
      ],
      "name": "top rig.001"
    },
    {
      "mesh": 40,
      "name": "top rig.001__0"
    },
    {
      "children": [
        82
      ],
      "matrix": [
        37.16995209367263,
        37.00090157969387,
        0.0,
        0.0,
        7.711901909927824e-07,
        -7.747136185025417e-07,
        -25.00771331787107,
        0.0,
        -50.27079030949929,
        50.50046857616627,
        -3.114708655188727e-06,
        0.0,
        18.309768676757813,
        662.84033203125,
        65.60665893554688,
        1.0
      ],
      "name": "top rig.002"
    },
    {
      "mesh": 41,
      "name": "top rig.002__0"
    },
    {
      "children": [
        84
      ],
      "matrix": [
        37.16995209367263,
        37.00090157969387,
        0.0,
        0.0,
        7.711901909927824e-07,
        -7.747136185025417e-07,
        -25.00771331787107,
        0.0,
        -50.27079030949929,
        50.50046857616627,
        -3.114708655188727e-06,
        0.0,
        20.75577735900879,
        649.9835205078125,
        65.60665893554688,
        1.0
      ],
      "name": "top rig.003"
    },
    {
      "mesh": 42,
      "name": "top rig.003__0"
    },
    {
      "children": [
        86
      ],
      "matrix": [
        37.16995209367263,
        37.00090157969387,
        0.0,
        0.0,
        7.711901909927824e-07,
        -7.747136185025417e-07,
        -25.00771331787107,
        0.0,
        -50.27079030949929,
        50.50046857616627,
        -3.114708655188727e-06,
        0.0,
        23.201772689819336,
        637.1268310546875,
        65.60665893554688,
        1.0
      ],
      "name": "top rig.004"
    },
    {
      "mesh": 43,
      "name": "top rig.004__0"
    },
    {
      "children": [
        88
      ],
      "matrix": [
        37.16995209367263,
        37.00090157969387,
        0.0,
        0.0,
        7.711901909927824e-07,
        -7.747136185025417e-07,
        -25.00771331787107,
        0.0,
        -50.27079030949929,
        50.50046857616627,
        -3.114708655188727e-06,
        0.0,
        25.647777557373047,
        624.2700805664063,
        65.60665893554688,
        1.0
      ],
      "name": "top rig.005"
    },
    {
      "mesh": 44,
      "name": "top rig.005__0"
    },
    {
      "children": [
        90
      ],
      "matrix": [
        37.16995209367263,
        37.00090157969387,
        0.0,
        0.0,
        7.711901909927824e-07,
        -7.747136185025417e-07,
        -25.00771331787107,
        0.0,
        -50.27079030949929,
        50.50046857616627,
        -3.114708655188727e-06,
        0.0,
        28.09378433227539,
        611.4132690429688,
        -65.6066665649414,
        1.0
      ],
      "name": "top rig.006"
    },
    {
      "mesh": 45,
      "name": "top rig.006__0"
    },
    {
      "children": [
        92
      ],
      "matrix": [
        37.16995209367263,
        37.00090157969387,
        0.0,
        0.0,
        7.711901909927824e-07,
        -7.747136185025417e-07,
        -25.00771331787107,
        0.0,
        -50.27079030949929,
        50.50046857616627,
        -3.114708655188727e-06,
        0.0,
        18.309768676757813,
        662.84033203125,
        -65.60665893554688,
        1.0
      ],
      "name": "top rig.007"
    },
    {
      "mesh": 46,
      "name": "top rig.007__0"
    },
    {
      "children": [
        94
      ],
      "matrix": [
        37.16995209367263,
        37.00090157969387,
        0.0,
        0.0,
        7.711901909927824e-07,
        -7.747136185025417e-07,
        -25.00771331787107,
        0.0,
        -50.27079030949929,
        50.50046857616627,
        -3.114708655188727e-06,
        0.0,
        20.75577735900879,
        649.9835205078125,
        -65.60665893554688,
        1.0
      ],
      "name": "top rig.008"
    },
    {
      "mesh": 47,
      "name": "top rig.008__0"
    },
    {
      "children": [
        96
      ],
      "matrix": [
        37.16995209367263,
        37.00090157969387,
        0.0,
        0.0,
        7.711901909927824e-07,
        -7.747136185025417e-07,
        -25.00771331787107,
        0.0,
        -50.27079030949929,
        50.50046857616627,
        -3.114708655188727e-06,
        0.0,
        23.201772689819336,
        637.1268310546875,
        -65.60665893554688,
        1.0
      ],
      "name": "top rig.009"
    },
    {
      "mesh": 48,
      "name": "top rig.009__0"
    },
    {
      "children": [
        98
      ],
      "matrix": [
        37.16995209367263,
        37.00090157969387,
        0.0,
        0.0,
        7.711901909927824e-07,
        -7.747136185025417e-07,
        -25.00771331787107,
        0.0,
        -50.27079030949929,
        50.50046857616627,
        -3.114708655188727e-06,
        0.0,
        25.647777557373047,
        624.2700805664063,
        -65.60665893554688,
        1.0
      ],
      "name": "top rig.010"
    },
    {
      "mesh": 49,
      "name": "top rig.010__0"
    },
    {
      "children": [
        100
      ],
      "matrix": [
        26.924076080322266,
        0.0,
        0.0,
        0.0,
        0.0,
        26.924076080322237,
        1.1768887438086395e-06,
        0.0,
        0.0,
        -5.567787773245829e-07,
        12.737613677978503,
        0.0,
        0.0,
        295.82135009765625,
        27.179962158203125,
        1.0
      ],
      "name": "Cylinder"
    },
    {
      "mesh": 50,
      "name": "Cylinder__0"
    }
  ],
  "scene": 0,
  "scenes": [
    {
      "name": "Sketchfab_Scene",
      "nodes": [
        0
      ]
    }
  ]
}
