{
  "accessors": [
    {
      "bufferView": 2,
      "componentType": 5126,
      "count": 76,
      "max": [
        1.9154374599456787,
        1.9154374599456787,
        0.2380010187625885
      ],
      "min": [
        -1.9154374599456787,
        -1.9154374599456787,
        -0.17421698570251465
      ],
      "type": "VEC3"
    },
    {
      "bufferView": 2,
      "byteOffset": 912,
      "componentType": 5126,
      "count": 76,
      "max": [
        1.0,
        1.0,
        1.0
      ],
      "min": [
        -1.0,
        -1.0,
        0.0
      ],
      "type": "VEC3"
    },
    {
      "bufferView": 3,
      "componentType": 5126,
      "count": 76,
      "max": [
        0.38268324732780457,
        0.9238821864128113,
        1.0,
        1.0
      ],
      "min": [
        -3.6044500575371785e-06,
        -3.604449830163503e-06,
        1.251062808904635e-09,
        1.0
      ],
      "type": "VEC4"
    },
    {
      "bufferView": 1,
      "componentType": 5126,
      "count": 76,
      "max": [
        0.9256630539894104,
        0.9313963651657104
      ],
      "min": [
        0.0052013397216796875,
        0.005201369524002075
      ],
      "type": "VEC2"
    },
    {
      "bufferView": 0,
      "componentType": 5125,
      "count": 210,
      "type": "SCALAR"
    },
    {
      "bufferView": 2,
      "byteOffset": 1824,
      "componentType": 5126,
      "count": 74,
      "max": [
        0.43047767877578735,
        0.43047770857810974,
        1.2364805936813354
      ],
      "min": [
        -0.4304777681827545,
        -0.43047770857810974,
        1.003403663635254
      ],
      "type": "VEC3"
    },
    {
      "bufferView": 2,
      "byteOffset": 2712,
      "componentType": 5126,
      "count": 74,
      "max": [
        1.0,
        1.0,
        1.0
      ],
      "min": [
        -1.0,
        -1.0,
        0.0
      ],
      "type": "VEC3"
    },
    {
      "bufferView": 3,
      "byteOffset": 1216,
      "componentType": 5126,
      "count": 74,
      "max": [
        0.9914629459381104,
        0.13056151568889618,
        1.0,
        1.0
      ],
      "min": [
        -2.723470288401586e-06,
        -7.028148729659733e-07,
        -7.700857906911551e-08,
        1.0
      ],
      "type": "VEC4"
    },
    {
      "bufferView": 1,
      "byteOffset": 608,
      "componentType": 5126,
      "count": 74,
      "max": [
        0.8189090490341187,
        0.8165687322616577
      ],
      "min": [
        0.07845878601074219,
        0.5579617619514465
      ],
      "type": "VEC2"
    },
    {
      "bufferView": 0,
      "byteOffset": 840,
      "componentType": 5125,
      "count": 210,
      "type": "SCALAR"
    },
    {
      "bufferView": 2,
      "byteOffset": 3600,
      "componentType": 5126,
      "count": 124,
      "max": [
        1.0394772291183472,
        1.0394772291183472,
        1.0153453350067139
      ],
      "min": [
        -1.0394773483276367,
        -1.0394772291183472,
        0.20306360721588135
      ],
      "type": "VEC3"
    },
    {
      "bufferView": 2,
      "byteOffset": 5088,
      "componentType": 5126,
      "count": 124,
      "max": [
        0.999112069606781,
        0.999112069606781,
        1.0
      ],
      "min": [
        -0.999112069606781,
        -0.999112069606781,
        0.042132917791604996
      ],
      "type": "VEC3"
    },
    {
      "bufferView": 3,
      "byteOffset": 2400,
      "componentType": 5126,
      "count": 124,
      "max": [
        0.5573015809059143,
        0.5579515099525452,
        -1.5365412053824912e-08,
        1.0
      ],
      "min": [
        -0.5573015213012695,
        -0.9238879084587097,
        -0.999112069606781,
        1.0
      ],
      "type": "VEC4"
    },
    {
      "bufferView": 1,
      "byteOffset": 1200,
      "componentType": 5126,
      "count": 124,
      "max": [
        0.9587788581848145,
        0.6121672987937927
      ],
      "min": [
        0.44039320945739746,
        0.0052013397216796875
      ],
      "type": "VEC2"
    },
    {
      "bufferView": 0,
      "byteOffset": 1680,
      "componentType": 5125,
      "count": 354,
      "type": "SCALAR"
    },
    {
      "bufferView": 2,
      "byteOffset": 6576,
      "componentType": 5126,
      "count": 44,
      "max": [
        0.660121738910675,
        1.2217576503753662,
        3.7352075576782227
      ],
      "min": [
        -0.660121738910675,
        -1.1785892248153687,
        2.3226990699768066
      ],
      "type": "VEC3"
    },
    {
      "bufferView": 2,
      "byteOffset": 7104,
      "componentType": 5126,
      "count": 44,
      "max": [
        1.0,
        1.0,
        2.0354437424430216e-07
      ],
      "min": [
        -1.0,
        -1.0,
        -1.0
      ],
      "type": "VEC3"
    },
    {
      "bufferView": 3,
      "byteOffset": 4384,
      "componentType": 5126,
      "count": 44,
      "max": [
        0.0,
        2.3536558728665113e-06,
        1.0,
        1.0
      ],
      "min": [
        -1.0,
        -1.334503053840308e-06,
        -2.556388835728285e-06,
        1.0
      ],
      "type": "VEC4"
    },
    {
      "bufferView": 1,
      "byteOffset": 2192,
      "componentType": 5126,
      "count": 44,
      "max": [
        0.7387035489082336,
        0.7473618388175964
      ],
      "min": [
        0.276835560798645,
        0.005201369524002075
      ],
      "type": "VEC2"
    },
    {
      "bufferView": 0,
      "byteOffset": 3096,
      "componentType": 5125,
      "count": 78,
      "type": "SCALAR"
    },
    {
      "bufferView": 2,
      "byteOffset": 7632,
      "componentType": 5126,
      "count": 352,
      "max": [
        0.36318138241767883,
        -0.936214804649353,
        3.580111503601074
      ],
      "min": [
        -0.3631814122200012,
        -3.79805064201355,
        2.853748321533203
      ],
      "type": "VEC3"
    },
    {
      "bufferView": 2,
      "byteOffset": 11856,
      "componentType": 5126,
      "count": 352,
      "max": [
        1.0,
        1.0,
        1.0
      ],
      "min": [
        -1.0,
        -1.0,
        -1.0
      ],
      "type": "VEC3"
    },
    {
      "bufferView": 3,
      "byteOffset": 5088,
      "componentType": 5126,
      "count": 352,
      "max": [
        0.9962301850318909,
        1.0,
        1.0,
        1.0
      ],
      "min": [
        -1.0,
        -1.0,
        -1.0,
        -1.0
      ],
      "type": "VEC4"
    },
    {
      "bufferView": 1,
      "byteOffset": 2544,
      "componentType": 5126,
      "count": 352,
      "max": [
        0.952768862247467,
        0.9530330896377563
      ],
      "min": [
        0.005201372783631086,
        0.5413115620613098
      ],
      "type": "VEC2"
    },
    {
      "bufferView": 0,
      "byteOffset": 3408,
      "componentType": 5125,
      "count": 978,
      "type": "SCALAR"
    },
    {
      "bufferView": 2,
      "byteOffset": 16080,
      "componentType": 5126,
      "count": 40,
      "max": [
        0.6160154342651367,
        1.5285120010375977,
        3.7187321186065674
      ],
      "min": [
        -0.6160154342651367,
        1.2183417081832886,
        2.5664944648742676
      ],
      "type": "VEC3"
    },
    {
      "bufferView": 2,
      "byteOffset": 16560,
      "componentType": 5126,
      "count": 40,
      "max": [
        1.0,
        1.0,
        1.0
      ],
      "min": [
        -1.0,
        0.0,
        -0.8978590369224548
      ],
      "type": "VEC3"
    },
    {
      "bufferView": 3,
      "byteOffset": 10720,
      "componentType": 5126,
      "count": 40,
      "max": [
        4.1160396904160734e-06,
        4.8367077454258833e-08,
        1.0,
        1.0
      ],
      "min": [
        -4.579691449180245e-06,
        -1.0,
        -1.0,
        1.0
      ],
      "type": "VEC4"
    },
    {
      "bufferView": 1,
      "byteOffset": 5360,
      "componentType": 5126,
      "count": 40,
      "max": [
        0.8767328262329102,
        0.766332745552063
      ],
      "min": [
        0.0052013397216796875,
        0.005201369524002075
      ],
      "type": "VEC2"
    },
    {
      "bufferView": 0,
      "byteOffset": 7320,
      "componentType": 5125,
      "count": 90,
      "type": "SCALAR"
    },
    {
      "bufferView": 2,
      "byteOffset": 17040,
      "componentType": 5126,
      "count": 24,
      "max": [
        0.2133517861366272,
        0.6515645980834961,
        2.086026668548584
      ],
      "min": [
        -0.21335184574127197,
        -0.18674688041210175,
        1.2175356149673462
      ],
      "type": "VEC3"
    },
    {
      "bufferView": 2,
      "byteOffset": 17328,
      "componentType": 5126,
      "count": 24,
      "max": [
        1.0,
        0.999067485332489,
        0.6879469752311707
      ],
      "min": [
        -1.0,
        -0.999555230140686,
        -0.6501678824424744
      ],
      "type": "VEC3"
    },
    {
      "bufferView": 3,
      "byteOffset": 11360,
      "componentType": 5126,
      "count": 24,
      "max": [
        1.0,
        1.0,
        2.831978918038658e-06,
        1.0
      ],
      "min": [
        -1.0,
        -4.914140845357906e-06,
        -0.37157246470451355,
        1.0
      ],
      "type": "VEC4"
    },
    {
      "bufferView": 1,
      "byteOffset": 5680,
      "componentType": 5126,
      "count": 24,
      "max": [
        0.7867221832275391,
        0.8714448809623718
      ],
      "min": [
        0.22477325797080994,
        0.41106104850769043
      ],
      "type": "VEC2"
    },
    {
      "bufferView": 0,
      "byteOffset": 7680,
      "componentType": 5125,
      "count": 48,
      "type": "SCALAR"
    },
    {
      "bufferView": 2,
      "byteOffset": 17616,
      "componentType": 5126,
      "count": 74,
      "max": [
        0.45366132259368896,
        0.8842782974243164,
        2.35969877243042
      ],
      "min": [
        -0.435127317905426,
        -0.004510313272476196,
        2.072376251220703
      ],
      "type": "VEC3"
    },
    {
      "bufferView": 2,
      "byteOffset": 18504,
      "componentType": 5126,
      "count": 74,
      "max": [
        1.0,
        1.0,
        4.403374054273712e-10
      ],
      "min": [
        -1.0,
        -1.0,
        -1.0
      ],
      "type": "VEC3"
    },
    {
      "bufferView": 3,
      "byteOffset": 11744,
      "componentType": 5126,
      "count": 74,
      "max": [
        0.60877925157547,
        5.087078989163274e-06,
        1.0,
        1.0
      ],
      "min": [
        -7.0939217948762234e-06,
        -0.7933653593063354,
        1.1091824347886359e-08,
        1.0
      ],
      "type": "VEC4"
    },
    {
      "bufferView": 1,
      "byteOffset": 5872,
      "componentType": 5126,
      "count": 74,
      "max": [
        0.7384570837020874,
        0.7273138761520386
      ],
      "min": [
        0.0052013397216796875,
        0.4670904576778412
      ],
      "type": "VEC2"
    },
    {
      "bufferView": 0,
      "byteOffset": 7872,
      "componentType": 5125,
      "count": 210,
      "type": "SCALAR"
    },
    {
      "bufferView": 2,
      "byteOffset": 19392,
      "componentType": 5126,
      "count": 212,
      "max": [
        0.7547070980072021,
        1.2604994773864746,
        3.8303534984588623
      ],
      "min": [
        -0.7547070980072021,
        -1.246598482131958,
        2.294611930847168
      ],
      "type": "VEC3"
    },
    {
      "bufferView": 2,
      "byteOffset": 21936,
      "componentType": 5126,
      "count": 212,
      "max": [
        1.0,
        1.0,
        1.0
      ],
      "min": [
        -1.0,
        -1.0,
        -1.0
      ],
      "type": "VEC3"
    },
    {
      "bufferView": 3,
      "byteOffset": 12928,
      "componentType": 5126,
      "count": 212,
      "max": [
        1.0,
        0.9995397925376892,
        1.0,
        1.0
      ],
      "min": [
        -1.0,
        -1.0,
        -0.9995055198669434,
        1.0
      ],
      "type": "VEC4"
    },
    {
      "bufferView": 1,
      "byteOffset": 6464,
      "componentType": 5126,
      "count": 212,
      "max": [
        0.9859762191772461,
        0.9840455055236816
      ],
      "min": [
        0.33788686990737915,
        0.005201369524002075
      ],
      "type": "VEC2"
    },
    {
      "bufferView": 0,
      "byteOffset": 8712,
      "componentType": 5125,
      "count": 534,
      "type": "SCALAR"
    },
    {
      "bufferView": 2,
      "byteOffset": 24480,
      "componentType": 5126,
      "count": 20,
      "max": [
        0.2989877462387085,
        1.186872959136963,
        4.06024694442749
      ],
      "min": [
        -0.2989877462387085,
        0.18786576390266418,
        3.794060468673706
      ],
      "type": "VEC3"
    },
    {
      "bufferView": 2,
      "byteOffset": 24720,
      "componentType": 5126,
      "count": 20,
      "max": [
        0.9247261881828308,
        0.8990325927734375,
        1.0
      ],
      "min": [
        -0.9247261881828308,
        -0.8990325927734375,
        0.38063299655914307
      ],
      "type": "VEC3"
    },
    {
      "bufferView": 3,
      "byteOffset": 16320,
      "componentType": 5126,
      "count": 20,
      "max": [
        1.0,
        0.4378817081451416,
        0.9247262477874756,
        1.0
      ],
      "min": [
        -0.38063302636146545,
        -0.4378819763660431,
        -0.9247261881828308,
        1.0
      ],
      "type": "VEC4"
    },
    {
      "bufferView": 1,
      "byteOffset": 8160,
      "componentType": 5126,
      "count": 20,
      "max": [
        0.895505964756012,
        0.9473947882652283
      ],
      "min": [
        0.12426921725273132,
        0.7767354249954224
      ],
      "type": "VEC2"
    },
    {
      "bufferView": 0,
      "byteOffset": 10848,
      "componentType": 5125,
      "count": 30,
      "type": "SCALAR"
    },
    {
      "bufferView": 2,
      "byteOffset": 24960,
      "componentType": 5126,
      "count": 80,
      "max": [
        0.9483795762062073,
        1.4183082580566406,
        3.1538567543029785
      ],
      "min": [
        -0.9483795762062073,
        -0.8069509863853455,
        2.5558810234069824
      ],
      "type": "VEC3"
    },
    {
      "bufferView": 2,
      "byteOffset": 25920,
      "componentType": 5126,
      "count": 80,
      "max": [
        1.0,
        1.0,
        1.0
      ],
      "min": [
        -1.0,
        -0.9999706149101257,
        -0.9999889731407166
      ],
      "type": "VEC3"
    },
    {
      "bufferView": 3,
      "byteOffset": 16640,
      "componentType": 5126,
      "count": 80,
      "max": [
        1.0,
        0.8350010514259338,
        1.0,
        1.0
      ],
      "min": [
        -1.0,
        -0.8350011706352234,
        -0.44860881567001343,
        -1.0
      ],
      "type": "VEC4"
    },
    {
      "bufferView": 1,
      "byteOffset": 8320,
      "componentType": 5126,
      "count": 80,
      "max": [
        0.9869000911712646,
        0.982035756111145
      ],
      "min": [
        0.0052013397216796875,
        0.24351757764816284
      ],
      "type": "VEC2"
    },
    {
      "bufferView": 0,
      "byteOffset": 10968,
      "componentType": 5125,
      "count": 120,
      "type": "SCALAR"
    },
    {
      "bufferView": 2,
      "byteOffset": 26880,
      "componentType": 5126,
      "count": 264,
      "max": [
        3.2528738975524902,
        3.2528738975524902,
        0.5690165758132935
      ],
      "min": [
        -3.2528738975524902,
        -3.2528738975524902,
        -0.1821497529745102
      ],
      "type": "VEC3"
    },
    {
      "bufferView": 2,
      "byteOffset": 30048,
      "componentType": 5126,
      "count": 264,
      "max": [
        1.0,
        1.0,
        1.0
      ],
      "min": [
        -1.0,
        -1.0,
        -1.0
      ],
      "type": "VEC3"
    },
    {
      "bufferView": 3,
      "byteOffset": 17920,
      "componentType": 5126,
      "count": 264,
      "max": [
        1.0,
        1.0,
        1.0,
        1.0
      ],
      "min": [
        -1.0,
        -1.0,
        -1.0,
        1.0
      ],
      "type": "VEC4"
    },
    {
      "bufferView": 1,
      "byteOffset": 8960,
      "componentType": 5126,
      "count": 264,
      "max": [
        0.8108323216438293,
        0.9830126166343689
      ],
      "min": [
        0.011874914169311523,
        0.3705860376358032
      ],
      "type": "VEC2"
    },
    {
      "bufferView": 0,
      "byteOffset": 11448,
      "componentType": 5125,
      "count": 480,
      "type": "SCALAR"
    },
    {
      "bufferView": 2,
      "byteOffset": 33216,
      "componentType": 5126,
      "count": 400,
      "max": [
        0.9265006184577942,
        1.4987365007400513,
        2.6707029342651367
      ],
      "min": [
        -0.9265006184577942,
        -0.37124431133270264,
        2.4238667488098145
      ],
      "type": "VEC3"
    },
    {
      "bufferView": 2,
      "byteOffset": 38016,
      "componentType": 5126,
      "count": 400,
      "max": [
        1.0,
        1.0,
        0.0
      ],
      "min": [
        -1.0,
        -1.0,
        -1.0
      ],
      "type": "VEC3"
    },
    {
      "bufferView": 3,
      "byteOffset": 22144,
      "componentType": 5126,
      "count": 400,
      "max": [
        0.9842872619628906,
        0.18340666592121124,
        1.0,
        1.0
      ],
      "min": [
        -0.9842941761016846,
        -0.17677956819534302,
        -1.0,
        -1.0
      ],
      "type": "VEC4"
    },
    {
      "bufferView": 1,
      "byteOffset": 11072,
      "componentType": 5126,
      "count": 400,
      "max": [
        0.9845359325408936,
        0.9947987198829651
      ],
      "min": [
        0.06496676802635193,
        0.7007133960723877
      ],
      "type": "VEC2"
    },
    {
      "bufferView": 0,
      "byteOffset": 13368,
      "componentType": 5125,
      "count": 1104,
      "type": "SCALAR"
    },
    {
      "bufferView": 2,
      "byteOffset": 42816,
      "componentType": 5126,
      "count": 1274,
      "max": [
        1.0359413623809814,
        1.463791012763977,
        2.521486282348633
      ],
      "min": [
        -1.0359413623809814,
        -0.327976793050766,
        1.5531649589538574
      ],
      "type": "VEC3"
    },
    {
      "bufferView": 2,
      "byteOffset": 58104,
      "componentType": 5126,
      "count": 1274,
      "max": [
        0.9876706600189209,
        0.9933633208274841,
        0.980536699295044
      ],
      "min": [
        -0.9876706600189209,
        -0.9912199974060059,
        -0.9760288596153259
      ],
      "type": "VEC3"
    },
    {
      "bufferView": 3,
      "byteOffset": 28544,
      "componentType": 5126,
      "count": 1274,
      "max": [
        0.9959468245506287,
        0.9841129779815674,
        0.9877360463142395,
        1.0
      ],
      "min": [
        -0.9959468841552734,
        -0.9839428067207336,
        -0.9872598052024841,
        -1.0
      ],
      "type": "VEC4"
    },
    {
      "bufferView": 1,
      "byteOffset": 14272,
      "componentType": 5126,
      "count": 1274,
      "max": [
        0.6530535221099854,
        0.7363007068634033
      ],
      "min": [
        0.6153095960617065,
        0.4670904874801636
      ],
      "type": "VEC2"
    },
    {
      "bufferView": 0,
      "byteOffset": 17784,
      "componentType": 5125,
      "count": 6912,
      "type": "SCALAR"
    },
    {
      "bufferView": 2,
      "byteOffset": 73392,
      "componentType": 5126,
      "count": 8,
      "max": [
        0.6477071046829224,
        -0.08497965335845947,
        3.7314984798431396
      ],
      "min": [
        0.22287558019161224,
        -0.754196047782898,
        3.3511605262756348
      ],
      "type": "VEC3"
    },
    {
      "bufferView": 2,
      "byteOffset": 73488,
      "componentType": 5126,
      "count": 8,
      "max": [
        1.0,
        0.0,
        1.0
      ],
      "min": [
        0.0,
        0.0,
        0.0
      ],
      "type": "VEC3"
    },
    {
      "bufferView": 3,
      "byteOffset": 48928,
      "componentType": 5126,
      "count": 8,
      "max": [
        9.563008234181325e-07,
        1.0,
        0.0,
        1.0
      ],
      "min": [
        0.0,
        1.0,
        -3.381033479854523e-07,
        1.0
      ],
      "type": "VEC4"
    },
    {
      "bufferView": 1,
      "byteOffset": 24464,
      "componentType": 5126,
      "count": 8,
      "max": [
        0.7012001872062683,
        0.8095290064811707
      ],
      "min": [
        0.6386532783508301,
        0.7467033863067627
      ],
      "type": "VEC2"
    },
    {
      "bufferView": 0,
      "byteOffset": 45432,
      "componentType": 5125,
      "count": 18,
      "type": "SCALAR"
    }
  ],
  "asset": {
    "extras": {
      "author": "SnoyCat (https://sketchfab.com/SnoyCat)",
      "license": "CC-BY-4.0 (http://creativecommons.org/licenses/by/4.0/)",
      "source": "https://sketchfab.com/3d-models/combat-turret-648f656771684594af0f2d627f0c24af",
      "title": "Combat Turret"
    },
    "generator": "Sketchfab-15.27.0",
    "version": "2.0"
  },
  "bufferViews": [
    {
      "buffer": 0,
      "byteLength": 45504,
      "name": "floatBufferViews",
      "target": 34963
    },
    {
      "buffer": 0,
      "byteLength": 24528,
      "byteOffset": 45504,
      "byteStride": 8,
      "name": "floatBufferViews",
      "target": 34962
    },
    {
      "buffer": 0,
      "byteLength": 73584,
      "byteOffset": 70032,
      "byteStride": 12,
      "name": "floatBufferViews",
      "target": 34962
    },
    {
      "buffer": 0,
      "byteLength": 49056,
      "byteOffset": 143616,
      "byteStride": 16,
      "name": "floatBufferViews",
      "target": 34962
    }
  ],
  "buffers": [
    {
      "byteLength": 192672,
      "uri": "scene.bin"
    }
  ],
  "images": [
    {
      "uri": "textures/material_baseColor.png"
    },
    {
      "uri": "textures/material_metallicRoughness.png"
    },
    {
      "uri": "textures/material_normal.png"
    }
  ],
  "materials": [
    {
      "doubleSided": true,
      "name": "material",
      "normalTexture": {
        "index": 2
      },
      "occlusionTexture": {
        "index": 1
      },
      "pbrMetallicRoughness": {
        "baseColorTexture": {
          "index": 0
        },
        "metallicRoughnessTexture": {
          "index": 1
        }
      }
    }
  ],
  "meshes": [
    {
      "name": "Platform_low_Uv_0",
      "primitives": [
        {
          "attributes": {
            "NORMAL": 1,
            "POSITION": 0,
            "TANGENT": 2,
            "TEXCOORD_0": 3
          },
          "indices": 4,
          "material": 0,
          "mode": 4
        }
      ]
    },
    {
      "name": "Platform1_low_Uv_0",
      "primitives": [
        {
          "attributes": {
            "NORMAL": 6,
            "POSITION": 5,
            "TANGENT": 7,
            "TEXCOORD_0": 8
          },
          "indices": 9,
          "material": 0,
          "mode": 4
        }
      ]
    },
    {
      "name": "Platform3_low_Uv_0",
      "primitives": [
        {
          "attributes": {
            "NORMAL": 11,
            "POSITION": 10,
            "TANGENT": 12,
            "TEXCOORD_0": 13
          },
          "indices": 14,
          "material": 0,
          "mode": 4
        }
      ]
    },
    {
      "name": "Frame1_low_Uv_0",
      "primitives": [
        {
          "attributes": {
            "NORMAL": 16,
            "POSITION": 15,
            "TANGENT": 17,
            "TEXCOORD_0": 18
          },
          "indices": 19,
          "material": 0,
          "mode": 4
        }
      ]
    },
    {
      "name": "Doulo_low_Uv_0",
      "primitives": [
        {
          "attributes": {
            "NORMAL": 21,
            "POSITION": 20,
            "TANGENT": 22,
            "TEXCOORD_0": 23
          },
          "indices": 24,
          "material": 0,
          "mode": 4
        }
      ]
    },
    {
      "name": "Frame3_low_Uv_0",
      "primitives": [
        {
          "attributes": {
            "NORMAL": 26,
            "POSITION": 25,
            "TANGENT": 27,
            "TEXCOORD_0": 28
          },
          "indices": 29,
          "material": 0,
          "mode": 4
        }
      ]
    },
    {
      "name": "Leg_low_Uv_0",
      "primitives": [
        {
          "attributes": {
            "NORMAL": 31,
            "POSITION": 30,
            "TANGENT": 32,
            "TEXCOORD_0": 33
          },
          "indices": 34,
          "material": 0,
          "mode": 4
        }
      ]
    },
    {
      "name": "Platform2_low_Uv_0",
      "primitives": [
        {
          "attributes": {
            "NORMAL": 36,
            "POSITION": 35,
            "TANGENT": 37,
            "TEXCOORD_0": 38
          },
          "indices": 39,
          "material": 0,
          "mode": 4
        }
      ]
    },
    {
      "name": "Frame2_low_Uv_0",
      "primitives": [
        {
          "attributes": {
            "NORMAL": 41,
            "POSITION": 40,
            "TANGENT": 42,
            "TEXCOORD_0": 43
          },
          "indices": 44,
          "material": 0,
          "mode": 4
        }
      ]
    },
    {
      "name": "Detail1_low_Uv_0",
      "primitives": [
        {
          "attributes": {
            "NORMAL": 46,
            "POSITION": 45,
            "TANGENT": 47,
            "TEXCOORD_0": 48
          },
          "indices": 49,
          "material": 0,
          "mode": 4
        }
      ]
    },
    {
      "name": "Detail2_low_Uv_0",
      "primitives": [
        {
          "attributes": {
            "NORMAL": 51,
            "POSITION": 50,
            "TANGENT": 52,
            "TEXCOORD_0": 53
          },
          "indices": 54,
          "material": 0,
          "mode": 4
        }
      ]
    },
    {
      "name": "Legs_low_Uv_0",
      "primitives": [
        {
          "attributes": {
            "NORMAL": 56,
            "POSITION": 55,
            "TANGENT": 57,
            "TEXCOORD_0": 58
          },
          "indices": 59,
          "material": 0,
          "mode": 4
        }
      ]
    },
    {
      "name": "Detail3_low_Uv_0",
      "primitives": [
        {
          "attributes": {
            "NORMAL": 61,
            "POSITION": 60,
            "TANGENT": 62,
            "TEXCOORD_0": 63
          },
          "indices": 64,
          "material": 0,
          "mode": 4
        }
      ]
    },
    {
      "name": "Wire_low_Uv_0",
      "primitives": [
        {
          "attributes": {
            "NORMAL": 66,
            "POSITION": 65,
            "TANGENT": 67,
            "TEXCOORD_0": 68
          },
          "indices": 69,
          "material": 0,
          "mode": 4
        }
      ]
    },
    {
      "name": "Frame4_low_Uv_0",
      "primitives": [
        {
          "attributes": {
            "NORMAL": 71,
            "POSITION": 70,
            "TANGENT": 72,
            "TEXCOORD_0": 73
          },
          "indices": 74,
          "material": 0,
          "mode": 4
        }
      ]
    }
  ],
  "nodes": [
    {
      "children": [
        1
      ],
      "matrix": [
        1.0,
        0.0,
        0.0,
        0.0,
        0.0,
        2.220446049250313e-16,
        -1.0,
        0.0,
        0.0,
        1.0,
        2.220446049250313e-16,
        0.0,
        0.0,
        0.0,
        0.0,
        1.0
      ],
      "name": "Sketchfab_model"
    },
    {
      "children": [
        2
      ],
      "matrix": [
        0.009999999776482582,
        0.0,
        0.0,
        0.0,
        0.0,
        0.0,
        0.009999999776482582,
        0.0,
        0.0,
        -0.009999999776482582,
        0.0,
        0.0,
        0.0,
        0.0,
        0.0,
        1.0
      ],
      "name": "94ee4c775fdd488ebe54f10d25a39e73.fbx"
    },
    {
      "children": [
        3,
        5,
        7,
        9,
        11,
        13,
        15,
        17,
        19,
        21,
        23,
        25,
        27,
        29,
        31
      ],
      "name": "RootNode"
    },
    {
      "children": [
        4
      ],
      "matrix": [
        100.0,
        0.0,
        0.0,
        0.0,
        0.0,
        -1.629206793918314e-05,
        -99.99999999999868,
        0.0,
        0.0,
        99.99999999999868,
        -1.629206793918314e-05,
        0.0,
        0.0,
        0.0,
        0.0,
        1.0
      ],
      "name": "Platform_low"
    },
    {
      "mesh": 0,
      "name": "Platform_low_Uv_0"
    },
    {
      "children": [
        6
      ],
      "matrix": [
        100.0,
        0.0,
        0.0,
        0.0,
        0.0,
        -1.629206793918314e-05,
        -99.99999999999868,
        0.0,
        0.0,
        99.99999999999868,
        -1.629206793918314e-05,
        0.0,
        0.0,
        0.0,
        0.0,
        1.0
      ],
      "name": "Platform1_low"
    },
    {
      "mesh": 1,
      "name": "Platform1_low_Uv_0"
    },
    {
      "children": [
        8
      ],
      "matrix": [
        100.0,
        0.0,
        0.0,
        0.0,
        0.0,
        -1.629206793918314e-05,
        -99.99999999999868,
        0.0,
        0.0,
        99.99999999999868,
        -1.629206793918314e-05,
        0.0,
        0.0,
        0.0,
        0.0,
        1.0
      ],
      "name": "Platform3_low"
    },
    {
      "mesh": 2,
      "name": "Platform3_low_Uv_0"
    },
    {
      "children": [
        10
      ],
      "matrix": [
        100.0,
        0.0,
        0.0,
        0.0,
        0.0,
        -1.629206793918314e-05,
        -99.99999999999868,
        0.0,
        0.0,
        99.99999999999868,
        -1.629206793918314e-05,
        0.0,
        0.0,
        0.0,
        0.0,
        1.0
      ],
      "name": "Frame1_low"
    },
    {
      "mesh": 3,
      "name": "Frame1_low_Uv_0"
    },
    {
      "children": [
        12
      ],
      "matrix": [
        100.0,
        0.0,
        0.0,
        0.0,
        0.0,
        -1.629206793918314e-05,
        -99.99999999999868,
        0.0,
        0.0,
        99.99999999999868,
        -1.629206793918314e-05,
        0.0,
        0.0,
        0.0,
        0.0,
        1.0
      ],
      "name": "Doulo_low"
    },
    {
      "mesh": 4,
      "name": "Doulo_low_Uv_0"
    },
    {
      "children": [
        14
      ],
      "matrix": [
        100.0,
        0.0,
        0.0,
        0.0,
        0.0,
        -1.629206793918314e-05,
        -99.99999999999868,
        0.0,
        0.0,
        99.99999999999868,
        -1.629206793918314e-05,
        0.0,
        0.0,
        0.0,
        0.0,
        1.0
      ],
      "name": "Frame3_low"
    },
    {
      "mesh": 5,
      "name": "Frame3_low_Uv_0"
    },
    {
      "children": [
        16
      ],
      "matrix": [
        100.0,
        0.0,
        0.0,
        0.0,
        0.0,
        -1.629206793918314e-05,
        -99.99999999999868,
        0.0,
        0.0,
        99.99999999999868,
        -1.629206793918314e-05,
        0.0,
        0.0,
        0.0,
        0.0,
        1.0
      ],
      "name": "Leg_low"
    },
    {
      "mesh": 6,
      "name": "Leg_low_Uv_0"
    },
    {
      "children": [
        18
      ],
      "matrix": [
        100.0,
        0.0,
        0.0,
        0.0,
        0.0,
        -1.629206793918314e-05,
        -99.99999999999868,
        0.0,
        0.0,
        99.99999999999868,
        -1.629206793918314e-05,
        0.0,
        0.0,
        0.0,
        0.0,
        1.0
      ],
      "name": "Platform2_low"
    },
    {
      "mesh": 7,
      "name": "Platform2_low_Uv_0"
    },
    {
      "children": [
        20
      ],
      "matrix": [
        100.0,
        0.0,
        0.0,
        0.0,
        0.0,
        -1.629206793918314e-05,
        -99.99999999999868,
        0.0,
        0.0,
        99.99999999999868,
        -1.629206793918314e-05,
        0.0,
        0.0,
        0.0,
        0.0,
        1.0
      ],
      "name": "Frame2_low"
    },
    {
      "mesh": 8,
      "name": "Frame2_low_Uv_0"
    },
    {
      "children": [
        22
      ],
      "matrix": [
        100.0,
        0.0,
        0.0,
        0.0,
        0.0,
        -1.629206793918314e-05,
        -99.99999999999868,
        0.0,
        0.0,
        99.99999999999868,
        -1.629206793918314e-05,
        0.0,
        0.0,
        0.0,
        0.0,
        1.0
      ],
      "name": "Detail1_low"
    },
    {
      "mesh": 9,
      "name": "Detail1_low_Uv_0"
    },
    {
      "children": [
        24
      ],
      "matrix": [
        100.0,
        0.0,
        0.0,
        0.0,
        0.0,
        -1.629206793918314e-05,
        -99.99999999999868,
        0.0,
        0.0,
        99.99999999999868,
        -1.629206793918314e-05,
        0.0,
        0.0,
        0.0,
        0.0,
        1.0
      ],
      "name": "Detail2_low"
    },
    {
      "mesh": 10,
      "name": "Detail2_low_Uv_0"
    },
    {
      "children": [
        26
      ],
      "matrix": [
        100.0,
        0.0,
        0.0,
        0.0,
        0.0,
        -1.629206793918314e-05,
        -99.99999999999868,
        0.0,
        0.0,
        99.99999999999868,
        -1.629206793918314e-05,
        0.0,
        0.0,
        0.0,
        0.0,
        1.0
      ],
      "name": "Legs_low"
    },
    {
      "mesh": 11,
      "name": "Legs_low_Uv_0"
    },
    {
      "children": [
        28
      ],
      "matrix": [
        100.0,
        0.0,
        0.0,
        0.0,
        0.0,
        -1.629206793918314e-05,
        -99.99999999999868,
        0.0,
        0.0,
        99.99999999999868,
        -1.629206793918314e-05,
        0.0,
        0.0,
        0.0,
        0.0,
        1.0
      ],
      "name": "Detail3_low"
    },
    {
      "mesh": 12,
      "name": "Detail3_low_Uv_0"
    },
    {
      "children": [
        30
      ],
      "matrix": [
        100.0,
        0.0,
        0.0,
        0.0,
        0.0,
        -1.629206793918314e-05,
        -99.99999999999868,
        0.0,
        0.0,
        99.99999999999868,
        -1.629206793918314e-05,
        0.0,
        0.0,
        0.0,
        0.0,
        1.0
      ],
      "name": "Wire_low"
    },
    {
      "mesh": 13,
      "name": "Wire_low_Uv_0"
    },
    {
      "children": [
        32
      ],
      "matrix": [
        100.0,
        0.0,
        0.0,
        0.0,
        0.0,
        -1.629206793918314e-05,
        -99.99999999999868,
        0.0,
        0.0,
        99.99999999999868,
        -1.629206793918314e-05,
        0.0,
        0.0,
        0.0,
        0.0,
        1.0
      ],
      "name": "Frame4_low"
    },
    {
      "mesh": 14,
      "name": "Frame4_low_Uv_0"
    }
  ],
  "samplers": [
    {
      "magFilter": 9729,
      "minFilter": 9987,
      "wrapS": 10497,
      "wrapT": 10497
    }
  ],
  "scene": 0,
  "scenes": [
    {
      "name": "Sketchfab_Scene",
      "nodes": [
        0
      ]
    }
  ],
  "textures": [
    {
      "sampler": 0,
      "source": 0
    },
    {
      "sampler": 0,
      "source": 1
    },
    {
      "sampler": 0,
      "source": 2
    }
  ]
}
